<?xml version="1.0" encoding="UTF-8"?>
<!DOCTYPE svg PUBLIC "-//W3C//DTD SVG 1.1//EN" "http://www.w3.org/Graphics/SVG/1.1/DTD/svg11.dtd">
<svg xmlns="http://www.w3.org/2000/svg" version="1.1" width="131px" height="128px" style="color:black;shape-rendering:geometricPrecision; text-rendering:geometricPrecision; image-rendering:optimizeQuality; fill-rule:evenodd; clip-rule:evenodd" xmlns:xlink="http://www.w3.org/1999/xlink">
<g><path style="opacity:0.868" fill="#110f8d" d="M 55.5,-0.5 C 55.8333,-0.5 56.1667,-0.5 56.5,-0.5C 57.1667,0.833333 57.8333,0.833333 58.5,-0.5C 59.1667,-0.5 59.8333,-0.5 60.5,-0.5C 61.5,0.833333 62.5,0.833333 63.5,-0.5C 63.8333,-0.5 64.1667,-0.5 64.5,-0.5C 65.1667,0.833333 65.8333,0.833333 66.5,-0.5C 66.8333,-0.5 67.1667,-0.5 67.5,-0.5C 68.1667,0.833333 68.8333,0.833333 69.5,-0.5C 69.8333,-0.5 70.1667,-0.5 70.5,-0.5C 71.1667,0.833333 71.8333,0.833333 72.5,-0.5C 72.8333,-0.5 73.1667,-0.5 73.5,-0.5C 74.6353,1.08783 75.9686,1.42117 77.5,0.5C 106.991,7.01051 124.658,25.6772 130.5,56.5C 130.5,62.1667 130.5,67.8333 130.5,73.5C 122.52,104.178 103.853,122.178 74.5,127.5C 74.1667,127.5 73.8333,127.5 73.5,127.5C 72.8333,126.167 72.1667,126.167 71.5,127.5C 70.8333,127.5 70.1667,127.5 69.5,127.5C 68.5,126.167 67.5,126.167 66.5,127.5C 66.1667,127.5 65.8333,127.5 65.5,127.5C 64.8333,126.167 64.1667,126.167 63.5,127.5C 63.1667,127.5 62.8333,127.5 62.5,127.5C 61.8333,126.167 61.1667,126.167 60.5,127.5C 60.1667,127.5 59.8333,127.5 59.5,127.5C 58.8333,126.167 58.1667,126.167 57.5,127.5C 57.1667,127.5 56.8333,127.5 56.5,127.5C 55.3647,125.912 54.0314,125.579 52.5,126.5C 23.0089,119.989 5.34222,101.323 -0.5,70.5C -0.5,64.8333 -0.5,59.1667 -0.5,53.5C 7.47994,22.8224 26.1466,4.82238 55.5,-0.5 Z M 56.5,14.5 C 61.3172,15.0167 65.9838,15.0167 70.5,14.5C 72.7094,15.1062 74.876,15.7728 77,16.5C 85.0708,17.3048 92.4042,20.9715 99,27.5C 99.3333,27.1667 99.6667,26.8333 100,26.5C 119.858,47.766 121.691,70.4326 105.5,94.5C 101.833,97.8333 98.1667,101.167 94.5,104.5C 75.5343,114.382 56.8677,114.882 38.5,106C 14.3041,89.6978 7.97078,67.6978 19.5,40C 23.6047,33.0611 28.9381,27.2278 35.5,22.5C 42.5677,18.9382 49.5677,16.2716 56.5,14.5 Z"/></g>
</svg>
