<?xml version="1.0" encoding="UTF-8"?>
<!DOCTYPE svg PUBLIC "-//W3C//DTD SVG 1.1//EN" "http://www.w3.org/Graphics/SVG/1.1/DTD/svg11.dtd">
<svg xmlns="http://www.w3.org/2000/svg" version="1.1" width="1173px" height="128px" style="color:black;shape-rendering:geometricPrecision; text-rendering:geometricPrecision; image-rendering:optimizeQuality; fill-rule:evenodd; clip-rule:evenodd" xmlns:xlink="http://www.w3.org/1999/xlink">
<g><path style="opacity:0.862" fill="#110f8d" d="M 55.5,-0.5 C 55.8333,-0.5 56.1667,-0.5 56.5,-0.5C 57.5,0.833333 58.5,0.833333 59.5,-0.5C 59.8333,-0.5 60.1667,-0.5 60.5,-0.5C 66.8568,1.38274 68.8568,5.54941 66.5,12C 65,13.1667 63.5,14.3333 62,15.5C 43.7388,15.2482 29.5722,23.4149 19.5,40C 7.97078,67.6978 14.3041,89.6978 38.5,106C 43.3775,107.795 47.8775,109.629 52,111.5C 52.3333,111.167 52.6667,110.833 53,110.5C 55.124,111.227 57.2906,111.894 59.5,112.5C 62.053,112.294 64.553,111.961 67,111.5C 69.9403,113.573 71.7736,116.24 72.5,119.5C 72.5,120.5 72.5,121.5 72.5,122.5C 70.4752,124.196 68.4752,125.863 66.5,127.5C 66.1667,127.5 65.8333,127.5 65.5,127.5C 64.8333,126.167 64.1667,126.167 63.5,127.5C 63.1667,127.5 62.8333,127.5 62.5,127.5C 61.8333,126.167 61.1667,126.167 60.5,127.5C 60.1667,127.5 59.8333,127.5 59.5,127.5C 58.8333,126.167 58.1667,126.167 57.5,127.5C 57.1667,127.5 56.8333,127.5 56.5,127.5C 55.3647,125.912 54.0314,125.579 52.5,126.5C 23.0089,119.989 5.34222,101.323 -0.5,70.5C -0.5,64.8333 -0.5,59.1667 -0.5,53.5C 7.50879,22.7921 26.1755,4.79207 55.5,-0.5 Z"/></g>
</svg>
