<?xml version="1.0" encoding="UTF-8"?>
<!DOCTYPE svg PUBLIC "-//W3C//DTD SVG 1.1//EN" "http://www.w3.org/Graphics/SVG/1.1/DTD/svg11.dtd">
<svg xmlns="http://www.w3.org/2000/svg" version="1.1" width="670px" height="1152px" style="shape-rendering:geometricPrecision; text-rendering:geometricPrecision; image-rendering:optimizeQuality; fill-rule:evenodd; clip-rule:evenodd" xmlns:xlink="http://www.w3.org/1999/xlink">
<g><path style="opacity:0.994" fill="#110f8d" d="M 303.5,8.5 C 389.097,3.31124 464.431,28.1446 529.5,83C 581.791,131.414 611.958,191.248 620,262.5C 621.466,351.818 621.966,441.151 621.5,530.5C 425.167,530.5 228.833,530.5 32.5,530.5C 32.8316,451.596 32.4983,372.763 31.5,294C 34.2396,191.155 77.9063,111.155 162.5,54C 205.888,27.4811 252.888,12.3145 303.5,8.5 Z M 315.5,138.5 C 358.13,136.072 397.13,146.572 432.5,170C 470.205,200.246 489.705,239.746 491,288.5C 491.5,323.832 491.667,359.165 491.5,394.5C 381.833,394.5 272.167,394.5 162.5,394.5C 162.333,356.499 162.5,318.499 163,280.5C 169.708,211.801 205.875,166.968 271.5,146C 286.108,142.288 300.775,139.788 315.5,138.5 Z"/></g>
<g><path style="opacity:0.995" fill="#110f8d" d="M 304.5,605.5 C 401.208,599.808 483.041,631.474 550,700.5C 592.94,749.599 616.607,806.933 621,872.5C 621.5,957.499 621.667,1042.5 621.5,1127.5C 425.167,1127.5 228.833,1127.5 32.5,1127.5C 32.8316,1048.6 32.4983,969.763 31.5,891C 34.1285,789.721 76.7952,710.388 159.5,653C 203.921,625.026 252.255,609.193 304.5,605.5 Z M 317.5,735.5 C 356.664,733.874 392.998,743.041 426.5,763C 468.056,792.932 489.556,833.765 491,885.5C 491.5,921.165 491.667,956.832 491.5,992.5C 381.833,992.5 272.167,992.5 162.5,992.5C 162.059,951.144 162.559,909.81 164,868.5C 173.342,803.986 209.175,762.153 271.5,743C 286.751,739.069 302.085,736.569 317.5,735.5 Z"/></g>
</svg>
