<?xml version="1.0" encoding="UTF-8"?>
<!DOCTYPE svg PUBLIC "-//W3C//DTD SVG 1.1//EN" "http://www.w3.org/Graphics/SVG/1.1/DTD/svg11.dtd">
<svg xmlns="http://www.w3.org/2000/svg" version="1.1" width="1933px" height="731px" style="shape-rendering:geometricPrecision; text-rendering:geometricPrecision; image-rendering:optimizeQuality; fill-rule:evenodd; clip-rule:evenodd" xmlns:xlink="http://www.w3.org/1999/xlink">
<g><path style="opacity:0.746" fill="#f47500" d="M 392.5,4.5 C 523.209,-2.21119 628.375,45.7888 708,148.5C 709.944,152.11 712.277,155.443 715,158.5C 715.49,159.793 715.657,161.127 715.5,162.5C 713.856,162.714 712.356,162.38 711,161.5C 651.596,76.1797 570.096,26.013 466.5,11C 329.74,-1.26267 220.074,46.904 137.5,155.5C 135.717,154.652 135.217,153.319 136,151.5C 190.807,76.3179 263.974,29.1512 355.5,10C 367.945,7.91348 380.278,6.08015 392.5,4.5 Z M 328.5,62.5 C 329.978,62.238 331.311,62.5713 332.5,63.5C 337.7,79.0997 342.7,94.7663 347.5,110.5C 347.132,111.91 346.299,112.91 345,113.5C 339.195,96.586 333.695,79.586 328.5,62.5 Z M 533.5,66.5 C 536.68,66.1762 537.847,67.5096 537,70.5C 530.471,86.4207 524.137,102.421 518,118.5C 516.159,121.081 514.326,121.081 512.5,118.5C 519.508,101.138 526.508,83.8045 533.5,66.5 Z M 572.5,86.5 C 575.244,87.0717 576.077,88.7383 575,91.5C 571.253,98.6628 567.253,105.663 563,112.5C 561.89,114.037 560.39,114.703 558.5,114.5C 563.146,105.209 567.812,95.8754 572.5,86.5 Z M 238.5,107.5 C 240.903,107.393 242.736,108.393 244,110.5C 248.833,117.333 253.667,124.167 258.5,131C 257.953,131.925 257.287,132.758 256.5,133.5C 250.006,125.5 243.673,117.334 237.5,109C 238.056,108.617 238.389,108.117 238.5,107.5 Z"/></g>
<g><path style="opacity:0.881" fill="#f47500" d="M 399.5,36.5 C 403.167,36.5 406.833,36.5 410.5,36.5C 411.457,47.2398 412.957,57.9065 415,68.5C 415.984,57.8397 416.818,47.1731 417.5,36.5C 421.167,36.5 424.833,36.5 428.5,36.5C 425.971,61.1567 423.471,85.8234 421,110.5C 417.606,111.456 414.106,111.789 410.5,111.5C 406.74,86.515 403.074,61.515 399.5,36.5 Z"/></g>
<g><path style="opacity:0.867" fill="#f47500" d="M 449.5,38.5 C 455.602,38.3767 461.602,39.0434 467.5,40.5C 468.553,43.8151 468.553,47.1485 467.5,50.5C 464.455,50.4921 461.455,50.1587 458.5,49.5C 457.864,56.5602 456.864,63.5602 455.5,70.5C 458.157,71.2592 460.823,71.9258 463.5,72.5C 466.824,81.8428 463.824,84.8428 454.5,81.5C 454.117,88.7914 453.117,95.9581 451.5,103C 455.108,103.026 458.442,103.859 461.5,105.5C 460.593,108.421 460.26,111.421 460.5,114.5C 453.808,114.053 447.141,113.386 440.5,112.5C 443.177,87.751 446.177,63.0843 449.5,38.5 Z"/></g>
<g><path style="opacity:0.866" fill="#f47500" d="M 376.5,39.5 C 377.5,39.5 378.5,39.5 379.5,39.5C 380.244,43.1185 380.577,46.7852 380.5,50.5C 378.473,50.3379 376.473,50.5045 374.5,51C 373.422,51.6739 372.755,52.6739 372.5,54C 373.664,60.1507 374.664,66.3173 375.5,72.5C 378.588,71.9315 381.588,71.9315 384.5,72.5C 388.735,79.6449 386.735,83.1449 378.5,83C 377.978,83.5613 377.645,84.228 377.5,85C 378.988,91.429 379.988,97.929 380.5,104.5C 383.786,103.793 387.119,103.46 390.5,103.5C 390.616,106.86 390.949,110.193 391.5,113.5C 385.826,114.39 380.159,115.39 374.5,116.5C 373.558,116.392 372.725,116.059 372,115.5C 367.931,91.185 364.098,66.8516 360.5,42.5C 366.004,41.731 371.338,40.731 376.5,39.5 Z"/></g>
<g><path style="opacity:0.864" fill="#f47500" d="M 487.5,43.5 C 491.264,44.1199 494.931,45.1199 498.5,46.5C 493.238,67.0489 487.905,87.5489 482.5,108C 485.375,109.302 488.375,110.135 491.5,110.5C 491.322,113.216 490.822,115.883 490,118.5C 489.326,119.578 488.326,120.245 487,120.5C 482.148,119.412 477.315,118.245 472.5,117C 471.572,116.612 470.905,115.945 470.5,115C 476.489,91.217 482.156,67.3837 487.5,43.5 Z"/></g>
<g><path style="opacity:0.884" fill="#f47500" d="M 332.5,49.5 C 337.305,50.1323 340.472,52.799 342,57.5C 348.241,76.2222 354.074,95.0556 359.5,114C 359.481,117.033 358.148,119.367 355.5,121C 350.036,122.909 344.536,124.742 339,126.5C 330.21,103.8 322.377,80.6332 315.5,57C 315.645,56.228 315.978,55.5613 316.5,55C 321.979,53.2302 327.313,51.3969 332.5,49.5 Z M 328.5,62.5 C 333.695,79.586 339.195,96.586 345,113.5C 346.299,112.91 347.132,111.91 347.5,110.5C 342.7,94.7663 337.7,79.0997 332.5,63.5C 331.311,62.5713 329.978,62.238 328.5,62.5 Z"/></g>
<g><path style="opacity:0.877" fill="#f47500" d="M 531.5,56.5 C 543.651,56.4845 548.818,62.4845 547,74.5C 540.333,91.1667 533.667,107.833 527,124.5C 519.959,132.049 512.626,132.382 505,125.5C 502.702,121.782 502.035,117.782 503,113.5C 509.529,97.5793 515.863,81.5793 522,65.5C 523.871,61.0064 527.038,58.0064 531.5,56.5 Z M 533.5,66.5 C 526.508,83.8045 519.508,101.138 512.5,118.5C 514.326,121.081 516.159,121.081 518,118.5C 524.137,102.421 530.471,86.4207 537,70.5C 537.847,67.5096 536.68,66.1762 533.5,66.5 Z"/></g>
<g><path style="opacity:0.87" fill="#f47500" d="M 275.5,72.5 C 276.675,72.281 277.675,72.6143 278.5,73.5C 280.143,76.4451 281.476,79.4451 282.5,82.5C 279.484,82.8406 276.818,84.0073 274.5,86C 277.833,92 281.167,98 284.5,104C 287.404,103.651 290.07,102.485 292.5,100.5C 294.382,103.213 296.049,106.047 297.5,109C 295.199,111.156 292.533,112.822 289.5,114C 292.969,120.448 296.802,126.614 301,132.5C 303.317,131.174 305.651,129.84 308,128.5C 309.833,131.5 311.667,134.5 313.5,137.5C 308.5,140.333 303.5,143.167 298.5,146C 297.216,146.684 296.049,146.517 295,145.5C 283.366,124.397 271.866,103.231 260.5,82C 265.535,78.8199 270.535,75.6532 275.5,72.5 Z"/></g>
<g><path style="opacity:0.89" fill="#f47500" d="M 569.5,72.5 C 575.605,75.0538 581.272,78.3872 586.5,82.5C 588.773,85.3323 588.94,88.3323 587,91.5C 581.333,101.5 575.667,111.5 570,121.5C 567.888,124.284 565.221,126.284 562,127.5C 558.694,126.348 555.694,124.681 553,122.5C 549.248,128.336 545.748,134.336 542.5,140.5C 538.635,140.914 535.302,139.581 532.5,136.5C 544.845,115.139 557.178,93.8059 569.5,72.5 Z M 572.5,86.5 C 567.812,95.8754 563.146,105.209 558.5,114.5C 560.39,114.703 561.89,114.037 563,112.5C 567.253,105.663 571.253,98.6628 575,91.5C 576.077,88.7383 575.244,87.0717 572.5,86.5 Z"/></g>
<g><path style="opacity:0.892" fill="#f47500" d="M 239.5,94.5 C 243.886,95.366 247.386,97.6994 250,101.5C 257.057,110.892 263.724,120.558 270,130.5C 270.706,132.971 270.373,135.305 269,137.5C 266.691,138.975 264.524,140.642 262.5,142.5C 266.833,148.5 271.167,154.5 275.5,160.5C 272.833,162.5 270.167,164.5 267.5,166.5C 252.768,147.384 238.268,128.051 224,108.5C 223.316,107.216 223.483,106.049 224.5,105C 229.403,101.248 234.403,97.7476 239.5,94.5 Z M 238.5,107.5 C 238.389,108.117 238.056,108.617 237.5,109C 243.673,117.334 250.006,125.5 256.5,133.5C 257.287,132.758 257.953,131.925 258.5,131C 253.667,124.167 248.833,117.333 244,110.5C 242.736,108.393 240.903,107.393 238.5,107.5 Z"/></g>
<g><path style="opacity:0.882" fill="#f47500" d="M 607.5,96.5 C 612.959,99.0685 617.959,102.402 622.5,106.5C 623.583,107.365 623.749,108.365 623,109.5C 620.954,111.376 619.121,113.376 617.5,115.5C 614.991,114.079 612.657,112.412 610.5,110.5C 605.814,115.858 601.481,121.525 597.5,127.5C 599.008,129.507 600.842,131.174 603,132.5C 603.667,133.5 603.667,134.5 603,135.5C 600.957,137.208 599.29,139.208 598,141.5C 595.636,139.637 593.136,137.971 590.5,136.5C 586.046,141.909 581.713,147.409 577.5,153C 579.076,155.077 581.076,156.577 583.5,157.5C 584.583,158.365 584.749,159.365 584,160.5C 582.122,162.043 580.622,163.876 579.5,166C 578.5,166.667 577.5,166.667 576.5,166C 572.644,162.643 568.644,159.476 564.5,156.5C 563.417,155.635 563.251,154.635 564,153.5C 578.509,134.47 593.009,115.47 607.5,96.5 Z"/></g>
<g><path style="opacity:0.906" fill="#f47500" d="M 638.5,120.5 C 642.798,124.296 646.964,128.296 651,132.5C 652.457,135.366 652.79,138.366 652,141.5C 645.532,148.97 638.698,156.136 631.5,163C 629.421,164.64 627.088,165.806 624.5,166.5C 618.26,175.245 611.093,183.245 603,190.5C 600.447,188.284 598.28,185.784 596.5,183C 601.902,178.268 606.569,172.934 610.5,167C 610.167,166.5 609.833,166 609.5,165.5C 603.839,170.161 598.506,175.161 593.5,180.5C 590.257,178.452 588.09,175.785 587,172.5C 604.368,155.299 621.535,137.965 638.5,120.5 Z M 637.5,135.5 C 640.076,135.722 640.91,137.055 640,139.5C 634.5,145 629,150.5 623.5,156C 621.597,156.774 619.93,156.44 618.5,155C 625.036,148.631 631.369,142.131 637.5,135.5 Z"/></g>
<g><path style="opacity:0.891" fill="#f47500" d="M 202.5,124.5 C 206.41,124.263 210.077,125.096 213.5,127C 227.029,140.195 240.196,153.695 253,167.5C 257.151,178.536 253.484,185.202 242,187.5C 239.747,187.369 237.581,186.869 235.5,186C 222,172.5 208.5,159 195,145.5C 190.705,136.088 193.205,129.088 202.5,124.5 Z M 203.5,134.5 C 204.552,134.351 205.552,134.517 206.5,135C 219.863,148.029 232.863,161.362 245.5,175C 244.372,177.065 242.706,177.732 240.5,177C 228.363,163.862 215.863,151.029 203,138.5C 202.421,137.072 202.588,135.738 203.5,134.5 Z"/></g>
<g><path style="opacity:0.981" fill="#f47500" d="M 1227.5,131.5 C 1282.5,127.101 1322,149.434 1346,198.5C 1362.68,245.308 1354.18,286.808 1320.5,323C 1282.17,355.22 1239.83,361.554 1193.5,342C 1149.05,316.944 1128.88,278.778 1133,227.5C 1142.9,174.104 1174.4,142.104 1227.5,131.5 Z M 1234.5,179.5 C 1272.62,177.788 1295.79,195.454 1304,232.5C 1307.38,263.583 1295.21,286.083 1267.5,300C 1236.12,310.623 1210.62,302.79 1191,276.5C 1177.89,252.101 1178.55,228.101 1193,204.5C 1203.74,190.886 1217.57,182.553 1234.5,179.5 Z"/></g>
<g><path style="opacity:0.981" fill="#f47500" d="M 834.5,135.5 C 867.502,135.333 900.502,135.5 933.5,136C 979.781,143.613 1008.95,170.113 1021,215.5C 1029.7,257.719 1018.87,293.885 988.5,324C 972.535,337.218 954.201,345.218 933.5,348C 900.502,348.5 867.502,348.667 834.5,348.5C 834.5,277.5 834.5,206.5 834.5,135.5 Z M 884.5,183.5 C 900.17,183.333 915.837,183.5 931.5,184C 952.504,188.004 966.338,200.17 973,220.5C 979.269,242.772 975.935,263.439 963,282.5C 954.491,291.839 943.991,297.673 931.5,300C 915.864,301.319 900.197,301.819 884.5,301.5C 884.5,262.167 884.5,222.833 884.5,183.5 Z"/></g>
<g><path style="opacity:0.984" fill="#f47500" d="M 1471.5,135.5 C 1502.17,135.333 1532.84,135.5 1563.5,136C 1603.45,143.783 1624.79,167.95 1627.5,208.5C 1625,248.169 1604.33,272.336 1565.5,281C 1550.84,281.5 1536.17,281.667 1521.5,281.5C 1521.5,303.833 1521.5,326.167 1521.5,348.5C 1504.83,348.5 1488.17,348.5 1471.5,348.5C 1471.5,277.5 1471.5,206.5 1471.5,135.5 Z M 1521.5,181.5 C 1534.55,181.099 1547.55,181.599 1560.5,183C 1577.36,192.245 1581.86,205.745 1574,223.5C 1569.99,229.425 1564.49,233.258 1557.5,235C 1545.5,235.5 1533.5,235.667 1521.5,235.5C 1521.5,217.5 1521.5,199.5 1521.5,181.5 Z"/></g>
<g><path style="opacity:0.983" fill="#f47500" d="M 1741.5,135.5 C 1786.17,135.5 1830.83,135.5 1875.5,135.5C 1875.5,151.5 1875.5,167.5 1875.5,183.5C 1847.5,183.5 1819.5,183.5 1791.5,183.5C 1791.5,194.833 1791.5,206.167 1791.5,217.5C 1816.83,217.5 1842.17,217.5 1867.5,217.5C 1867.5,233.167 1867.5,248.833 1867.5,264.5C 1842.17,264.5 1816.83,264.5 1791.5,264.5C 1791.5,276.833 1791.5,289.167 1791.5,301.5C 1819.83,301.5 1848.17,301.5 1876.5,301.5C 1876.5,317.167 1876.5,332.833 1876.5,348.5C 1831.5,348.5 1786.5,348.5 1741.5,348.5C 1741.5,277.5 1741.5,206.5 1741.5,135.5 Z"/></g>
<g><path style="opacity:0.732" fill="#f47500" d="M 411.5,136.5 C 496.259,135.456 562.093,169.789 609,239.5C 622.302,260.902 631.802,283.902 637.5,308.5C 683.163,309.333 728.83,309.833 774.5,310C 775.833,311 775.833,312 774.5,313C 729.168,313.5 683.835,313.667 638.5,313.5C 643.303,338.991 643.636,364.491 639.5,390C 684.5,390.333 729.5,390.667 774.5,391C 775.451,391.718 775.617,392.551 775,393.5C 729.904,394.331 684.738,394.831 639.5,395C 621.105,479.728 571.105,536.728 489.5,566C 401.969,589.994 326.136,570.161 262,506.5C 232.619,474.736 214.119,437.403 206.5,394.5C 164.833,394.5 123.167,394.5 81.5,394.5C 81.5,393.167 81.5,391.833 81.5,390.5C 122.833,390.5 164.167,390.5 205.5,390.5C 203.568,372.553 203.068,354.553 204,336.5C 204.563,329.055 205.73,321.722 207.5,314.5C 166.172,313.5 124.839,313.167 83.5,313.5C 83.5,312.167 83.5,310.833 83.5,309.5C 125.167,309.5 166.833,309.5 208.5,309.5C 226.604,234.893 270.937,182.393 341.5,152C 364.218,143.426 387.551,138.259 411.5,136.5 Z M 407.5,141.5 C 485.306,138.83 548.139,167.83 596,228.5C 638.376,289.77 648.376,356.104 626,427.5C 598.175,500.008 546.675,546.175 471.5,566C 384.903,582.359 312.737,557.526 255,491.5C 210.008,431.866 197.341,365.866 217,293.5C 244.757,213.407 299.924,163.907 382.5,145C 390.95,143.588 399.283,142.421 407.5,141.5 Z"/></g>
<g><path style="opacity:0.893" fill="#f47500" d="M 173.5,157.5 C 177.331,157.249 180.664,158.416 183.5,161C 199.454,172.564 214.954,184.73 230,197.5C 231.301,199.365 231.635,201.365 231,203.5C 227.487,209.191 223.487,214.524 219,219.5C 199.308,204.308 179.475,189.308 159.5,174.5C 163.495,168.182 168.161,162.516 173.5,157.5 Z M 175.5,170.5 C 178.516,170.841 181.182,172.007 183.5,174C 194.321,182.576 205.321,190.91 216.5,199C 219.359,201.72 219.026,203.386 215.5,204C 201.833,193.5 188.167,183 174.5,172.5C 174.863,171.817 175.196,171.15 175.5,170.5 Z"/></g>
<g><path style="opacity:0.879" fill="#f47500" d="M 663.5,158.5 C 676.106,157.273 681.939,162.94 681,175.5C 676.022,182.093 669.856,187.426 662.5,191.5C 660.327,189.158 658.327,186.658 656.5,184C 661.026,179.811 665.859,175.977 671,172.5C 671.49,171.207 671.657,169.873 671.5,168.5C 669.345,168.372 667.345,168.872 665.5,170C 661.603,173.531 657.436,176.697 653,179.5C 652.333,180.833 652.333,182.167 653,183.5C 657.422,188.397 657.422,193.397 653,198.5C 646.45,204.051 639.617,209.217 632.5,214C 625.676,215.945 620.176,214.112 616,208.5C 613.484,202.467 614.318,196.967 618.5,192C 623.362,188.305 628.362,184.805 633.5,181.5C 635.885,183.884 637.885,186.55 639.5,189.5C 634.975,193.192 630.308,196.692 625.5,200C 624.62,201.356 624.286,202.856 624.5,204.5C 625.873,204.657 627.207,204.49 628.5,204C 633.667,200.167 638.833,196.333 644,192.5C 642.5,189.283 641.334,185.783 640.5,182C 640.934,179.366 641.767,176.866 643,174.5C 649.733,168.921 656.566,163.588 663.5,158.5 Z"/></g>
<g><path style="opacity:0.97" fill="#f47500" d="M 427.5,232.5 C 429.624,233.031 431.124,234.365 432,236.5C 441.047,252.099 450.214,267.599 459.5,283C 430.047,332.068 400.714,381.234 371.5,430.5C 348.137,431.937 324.804,431.77 301.5,430C 262.684,420.859 241.351,396.525 237.5,357C 241.466,317.028 263.132,292.695 302.5,284C 330.145,282.238 357.811,282.071 385.5,283.5C 375.041,300.25 364.708,317.083 354.5,334C 337.789,334.075 321.122,334.741 304.5,336C 288.278,344.126 284.778,355.959 294,371.5C 297.677,375.423 302.177,377.923 307.5,379C 318.5,379.667 329.5,379.667 340.5,379C 369.901,330.359 398.901,281.526 427.5,232.5 Z"/></g>
<g><path style="opacity:0.97" fill="#f47500" d="M 469.5,282.5 C 492.865,282.086 516.198,282.586 539.5,284C 571.541,291.043 592.374,310.209 602,341.5C 607.207,382.907 590.374,411.407 551.5,427C 545.926,428.715 540.26,430.048 534.5,431C 482.596,431.169 430.763,431.669 379,432.5C 405.993,384.626 434.16,337.293 463.5,290.5C 474.217,307.434 484.55,324.601 494.5,342C 487.581,354.584 480.247,366.918 472.5,379C 492.833,379.667 513.167,379.667 533.5,379C 552.011,372.806 556.845,360.972 548,343.5C 543.607,338.586 538.107,335.753 531.5,335C 520.833,334.667 510.167,334.333 499.5,334C 488.827,317.145 478.827,299.978 469.5,282.5 Z"/></g>
<g><path style="opacity:0.877" fill="#f47500" d="M 129.5,327.5 C 139.963,327.631 144.963,332.965 144.5,343.5C 141.167,343.5 137.833,343.5 134.5,343.5C 134.849,340.537 133.849,338.204 131.5,336.5C 129.046,338.876 128.879,341.543 131,344.5C 134.667,347.833 138.333,351.167 142,354.5C 146.161,360.623 146.495,366.957 143,373.5C 138.139,377.284 132.639,378.451 126.5,377C 120.155,373.832 117.488,368.666 118.5,361.5C 121.833,361.167 125.167,360.833 128.5,360.5C 127.339,365.175 129.006,367.841 133.5,368.5C 133.663,366.143 133.497,363.81 133,361.5C 127.966,356.801 123.3,351.801 119,346.5C 116.323,336.505 119.823,330.172 129.5,327.5 Z"/></g>
<g><path style="opacity:0.86" fill="#f47500" d="M 666.5,327.5 C 679.694,327.204 684.86,333.537 682,346.5C 677.999,353.84 673.499,360.84 668.5,367.5C 672.38,368.795 676.214,368.795 680,367.5C 681.405,370.619 681.905,373.952 681.5,377.5C 672.833,377.5 664.167,377.5 655.5,377.5C 655.335,374.482 655.502,371.482 656,368.5C 660.419,361.328 665.085,354.328 670,347.5C 671.316,344.312 671.816,340.978 671.5,337.5C 669.856,337.286 668.356,337.62 667,338.5C 666.503,341.146 666.336,343.813 666.5,346.5C 662.833,346.5 659.167,346.5 655.5,346.5C 653.889,336.84 657.555,330.506 666.5,327.5 Z"/></g>
<g><path style="opacity:0.881" fill="#f47500" d="M 697.5,327.5 C 704.942,326.798 710.108,329.798 713,336.5C 713.667,347.5 713.667,358.5 713,369.5C 711.833,373.333 709.333,375.833 705.5,377C 696.157,379.747 689.991,376.58 687,367.5C 686.333,357.833 686.333,348.167 687,338.5C 688.349,332.653 691.849,328.987 697.5,327.5 Z M 699.5,337.5 C 700.496,337.414 701.329,337.748 702,338.5C 702.5,348.161 702.666,357.828 702.5,367.5C 701.167,367.5 699.833,367.5 698.5,367.5C 698.193,357.418 698.526,347.418 699.5,337.5 Z"/></g>
<g><path style="opacity:0.858" fill="#f47500" d="M 728.5,327.5 C 742.497,327.33 747.664,333.997 744,347.5C 739.624,354.419 735.124,361.252 730.5,368C 734.423,368.793 738.256,368.626 742,367.5C 742.75,368.126 743.584,368.626 744.5,369C 743.556,371.719 743.223,374.552 743.5,377.5C 734.833,377.5 726.167,377.5 717.5,377.5C 717.335,374.482 717.502,371.482 718,368.5C 724.652,360.03 730.152,350.864 734.5,341C 733.347,337.323 731.514,336.823 729,339.5C 728.503,341.81 728.337,344.143 728.5,346.5C 724.833,346.5 721.167,346.5 717.5,346.5C 716.328,337.158 719.994,330.825 728.5,327.5 Z"/></g>
<g><path style="opacity:0.858" fill="#f47500" d="M 759.5,327.5 C 774.642,328.694 779.142,336.361 773,350.5C 769.201,356.597 765.035,362.431 760.5,368C 765.155,368.499 769.821,368.666 774.5,368.5C 774.5,371.5 774.5,374.5 774.5,377.5C 765.833,377.5 757.167,377.5 748.5,377.5C 748.335,374.482 748.502,371.482 749,368.5C 753,362.5 757,356.5 761,350.5C 763.805,346.909 764.805,342.909 764,338.5C 760.938,336.87 759.271,337.87 759,341.5C 758.28,343.112 758.446,344.612 759.5,346C 755.514,346.499 751.514,346.666 747.5,346.5C 746.792,336.866 750.792,330.533 759.5,327.5 Z"/></g>
<g><path style="opacity:0.846" fill="#f47500" d="M 92.5,328.5 C 100.167,328.5 107.833,328.5 115.5,328.5C 115.5,331.167 115.5,333.833 115.5,336.5C 111.833,336.5 108.167,336.5 104.5,336.5C 104.5,340.167 104.5,343.833 104.5,347.5C 107.167,347.5 109.833,347.5 112.5,347.5C 112.5,350.5 112.5,353.5 112.5,356.5C 109.833,356.5 107.167,356.5 104.5,356.5C 104.5,360.5 104.5,364.5 104.5,368.5C 108.167,368.5 111.833,368.5 115.5,368.5C 115.5,371.5 115.5,374.5 115.5,377.5C 107.833,377.5 100.167,377.5 92.5,377.5C 92.5,361.167 92.5,344.833 92.5,328.5 Z"/></g>
<g><path style="opacity:0.857" fill="#f47500" d="M 146.5,328.5 C 155.167,328.5 163.833,328.5 172.5,328.5C 172.5,331.5 172.5,334.5 172.5,337.5C 170.167,337.5 167.833,337.5 165.5,337.5C 165.5,350.833 165.5,364.167 165.5,377.5C 161.5,377.5 157.5,377.5 153.5,377.5C 153.177,364.254 153.511,351.087 154.5,338C 151.854,337.503 149.187,337.336 146.5,337.5C 146.5,334.5 146.5,331.5 146.5,328.5 Z"/></g>
<g><path style="opacity:0.757" fill="#f47500" d="M 175.5,366.5 C 178.833,366.5 182.167,366.5 185.5,366.5C 185.5,370.167 185.5,373.833 185.5,377.5C 182.167,377.5 178.833,377.5 175.5,377.5C 175.5,373.833 175.5,370.167 175.5,366.5 Z"/></g>
<g><path style="opacity:0.948" fill="#f47500" d="M 636.5,433.5 C 637.496,433.414 638.329,433.748 639,434.5C 652.833,456.333 666.667,478.167 680.5,500C 707.469,494.383 734.302,487.883 761,480.5C 761.5,480.833 762,481.167 762.5,481.5C 733.586,564.568 681.92,629.402 607.5,676C 508.973,732.352 405.973,742.019 298.5,705C 215.796,672.626 152.629,617.793 109,540.5C 98.6396,521.241 90.1396,501.241 83.5,480.5C 110.902,486.85 138.235,493.517 165.5,500.5C 179.82,479.204 194.154,457.87 208.5,436.5C 234.559,511.058 285.226,560.558 360.5,585C 451.939,607.401 529.439,584.234 593,515.5C 613.514,491.478 628.014,464.145 636.5,433.5 Z M 174.5,523.5 C 184.648,522.473 188.481,526.806 186,536.5C 178.339,542.808 172.839,541.308 169.5,532C 170.123,528.546 171.789,525.713 174.5,523.5 Z M 663.5,525.5 C 673.022,526.533 675.855,531.533 672,540.5C 667.018,544.588 662.351,544.254 658,539.5C 655.143,532.892 656.977,528.225 663.5,525.5 Z M 621.5,535.5 C 637.911,549.738 653.911,564.572 669.5,580C 667.796,582.757 665.462,584.09 662.5,584C 633.604,563.896 632.437,565.396 659,588.5C 658.628,590.92 657.295,592.92 655,594.5C 639.365,580.533 624.032,566.2 609,551.5C 609.401,548.899 610.901,546.899 613.5,545.5C 622.086,551.043 630.586,556.709 639,562.5C 632.728,554.895 625.562,547.728 617.5,541C 619.464,539.549 620.797,537.716 621.5,535.5 Z M 222.5,538.5 C 224.479,539.812 226.145,541.479 227.5,543.5C 221.089,551.153 215.422,558.82 210.5,566.5C 218.144,560.69 225.644,554.69 233,548.5C 234.543,550.378 236.376,551.878 238.5,553C 233.383,560.452 227.883,567.618 222,574.5C 221.333,575.5 221.333,576.5 222,577.5C 229.046,570.423 236.546,564.256 244.5,559C 245.833,560.333 247.167,561.667 248.5,563C 232.333,577.167 216.167,591.333 200,605.5C 198.075,604.12 196.241,602.62 194.5,601C 200.879,592.41 207.379,583.91 214,575.5C 214.688,574.668 214.521,574.002 213.5,573.5C 204.854,580.311 196.354,587.311 188,594.5C 186.167,592.667 184.333,590.833 182.5,589C 196.047,572.292 209.381,555.458 222.5,538.5 Z M 603.5,555.5 C 611.077,558.231 617.077,563.064 621.5,570C 619.983,571.685 618.316,573.185 616.5,574.5C 612.792,569.791 608.458,565.791 603.5,562.5C 600.754,563.096 599.92,564.763 601,567.5C 611.833,579.667 622.667,591.833 633.5,604C 637.667,605.167 639.167,603.667 638,599.5C 633.833,594.667 629.667,589.833 625.5,585C 624.167,585 622.833,585 621.5,585C 620.624,583.414 619.624,581.914 618.5,580.5C 619.982,578.517 621.649,576.684 623.5,575C 624.635,574.251 625.635,574.417 626.5,575.5C 632.147,582.315 637.98,588.981 644,595.5C 646.5,607.667 641.667,612.5 629.5,610C 617.982,597.783 606.815,585.283 596,572.5C 592.043,564.004 594.543,558.337 603.5,555.5 Z M 250.5,564.5 C 254.652,567.417 258.652,570.584 262.5,574C 261.333,575.833 260.167,577.667 259,579.5C 256.876,578.378 255.043,576.878 253.5,575C 252.551,574.383 251.718,574.549 251,575.5C 246.973,580.694 243.14,586.027 239.5,591.5C 241.624,593.121 243.624,594.954 245.5,597C 243.641,598.558 242.141,600.391 241,602.5C 239.261,600.259 237.094,598.592 234.5,597.5C 229.924,602.987 225.591,608.653 221.5,614.5C 223.54,616.177 225.54,617.844 227.5,619.5C 226.396,621.389 225.063,623.055 223.5,624.5C 219.5,621.5 215.5,618.5 211.5,615.5C 224.907,598.766 237.907,581.766 250.5,564.5 Z M 586.5,568.5 C 600.487,584.84 613.821,601.84 626.5,619.5C 625.019,620.48 623.685,621.647 622.5,623C 621.551,623.617 620.718,623.451 620,622.5C 607.549,605.714 594.715,589.214 581.5,573C 583.24,571.483 584.906,569.983 586.5,568.5 Z M 264.5,576.5 C 269.82,578.584 274.653,581.584 279,585.5C 279.667,587.167 279.667,588.833 279,590.5C 275.667,595.833 272.333,601.167 269,606.5C 267.172,608.081 265.172,609.415 263,610.5C 262.333,613.167 261.667,615.833 261,618.5C 257.667,623.833 254.333,629.167 251,634.5C 249.499,636.584 247.499,637.917 245,638.5C 239.764,636.133 234.93,633.133 230.5,629.5C 241.86,611.816 253.193,594.149 264.5,576.5 Z M 571.5,578.5 C 574.978,578.184 578.312,578.684 581.5,580C 585.408,584.485 589.074,589.152 592.5,594C 590.679,595.743 588.679,597.243 586.5,598.5C 583.289,593.911 579.955,589.411 576.5,585C 573,584.5 571.5,586 572,589.5C 574.667,593.5 577.333,597.5 580,601.5C 581.062,602.899 582.395,603.899 584,604.5C 587.918,601.473 592.085,600.973 596.5,603C 603.156,609.821 608.156,617.654 611.5,626.5C 609.245,636.294 603.578,639.128 594.5,635C 591.167,630.333 587.833,625.667 584.5,621C 586.241,619.38 588.075,617.88 590,616.5C 593.247,620.659 596.247,624.992 599,629.5C 602.111,631.272 603.944,630.439 604.5,627C 601.501,620.497 597.501,614.664 592.5,609.5C 587.591,613.21 582.591,613.377 577.5,610C 573.294,604.423 569.46,598.59 566,592.5C 564.268,586.314 566.101,581.647 571.5,578.5 Z M 557.5,588.5 C 559.619,589.791 561.285,591.625 562.5,594C 559.827,595.001 557.493,596.501 555.5,598.5C 558.679,604.87 562.346,610.87 566.5,616.5C 568.5,615.5 570.5,614.5 572.5,613.5C 574.188,615.029 575.521,616.863 576.5,619C 574.167,620.5 571.833,622 569.5,623.5C 572.679,629.87 576.346,635.87 580.5,641.5C 582.5,640.5 584.5,639.5 586.5,638.5C 588.188,640.029 589.521,641.863 590.5,644C 586.167,646.5 581.833,649 577.5,651.5C 566.96,632.918 556.293,614.418 545.5,596C 549.396,593.225 553.396,590.725 557.5,588.5 Z M 297.5,595.5 C 299.852,596.566 302.186,597.733 304.5,599C 297.141,619.408 289.975,639.908 283,660.5C 281.068,658.962 278.901,657.795 276.5,657C 277.399,654.808 278.399,652.642 279.5,650.5C 277.417,649.041 275.25,647.708 273,646.5C 271.686,648.812 270.019,650.812 268,652.5C 265.942,651.888 264.109,650.888 262.5,649.5C 274.219,631.465 285.886,613.465 297.5,595.5 Z M 539.5,598.5 C 542.669,598.839 544.836,600.505 546,603.5C 553,618.833 560,634.167 567,649.5C 568.123,652.956 567.29,655.79 564.5,658C 560.492,659.729 556.492,661.562 552.5,663.5C 542.8,644.598 533.466,625.431 524.5,606C 529.35,603.007 534.35,600.507 539.5,598.5 Z M 314.5,603.5 C 316.297,604.73 318.297,605.396 320.5,605.5C 319.304,615.845 317.304,626.012 314.5,636C 314.833,636.167 315.167,636.333 315.5,636.5C 319.671,627.345 323.671,618.011 327.5,608.5C 329.711,609.123 331.711,610.123 333.5,611.5C 325.569,631.461 317.735,651.461 310,671.5C 307.815,670.33 305.649,669.164 303.5,668C 305.68,658.737 307.347,649.57 308.5,640.5C 307.201,641.09 306.368,642.09 306,643.5C 303.2,650.759 300.7,658.093 298.5,665.5C 296.139,665.326 293.806,664.993 291.5,664.5C 298.575,643.94 306.242,623.607 314.5,603.5 Z M 507.5,610.5 C 511.557,611.051 514.724,613.051 517,616.5C 518.445,621.506 520.279,626.339 522.5,631C 520.253,632.309 517.92,632.975 515.5,633C 513.672,628.183 511.838,623.35 510,618.5C 507.131,615.991 504.964,616.658 503.5,620.5C 508.963,635.388 514.129,650.388 519,665.5C 521.402,669.452 523.902,669.452 526.5,665.5C 524.636,660.273 522.636,655.106 520.5,650C 522.888,649.697 525.055,648.863 527,647.5C 531.525,654.703 532.859,662.37 531,670.5C 524.605,677.234 518.605,676.901 513,669.5C 507.803,654.908 502.803,640.241 498,625.5C 496.219,617.151 499.386,612.151 507.5,610.5 Z M 336.5,612.5 C 341.971,613.49 347.304,614.99 352.5,617C 353.122,618.569 353.456,620.236 353.5,622C 349.486,639.379 344.652,656.546 339,673.5C 337.982,676.683 335.815,678.016 332.5,677.5C 327.662,676.776 322.995,675.443 318.5,673.5C 324.351,653.092 330.351,632.759 336.5,612.5 Z M 489.5,616.5 C 490.75,616.577 491.583,617.244 492,618.5C 496.86,638.247 502.027,657.914 507.5,677.5C 505.887,679.088 503.887,680.088 501.5,680.5C 495.601,660.07 489.934,639.57 484.5,619C 486.175,618.015 487.842,617.181 489.5,616.5 Z M 477.5,619.5 C 478.833,619.5 480.167,619.5 481.5,619.5C 484.927,640.469 488.927,661.303 493.5,682C 491.863,682.601 490.197,683.101 488.5,683.5C 487.353,683.182 486.519,682.516 486,681.5C 484.304,672.855 482.804,664.188 481.5,655.5C 479.194,655.993 476.861,656.326 474.5,656.5C 475.78,666.235 477.447,675.902 479.5,685.5C 477.409,685.318 475.409,685.652 473.5,686.5C 468.524,665.311 464.19,643.978 460.5,622.5C 462.792,622.756 464.959,622.423 467,621.5C 468.942,630.823 470.776,640.157 472.5,649.5C 474.833,649.5 477.167,649.5 479.5,649.5C 477.961,639.808 476.295,630.141 474.5,620.5C 475.791,620.737 476.791,620.404 477.5,619.5 Z M 371.5,620.5 C 376.948,619.975 381.115,621.975 384,626.5C 384.614,633.251 384.114,639.917 382.5,646.5C 379.62,646.967 377.287,646.134 375.5,644C 376.34,639.458 377.34,634.958 378.5,630.5C 377.74,626.809 375.74,625.809 372.5,627.5C 368.933,643.506 365.933,659.673 363.5,676C 363.754,679.871 365.587,681.037 369,679.5C 370.915,672.264 372.415,664.931 373.5,657.5C 372.448,657.649 371.448,657.483 370.5,657C 371.423,654.959 371.756,652.792 371.5,650.5C 374.807,651.051 378.14,651.384 381.5,651.5C 380.206,661.597 378.373,671.597 376,681.5C 371.261,687.082 365.761,687.915 359.5,684C 358.54,682.581 357.707,681.081 357,679.5C 358.591,660.951 361.591,642.618 366,624.5C 367.812,623.023 369.645,621.69 371.5,620.5 Z M 389.5,624.5 C 394.913,624.229 400.246,624.729 405.5,626C 406.849,626.772 407.682,627.939 408,629.5C 407.938,638.851 407.272,648.185 406,657.5C 405.03,659.274 404.196,661.107 403.5,663C 404.632,671.815 404.632,680.649 403.5,689.5C 401.167,689.5 398.833,689.5 396.5,689.5C 397.612,682.83 397.612,676.163 396.5,669.5C 395.264,668.754 393.93,668.421 392.5,668.5C 391.946,675.153 391.612,681.82 391.5,688.5C 389.167,688.5 386.833,688.5 384.5,688.5C 385.789,667.126 387.455,645.792 389.5,624.5 Z M 442.5,624.5 C 446.846,624.334 451.179,624.501 455.5,625C 457.004,626.491 457.837,628.324 458,630.5C 459.445,641.499 460.445,652.499 461,663.5C 460.691,664.766 460.191,665.933 459.5,667C 456.274,668.199 452.941,668.699 449.5,668.5C 449.804,674.711 450.471,680.877 451.5,687C 449.713,689.134 447.38,689.967 444.5,689.5C 442.459,668.257 440.126,647.091 437.5,626C 439.382,625.802 441.048,625.302 442.5,624.5 Z M 419.5,625.5 C 422.167,625.5 424.833,625.5 427.5,625.5C 429.92,647.196 432.587,668.862 435.5,690.5C 433.167,690.5 430.833,690.5 428.5,690.5C 430.167,683.5 427.5,680.833 420.5,682.5C 419.908,685.127 419.575,687.794 419.5,690.5C 417.167,690.5 414.833,690.5 412.5,690.5C 415.079,668.867 417.412,647.201 419.5,625.5 Z"/></g>
<g><path style="opacity:0.954" fill="#f47500" d="M 1392.5,433.5 C 1417.02,431.997 1433.52,442.664 1442,465.5C 1447.05,493.917 1435.88,512.417 1408.5,521C 1389.23,524.025 1373.73,517.859 1362,502.5C 1354.53,488.314 1353.53,473.647 1359,458.5C 1366.11,444.698 1377.28,436.364 1392.5,433.5 Z M 1393.5,453.5 C 1410.93,452.271 1420.93,460.271 1423.5,477.5C 1422.3,492.368 1414.3,500.701 1399.5,502.5C 1381.6,499.772 1373.77,489.439 1376,471.5C 1378.68,462.318 1384.52,456.318 1393.5,453.5 Z"/></g>
<g><path style="opacity:0.949" fill="#f47500" d="M 1826.5,433.5 C 1843.16,431.661 1855.49,437.994 1863.5,452.5C 1858.44,456.454 1852.94,459.787 1847,462.5C 1845.15,460.977 1843.65,459.144 1842.5,457C 1838.36,453.758 1833.69,452.758 1828.5,454C 1822.8,456.404 1822.14,459.738 1826.5,464C 1837.17,467.581 1847.51,471.915 1857.5,477C 1865.02,483.93 1867.52,492.43 1865,502.5C 1861.79,513.198 1854.62,519.365 1843.5,521C 1829.94,523.733 1817.77,520.9 1807,512.5C 1803.81,509.455 1801.64,505.788 1800.5,501.5C 1800.61,500.558 1800.94,499.725 1801.5,499C 1806.5,496.167 1811.5,493.333 1816.5,490.5C 1822.12,500.321 1830.45,503.821 1841.5,501C 1846.76,497.521 1846.76,493.854 1841.5,490C 1831,487.168 1821,483.168 1811.5,478C 1802.24,467.794 1801.07,456.628 1808,444.5C 1813.12,438.866 1819.28,435.2 1826.5,433.5 Z"/></g>
<g><path style="opacity:0.959" fill="#f47500" d="M 834.5,435.5 C 848.837,435.333 863.171,435.5 877.5,436C 901.773,444.014 912.273,460.848 909,486.5C 904.504,506.002 892.338,517.168 872.5,520C 859.838,520.5 847.171,520.667 834.5,520.5C 834.5,492.167 834.5,463.833 834.5,435.5 Z M 854.5,454.5 C 860.509,454.334 866.509,454.501 872.5,455C 883.816,458.158 889.816,465.658 890.5,477.5C 889.988,489.071 884.321,496.571 873.5,500C 867.175,500.5 860.842,500.666 854.5,500.5C 854.5,485.167 854.5,469.833 854.5,454.5 Z"/></g>
<g><path style="opacity:0.965" fill="#f47500" d="M 955.5,435.5 C 973.167,435.5 990.833,435.5 1008.5,435.5C 1008.5,441.833 1008.5,448.167 1008.5,454.5C 997.5,454.5 986.5,454.5 975.5,454.5C 975.5,458.833 975.5,463.167 975.5,467.5C 985.5,467.5 995.5,467.5 1005.5,467.5C 1005.5,473.833 1005.5,480.167 1005.5,486.5C 995.5,486.5 985.5,486.5 975.5,486.5C 975.5,491.167 975.5,495.833 975.5,500.5C 986.833,500.5 998.167,500.5 1009.5,500.5C 1009.5,507.167 1009.5,513.833 1009.5,520.5C 991.5,520.5 973.5,520.5 955.5,520.5C 955.5,492.167 955.5,463.833 955.5,435.5 Z"/></g>
<g><path style="opacity:0.953" fill="#f47500" d="M 1047.5,436.5 C 1054.98,435.508 1062.65,435.175 1070.5,435.5C 1076.02,455.57 1081.86,475.57 1088,495.5C 1094.14,475.57 1099.98,455.57 1105.5,435.5C 1113.17,435.334 1120.84,435.5 1128.5,436C 1119.14,463.743 1109.97,491.577 1101,519.5C 1092.33,520.833 1083.67,520.833 1075,519.5C 1066.1,491.626 1056.93,463.959 1047.5,436.5 Z"/></g>
<g><path style="opacity:0.959" fill="#f47500" d="M 1170.5,435.5 C 1188.17,435.5 1205.83,435.5 1223.5,435.5C 1223.5,441.833 1223.5,448.167 1223.5,454.5C 1212.5,454.5 1201.5,454.5 1190.5,454.5C 1190.5,458.833 1190.5,463.167 1190.5,467.5C 1200.5,467.5 1210.5,467.5 1220.5,467.5C 1220.5,473.833 1220.5,480.167 1220.5,486.5C 1210.5,486.5 1200.5,486.5 1190.5,486.5C 1190.5,491.167 1190.5,495.833 1190.5,500.5C 1201.83,500.5 1213.17,500.5 1224.5,500.5C 1224.5,507.167 1224.5,513.833 1224.5,520.5C 1206.5,520.5 1188.5,520.5 1170.5,520.5C 1170.5,492.167 1170.5,463.833 1170.5,435.5 Z"/></g>
<g><path style="opacity:0.925" fill="#f47500" d="M 1269.5,435.5 C 1276.5,435.5 1283.5,435.5 1290.5,435.5C 1290.5,457.167 1290.5,478.833 1290.5,500.5C 1300.5,500.5 1310.5,500.5 1320.5,500.5C 1320.5,507.167 1320.5,513.833 1320.5,520.5C 1303.5,520.5 1286.5,520.5 1269.5,520.5C 1269.5,492.167 1269.5,463.833 1269.5,435.5 Z"/></g>
<g><path style="opacity:0.96" fill="#f47500" d="M 1489.5,435.5 C 1502.84,435.333 1516.17,435.5 1529.5,436C 1547.17,442.506 1554,455.006 1550,473.5C 1546.65,484.183 1539.48,490.683 1528.5,493C 1522.18,493.5 1515.84,493.666 1509.5,493.5C 1509.5,502.5 1509.5,511.5 1509.5,520.5C 1502.83,520.5 1496.17,520.5 1489.5,520.5C 1489.5,492.167 1489.5,463.833 1489.5,435.5 Z M 1509.5,454.5 C 1514.84,454.334 1520.18,454.501 1525.5,455C 1533.5,461.333 1533.5,467.667 1525.5,474C 1520.18,474.499 1514.84,474.666 1509.5,474.5C 1509.5,467.833 1509.5,461.167 1509.5,454.5 Z"/></g>
<g><path style="opacity:0.964" fill="#f47500" d="M 1596.5,435.5 C 1614.17,435.5 1631.83,435.5 1649.5,435.5C 1649.5,441.833 1649.5,448.167 1649.5,454.5C 1638.5,454.5 1627.5,454.5 1616.5,454.5C 1616.5,458.833 1616.5,463.167 1616.5,467.5C 1626.5,467.5 1636.5,467.5 1646.5,467.5C 1646.5,473.833 1646.5,480.167 1646.5,486.5C 1636.5,486.5 1626.5,486.5 1616.5,486.5C 1616.5,491.167 1616.5,495.833 1616.5,500.5C 1627.5,500.5 1638.5,500.5 1649.5,500.5C 1649.5,507.167 1649.5,513.833 1649.5,520.5C 1631.83,520.5 1614.17,520.5 1596.5,520.5C 1596.5,492.167 1596.5,463.833 1596.5,435.5 Z"/></g>
<g><path style="opacity:0.955" fill="#f47500" d="M 1695.5,435.5 C 1709.5,435.333 1723.5,435.5 1737.5,436C 1755.63,443.434 1762.13,456.601 1757,475.5C 1753.7,480.962 1749.54,485.629 1744.5,489.5C 1750.17,499.5 1755.83,509.5 1761.5,519.5C 1754.17,520.833 1746.83,520.833 1739.5,519.5C 1734.5,510.833 1729.5,502.167 1724.5,493.5C 1721.57,492.516 1718.57,492.183 1715.5,492.5C 1715.5,501.833 1715.5,511.167 1715.5,520.5C 1708.83,520.5 1702.17,520.5 1695.5,520.5C 1695.5,492.167 1695.5,463.833 1695.5,435.5 Z M 1715.5,454.5 C 1721.18,454.334 1726.84,454.501 1732.5,455C 1738.54,458.748 1740.04,463.915 1737,470.5C 1735.79,472.049 1734.29,473.215 1732.5,474C 1726.84,474.499 1721.18,474.666 1715.5,474.5C 1715.5,467.833 1715.5,461.167 1715.5,454.5 Z"/></g>
<g><path style="opacity:0.892" fill="#f47500" d="M 415.5,466.5 C 419.1,473.283 421.767,480.616 423.5,488.5C 431.528,488.169 439.528,488.502 447.5,489.5C 441.167,494.167 434.833,498.833 428.5,503.5C 430.928,510.285 433.262,517.118 435.5,524C 435.167,524.5 434.833,525 434.5,525.5C 428.5,521.167 422.5,516.833 416.5,512.5C 410.326,516.42 404.326,520.587 398.5,525C 397.668,525.688 397.002,525.521 396.5,524.5C 398.932,517.704 401.265,510.871 403.5,504C 397.779,498.953 391.779,494.12 385.5,489.5C 393.167,488.833 400.833,488.167 408.5,487.5C 411.039,480.55 413.372,473.55 415.5,466.5 Z"/></g>
<g><path style="opacity:0.845" fill="#f47500" d="M 351.5,477.5 C 352.497,477.47 353.164,477.97 353.5,479C 354.735,482.871 356.068,486.704 357.5,490.5C 362.05,491.8 366.55,491.8 371,490.5C 371.749,491.635 371.583,492.635 370.5,493.5C 367.025,495.808 363.692,498.308 360.5,501C 362.589,505.57 363.922,510.07 364.5,514.5C 360.5,511.833 356.5,509.167 352.5,506.5C 349.025,508.808 345.692,511.308 342.5,514C 341.5,514.667 340.5,514.667 339.5,514C 341.456,509.97 343.122,505.803 344.5,501.5C 340.833,498.167 337.167,494.833 333.5,491.5C 337.995,491.52 342.662,491.354 347.5,491C 349.53,486.714 350.863,482.214 351.5,477.5 Z"/></g>
<g><path style="opacity:0.845" fill="#f47500" d="M 479.5,477.5 C 481.901,481.689 483.568,486.356 484.5,491.5C 489.681,491.369 494.681,491.369 499.5,491.5C 495.38,494.446 491.38,497.612 487.5,501C 489.064,505.19 490.731,509.356 492.5,513.5C 491.998,514.521 491.332,514.688 490.5,514C 486.833,511.5 483.167,509 479.5,506.5C 476.025,508.808 472.692,511.308 469.5,514C 468.668,514.688 468.002,514.521 467.5,513.5C 469.033,509.568 470.366,505.568 471.5,501.5C 468.064,497.943 464.397,494.609 460.5,491.5C 464.995,491.52 469.662,491.354 474.5,491C 476.269,486.527 477.935,482.027 479.5,477.5 Z"/></g>
<g><path style="opacity:0.77" fill="#f47500" d="M 266.5,586.5 C 268.912,586.244 270.579,587.244 271.5,589.5C 268.696,594.136 265.696,598.636 262.5,603C 258.889,604.254 257.389,603.088 258,599.5C 261.056,595.284 263.889,590.951 266.5,586.5 Z"/></g>
<g><path style="opacity:0.782" fill="#f47500" d="M 536.5,607.5 C 538.39,607.297 539.89,607.963 541,609.5C 546.726,622.62 552.726,635.62 559,648.5C 559.381,651.481 558.048,653.481 555,654.5C 548.607,640.047 541.94,625.713 535,611.5C 534.516,609.807 535.016,608.473 536.5,607.5 Z"/></g>
<g><path style="opacity:0.763" fill="#f47500" d="M 251.5,609.5 C 254.955,610.128 256.122,612.128 255,615.5C 251.833,620 248.667,624.5 245.5,629C 241.889,630.254 240.389,629.088 241,625.5C 244.759,620.309 248.259,614.976 251.5,609.5 Z"/></g>
<g><path style="opacity:0.768" fill="#f47500" d="M 340.5,621.5 C 342.144,621.286 343.644,621.62 345,622.5C 345.546,625.899 345.213,629.232 344,632.5C 340.557,644.827 336.724,656.994 332.5,669C 330.866,669.494 329.199,669.66 327.5,669.5C 331.52,653.419 335.854,637.419 340.5,621.5 Z"/></g>
<g><path style="opacity:0.618" fill="#f47500" d="M 286.5,625.5 C 287.239,625.369 287.906,625.536 288.5,626C 285.609,631.174 283.609,636.674 282.5,642.5C 280.304,642.435 278.304,641.768 276.5,640.5C 280.092,635.643 283.425,630.643 286.5,625.5 Z"/></g>
<g><path style="opacity:0.731" fill="#f47500" d="M 395.5,631.5 C 399.483,631.306 401.483,633.139 401.5,637C 400.914,643.868 400.081,650.701 399,657.5C 397.556,659.155 395.722,659.822 393.5,659.5C 394.167,650.167 394.833,640.833 395.5,631.5 Z"/></g>
<g><path style="opacity:0.75" fill="#f47500" d="M 445.5,631.5 C 447.467,631.261 449.301,631.594 451,632.5C 452.459,640.964 453.626,649.464 454.5,658C 453.571,660.909 451.571,662.075 448.5,661.5C 447.5,651.499 446.5,641.499 445.5,631.5 Z"/></g>
<g><path style="opacity:0.594" fill="#f47500" d="M 422.5,657.5 C 424.045,658.23 424.878,659.563 425,661.5C 425.829,666.137 426.329,670.804 426.5,675.5C 424.833,675.5 423.167,675.5 421.5,675.5C 421.966,669.509 422.299,663.509 422.5,657.5 Z"/></g>
</svg>
