<?xml version="1.0" encoding="UTF-8"?>
<!DOCTYPE svg PUBLIC "-//W3C//DTD SVG 1.1//EN" "http://www.w3.org/Graphics/SVG/1.1/DTD/svg11.dtd">
<svg xmlns="http://www.w3.org/2000/svg" version="1.1" width="525px" height="525px" style="shape-rendering:geometricPrecision; text-rendering:geometricPrecision; image-rendering:optimizeQuality; fill-rule:evenodd; clip-rule:evenodd" xmlns:xlink="http://www.w3.org/1999/xlink">
<g><path style="opacity:0.979" fill="#110f8d" d="M 229.5,-0.5 C 232.5,-0.5 235.5,-0.5 238.5,-0.5C 243.628,6.8523 242.128,12.1856 234,15.5C 224.735,12.3369 223.235,7.00361 229.5,-0.5 Z"/></g>
<g><path style="opacity:0.976" fill="#110f8d" d="M 286.5,-0.5 C 289.167,-0.5 291.833,-0.5 294.5,-0.5C 299.765,4.24234 299.765,9.07567 294.5,14C 285.834,15.6644 282,12.1644 283,3.5C 283.69,1.64977 284.856,0.316435 286.5,-0.5 Z"/></g>
<g><path style="opacity:0.753" fill="#110f8d" d="M 182.5,9.5 C 183.376,9.36912 184.043,9.70245 184.5,10.5C 183.687,11.8139 182.687,12.9805 181.5,14C 178.5,14.6667 175.5,14.6667 172.5,14C 175.859,12.3878 179.192,10.8878 182.5,9.5 Z"/></g>
<g><path style="opacity:0.188" fill="#110f8d" d="M 340.5,10.5 C 339.833,9.16667 339.833,9.16667 340.5,10.5 Z"/></g>
<g><path style="opacity:0.758" fill="#110f8d" d="M 340.5,10.5 C 344.44,10.7576 348.107,11.9243 351.5,14C 348.109,15.7206 344.776,15.3872 341.5,13C 340.748,12.3292 340.414,11.4959 340.5,10.5 Z"/></g>
<g><path style="opacity:1" fill="#110f8d" d="M 117.5,55.5 C 125.511,54.8524 129.011,58.519 128,66.5C 125.459,71.0685 121.625,72.5685 116.5,71C 112.723,68.0891 111.556,64.2558 113,59.5C 114.397,57.9297 115.897,56.5964 117.5,55.5 Z"/></g>
<g><path style="opacity:1" fill="#110f8d" d="M 173.5,55.5 C 184.3,55.7662 187.3,60.5996 182.5,70C 173.707,73.5339 169.207,70.7006 169,61.5C 170.332,59.34 171.832,57.34 173.5,55.5 Z"/></g>
<g><path style="opacity:1" fill="#110f8d" d="M 230.5,55.5 C 239.207,55.0365 242.707,59.0365 241,67.5C 238.398,71.2118 234.898,72.3785 230.5,71C 226.139,68.7742 224.639,65.2742 226,60.5C 227.025,58.313 228.525,56.6464 230.5,55.5 Z"/></g>
<g><path style="opacity:1" fill="#110f8d" d="M 287.5,55.5 C 296.153,54.9867 299.653,58.9867 298,67.5C 293,72.8333 288,72.8333 283,67.5C 281.474,62.2389 282.974,58.2389 287.5,55.5 Z"/></g>
<g><path style="opacity:1" fill="#110f8d" d="M 344.5,55.5 C 352.658,54.8229 356.158,58.4895 355,66.5C 352.565,71.2238 348.731,72.7238 343.5,71C 337.939,65.3527 338.272,60.186 344.5,55.5 Z"/></g>
<g><path style="opacity:1" fill="#110f8d" d="M 405.5,55.5 C 414.207,55.0365 417.707,59.0365 416,67.5C 413.045,71.2765 409.212,72.4432 404.5,71C 398.974,65.357 399.308,60.1903 405.5,55.5 Z"/></g>
<g><path style="opacity:1" fill="#110f8d" d="M 59.5,112.5 C 66.4901,110.838 70.4901,113.505 71.5,120.5C 71.1667,125.5 68.5,128.167 63.5,128.5C 56.7268,127.303 54.2268,123.303 56,116.5C 57.3756,115.295 58.5423,113.962 59.5,112.5 Z"/></g>
<g><path style="opacity:1" fill="#110f8d" d="M 116.5,112.5 C 127.832,112.344 130.832,117.177 125.5,127C 115.846,130.012 111.68,126.512 113,116.5C 114.376,115.295 115.542,113.962 116.5,112.5 Z"/></g>
<g><path style="opacity:1" fill="#110f8d" d="M 173.5,112.5 C 180.237,111.195 184.237,113.862 185.5,120.5C 183.891,126.957 179.891,129.457 173.5,128C 166.933,122.792 166.933,117.625 173.5,112.5 Z"/></g>
<g><path style="opacity:1" fill="#110f8d" d="M 230.5,112.5 C 239.152,111.986 242.652,115.986 241,124.5C 235.514,130.08 230.514,129.747 226,123.5C 224.776,118.626 226.276,114.959 230.5,112.5 Z"/></g>
<g><path style="opacity:1" fill="#110f8d" d="M 286.5,112.5 C 293.49,110.838 297.49,113.505 298.5,120.5C 298.167,125.5 295.5,128.167 290.5,128.5C 284.041,127.592 281.541,123.926 283,117.5C 283.997,115.677 285.164,114.01 286.5,112.5 Z"/></g>
<g><path style="opacity:1" fill="#110f8d" d="M 343.5,112.5 C 350.304,111.221 354.304,113.888 355.5,120.5C 354.592,126.959 350.926,129.459 344.5,128C 339.776,125.565 338.276,121.731 340,116.5C 341.376,115.295 342.542,113.962 343.5,112.5 Z"/></g>
<g><path style="opacity:1" fill="#110f8d" d="M 405.5,112.5 C 414.152,111.986 417.652,115.986 416,124.5C 410.514,130.08 405.514,129.747 401,123.5C 399.776,118.626 401.276,114.959 405.5,112.5 Z"/></g>
<g><path style="opacity:1" fill="#110f8d" d="M 461.5,112.5 C 468.49,110.838 472.49,113.505 473.5,120.5C 473.167,125.5 470.5,128.167 465.5,128.5C 458.727,127.303 456.227,123.303 458,116.5C 459.376,115.295 460.542,113.962 461.5,112.5 Z"/></g>
<g><path style="opacity:1" fill="#110f8d" d="M 59.5,169.5 C 70.055,168.871 73.3883,173.371 69.5,183C 59.5443,187.571 55.0443,184.405 56,173.5C 57.3756,172.295 58.5423,170.962 59.5,169.5 Z"/></g>
<g><path style="opacity:1" fill="#110f8d" d="M 116.5,169.5 C 126.002,168.493 129.502,172.493 127,181.5C 122.333,186.833 117.667,186.833 113,181.5C 111.593,176.556 112.759,172.556 116.5,169.5 Z"/></g>
<g><path style="opacity:1" fill="#110f8d" d="M 172.5,169.5 C 179.581,167.559 183.914,170.059 185.5,177C 182.475,186.201 177.309,187.701 170,181.5C 168.015,176.945 168.849,172.945 172.5,169.5 Z"/></g>
<g><path style="opacity:1" fill="#110f8d" d="M 229.5,169.5 C 239.33,167.829 243.163,171.829 241,181.5C 236.828,186.368 232.328,186.702 227.5,182.5C 224.547,177.6 225.214,173.267 229.5,169.5 Z"/></g>
<g><path style="opacity:1" fill="#110f8d" d="M 286.5,169.5 C 295.158,168.327 298.992,171.994 298,180.5C 294.086,186.142 289.42,186.809 284,182.5C 281.458,177.438 282.292,173.105 286.5,169.5 Z"/></g>
<g><path style="opacity:1" fill="#110f8d" d="M 343.5,169.5 C 354.63,169.106 357.63,173.773 352.5,183.5C 342.888,187.058 338.721,183.724 340,173.5C 340.69,171.65 341.856,170.316 343.5,169.5 Z"/></g>
<g><path style="opacity:1" fill="#110f8d" d="M 404.5,169.5 C 408.257,169.071 411.757,169.737 415,171.5C 417.303,176.038 416.803,180.205 413.5,184C 404.758,186.721 400.592,183.554 401,174.5C 401.997,172.677 403.164,171.01 404.5,169.5 Z"/></g>
<g><path style="opacity:1" fill="#110f8d" d="M 461.5,169.5 C 472.055,168.871 475.388,173.371 471.5,183C 461.544,187.571 457.044,184.405 458,173.5C 459.376,172.295 460.542,170.962 461.5,169.5 Z"/></g>
<g><path style="opacity:0.75" fill="#110f8d" d="M 12.5,173.5 C 13.7251,174.152 14.3917,175.319 14.5,177C 14.6008,180.3 13.2675,182.8 10.5,184.5C 10.1667,184.167 9.83333,183.833 9.5,183.5C 10.9094,180.273 11.9094,176.94 12.5,173.5 Z"/></g>
<g><path style="opacity:0.979" fill="#110f8d" d="M -0.5,238.5 C -0.5,235.5 -0.5,232.5 -0.5,229.5C 3.68313,224.661 8.18313,224.327 13,228.5C 16.4753,235.88 14.3086,240.547 6.5,242.5C 3.69202,241.906 1.35868,240.573 -0.5,238.5 Z"/></g>
<g><path style="opacity:1" fill="#110f8d" d="M 61.5,225.5 C 69.2169,225.944 72.3836,229.944 71,237.5C 66.9204,242.894 62.2537,243.56 57,239.5C 53.999,233.157 55.499,228.49 61.5,225.5 Z"/></g>
<g><path style="opacity:1" fill="#110f8d" d="M 118.5,225.5 C 126.849,226.334 129.683,230.668 127,238.5C 122.968,243.363 118.634,243.696 114,239.5C 110.854,233.055 112.354,228.388 118.5,225.5 Z"/></g>
<g><path style="opacity:1" fill="#110f8d" d="M 174.5,225.5 C 183.357,225.841 186.524,230.174 184,238.5C 180.763,242.249 176.93,243.082 172.5,241C 167.079,235.083 167.746,229.916 174.5,225.5 Z"/></g>
<g><path style="opacity:1" fill="#110f8d" d="M 231.5,225.5 C 240.683,226.19 243.517,230.856 240,239.5C 232.821,243.995 227.987,242.161 225.5,234C 226.174,230.17 228.174,227.336 231.5,225.5 Z"/></g>
<g><path style="opacity:1" fill="#110f8d" d="M 288.5,225.5 C 297.683,226.19 300.517,230.856 297,239.5C 292.667,243.5 288.333,243.5 284,239.5C 280.999,233.157 282.499,228.49 288.5,225.5 Z"/></g>
<g><path style="opacity:1" fill="#110f8d" d="M 345.5,225.5 C 353.849,226.334 356.683,230.668 354,238.5C 350.017,243.324 345.683,243.657 341,239.5C 337.999,233.157 339.499,228.49 345.5,225.5 Z"/></g>
<g><path style="opacity:1" fill="#110f8d" d="M 406.5,225.5 C 415.683,226.19 418.517,230.856 415,239.5C 405.458,244.307 400.792,241.307 401,230.5C 402.73,228.598 404.563,226.931 406.5,225.5 Z"/></g>
<g><path style="opacity:1" fill="#110f8d" d="M 463.5,225.5 C 471.217,225.944 474.384,229.944 473,237.5C 468.92,242.894 464.254,243.56 459,239.5C 455.999,233.157 457.499,228.49 463.5,225.5 Z"/></g>
<g><path style="opacity:0.936" fill="#110f8d" d="M 524.5,232.5 C 524.5,235.5 524.5,238.5 524.5,241.5C 516.007,242.293 512.841,238.293 515,229.5C 517.228,226.922 520.061,225.589 523.5,225.5C 523.198,228.059 523.532,230.393 524.5,232.5 Z"/></g>
<g><path style="opacity:0.977" fill="#110f8d" d="M -0.5,294.5 C -0.5,291.5 -0.5,288.5 -0.5,285.5C 3.63899,280.677 8.13899,280.344 13,284.5C 16.66,294.68 13.16,298.846 2.5,297C 1.62656,295.955 0.626561,295.122 -0.5,294.5 Z"/></g>
<g><path style="opacity:1" fill="#110f8d" d="M 61.5,281.5 C 69.6841,281.537 72.8507,285.537 71,293.5C 65.9537,298.824 60.9537,298.824 56,293.5C 54.3935,287.721 56.2268,283.721 61.5,281.5 Z"/></g>
<g><path style="opacity:1" fill="#110f8d" d="M 118.5,281.5 C 125.465,281.961 128.632,285.628 128,292.5C 125.565,297.224 121.731,298.724 116.5,297C 114.667,296.5 113.5,295.333 113,293.5C 111.036,287.532 112.869,283.532 118.5,281.5 Z"/></g>
<g><path style="opacity:1" fill="#110f8d" d="M 174.5,281.5 C 180.636,281.136 184.302,283.969 185.5,290C 183.904,297.101 179.571,299.435 172.5,297C 167.079,291.083 167.746,285.916 174.5,281.5 Z"/></g>
<g><path style="opacity:1" fill="#110f8d" d="M 231.5,281.5 C 240.683,282.19 243.517,286.856 240,295.5C 236.656,298.196 233.156,298.696 229.5,297C 223.859,291.036 224.526,285.869 231.5,281.5 Z"/></g>
<g><path style="opacity:1" fill="#110f8d" d="M 288.5,281.5 C 296.684,281.537 299.851,285.537 298,293.5C 293,298.833 288,298.833 283,293.5C 281.375,287.757 283.208,283.757 288.5,281.5 Z"/></g>
<g><path style="opacity:1" fill="#110f8d" d="M 345.5,281.5 C 353.849,282.334 356.683,286.668 354,294.5C 349.845,298.804 345.512,299.138 341,295.5C 337.999,289.157 339.499,284.49 345.5,281.5 Z"/></g>
<g><path style="opacity:1" fill="#110f8d" d="M 406.5,281.5 C 414.662,281.498 417.828,285.498 416,293.5C 415.5,295.333 414.333,296.5 412.5,297C 403.884,298.717 400.051,295.217 401,286.5C 402.406,284.256 404.239,282.59 406.5,281.5 Z"/></g>
<g><path style="opacity:1" fill="#110f8d" d="M 463.5,281.5 C 471.684,281.537 474.851,285.537 473,293.5C 467.954,298.824 462.954,298.824 458,293.5C 456.393,287.721 458.227,283.721 463.5,281.5 Z"/></g>
<g><path style="opacity:0.942" fill="#110f8d" d="M 524.5,281.5 C 524.5,284.5 524.5,287.5 524.5,290.5C 523.532,292.607 523.198,294.941 523.5,297.5C 515.579,297.365 512.745,293.365 515,285.5C 517.523,282.712 520.69,281.379 524.5,281.5 Z"/></g>
<g><path style="opacity:1" fill="#110f8d" d="M 60.5,338.5 C 68.6577,337.823 72.1577,341.49 71,349.5C 68.5647,354.224 64.7314,355.724 59.5,354C 54.0344,348.434 54.3678,343.267 60.5,338.5 Z"/></g>
<g><path style="opacity:1" fill="#110f8d" d="M 117.5,338.5 C 125.511,337.852 129.011,341.519 128,349.5C 125.459,354.069 121.625,355.569 116.5,354C 112.723,351.089 111.556,347.256 113,342.5C 114.397,340.93 115.897,339.596 117.5,338.5 Z"/></g>
<g><path style="opacity:1" fill="#110f8d" d="M 173.5,338.5 C 184.3,338.766 187.3,343.6 182.5,353C 173.707,356.534 169.207,353.701 169,344.5C 170.332,342.34 171.832,340.34 173.5,338.5 Z"/></g>
<g><path style="opacity:1" fill="#110f8d" d="M 230.5,338.5 C 239.207,338.037 242.707,342.037 241,350.5C 238.398,354.212 234.898,355.378 230.5,354C 226.139,351.774 224.639,348.274 226,343.5C 227.025,341.313 228.525,339.646 230.5,338.5 Z"/></g>
<g><path style="opacity:1" fill="#110f8d" d="M 287.5,338.5 C 296.153,337.987 299.653,341.987 298,350.5C 293,355.833 288,355.833 283,350.5C 281.474,345.239 282.974,341.239 287.5,338.5 Z"/></g>
<g><path style="opacity:1" fill="#110f8d" d="M 344.5,338.5 C 352.658,337.823 356.158,341.49 355,349.5C 352.565,354.224 348.731,355.724 343.5,354C 337.939,348.353 338.272,343.186 344.5,338.5 Z"/></g>
<g><path style="opacity:1" fill="#110f8d" d="M 405.5,338.5 C 414.207,338.037 417.707,342.037 416,350.5C 413.045,354.277 409.212,355.443 404.5,354C 398.974,348.357 399.308,343.19 405.5,338.5 Z"/></g>
<g><path style="opacity:1" fill="#110f8d" d="M 462.5,338.5 C 470.658,337.823 474.158,341.49 473,349.5C 470.565,354.224 466.731,355.724 461.5,354C 456.034,348.434 456.368,343.267 462.5,338.5 Z"/></g>
<g><path style="opacity:0.757" fill="#110f8d" d="M 9.5,340.5 C 9.55999,339.957 9.89333,339.624 10.5,339.5C 14.3137,342.187 15.4804,345.853 14,350.5C 11.9971,347.297 10.4971,343.964 9.5,340.5 Z"/></g>
<g><path style="opacity:1" fill="#110f8d" d="M 59.5,395.5 C 66.4901,393.838 70.4901,396.505 71.5,403.5C 71.1667,408.5 68.5,411.167 63.5,411.5C 56.7268,410.303 54.2268,406.303 56,399.5C 57.3756,398.295 58.5423,396.962 59.5,395.5 Z"/></g>
<g><path style="opacity:1" fill="#110f8d" d="M 116.5,395.5 C 127.832,395.344 130.832,400.177 125.5,410C 115.846,413.012 111.68,409.512 113,399.5C 114.376,398.295 115.542,396.962 116.5,395.5 Z"/></g>
<g><path style="opacity:1" fill="#110f8d" d="M 173.5,395.5 C 180.237,394.195 184.237,396.862 185.5,403.5C 183.891,409.957 179.891,412.457 173.5,411C 166.933,405.792 166.933,400.625 173.5,395.5 Z"/></g>
<g><path style="opacity:1" fill="#110f8d" d="M 230.5,395.5 C 239.152,394.986 242.652,398.986 241,407.5C 235.514,413.08 230.514,412.747 226,406.5C 224.776,401.626 226.276,397.959 230.5,395.5 Z"/></g>
<g><path style="opacity:1" fill="#110f8d" d="M 286.5,395.5 C 293.49,393.838 297.49,396.505 298.5,403.5C 298.167,408.5 295.5,411.167 290.5,411.5C 284.041,410.592 281.541,406.926 283,400.5C 283.997,398.677 285.164,397.01 286.5,395.5 Z"/></g>
<g><path style="opacity:1" fill="#110f8d" d="M 343.5,395.5 C 350.304,394.221 354.304,396.888 355.5,403.5C 354.592,409.959 350.926,412.459 344.5,411C 339.776,408.565 338.276,404.731 340,399.5C 341.376,398.295 342.542,396.962 343.5,395.5 Z"/></g>
<g><path style="opacity:1" fill="#110f8d" d="M 405.5,395.5 C 414.152,394.986 417.652,398.986 416,407.5C 410.514,413.08 405.514,412.747 401,406.5C 399.776,401.626 401.276,397.959 405.5,395.5 Z"/></g>
<g><path style="opacity:1" fill="#110f8d" d="M 461.5,395.5 C 468.49,393.838 472.49,396.505 473.5,403.5C 473.167,408.5 470.5,411.167 465.5,411.5C 458.727,410.303 456.227,406.303 458,399.5C 459.376,398.295 460.542,396.962 461.5,395.5 Z"/></g>
<g><path style="opacity:1" fill="#110f8d" d="M 116.5,452.5 C 126.002,451.493 129.502,455.493 127,464.5C 122.333,469.833 117.667,469.833 113,464.5C 111.593,459.556 112.759,455.556 116.5,452.5 Z"/></g>
<g><path style="opacity:1" fill="#110f8d" d="M 172.5,452.5 C 179.581,450.559 183.914,453.059 185.5,460C 182.475,469.201 177.309,470.701 170,464.5C 168.015,459.945 168.849,455.945 172.5,452.5 Z"/></g>
<g><path style="opacity:1" fill="#110f8d" d="M 229.5,452.5 C 239.33,450.829 243.163,454.829 241,464.5C 236.828,469.368 232.328,469.702 227.5,465.5C 224.547,460.6 225.214,456.267 229.5,452.5 Z"/></g>
<g><path style="opacity:1" fill="#110f8d" d="M 286.5,452.5 C 295.158,451.327 298.992,454.994 298,463.5C 294.086,469.142 289.42,469.809 284,465.5C 281.458,460.438 282.292,456.105 286.5,452.5 Z"/></g>
<g><path style="opacity:1" fill="#110f8d" d="M 343.5,452.5 C 354.63,452.106 357.63,456.773 352.5,466.5C 342.888,470.058 338.721,466.724 340,456.5C 340.69,454.65 341.856,453.316 343.5,452.5 Z"/></g>
<g><path style="opacity:1" fill="#110f8d" d="M 404.5,452.5 C 408.257,452.071 411.757,452.737 415,454.5C 417.303,459.038 416.803,463.205 413.5,467C 404.758,469.721 400.592,466.554 401,457.5C 401.997,455.677 403.164,454.01 404.5,452.5 Z"/></g>
<g><path style="opacity:0.723" fill="#110f8d" d="M 174.5,508.5 C 176.927,508.523 179.26,509.023 181.5,510C 183.329,511.113 184.163,512.613 184,514.5C 180.183,513.005 176.35,511.505 172.5,510C 173.416,509.722 174.082,509.222 174.5,508.5 Z"/></g>
<g><path style="opacity:0.975" fill="#110f8d" d="M 237.5,524.5 C 235.833,524.5 234.167,524.5 232.5,524.5C 226.122,522.738 224.288,518.738 227,512.5C 232.111,507.115 236.777,507.448 241,513.5C 242.337,518.128 241.17,521.795 237.5,524.5 Z"/></g>
<g><path style="opacity:0.976" fill="#110f8d" d="M 290.5,524.5 C 289.167,524.5 287.833,524.5 286.5,524.5C 281.618,520.114 281.285,515.28 285.5,510C 297.04,507.544 300.707,511.877 296.5,523C 294.292,523.191 292.292,523.691 290.5,524.5 Z"/></g>
<g><path style="opacity:0.766" fill="#110f8d" d="M 345.5,508.5 C 347.655,508.372 349.655,508.872 351.5,510C 348.129,511.068 344.796,512.235 341.5,513.5C 340.479,512.998 340.312,512.332 341,511.5C 342.409,510.219 343.909,509.219 345.5,508.5 Z"/></g>
</svg>
