<?xml version="1.0" encoding="UTF-8"?>
<!DOCTYPE svg PUBLIC "-//W3C//DTD SVG 1.1//EN" "http://www.w3.org/Graphics/SVG/1.1/DTD/svg11.dtd">
<svg xmlns="http://www.w3.org/2000/svg" version="1.1" width="759px" height="527px" style="shape-rendering:geometricPrecision; text-rendering:geometricPrecision; image-rendering:optimizeQuality; fill-rule:evenodd; clip-rule:evenodd" xmlns:xlink="http://www.w3.org/1999/xlink">
<g><path style="opacity:1" fill="#110f8d" d="M 62.5,-0.5 C 63.8333,-0.5 65.1667,-0.5 66.5,-0.5C 71.7919,1.75704 73.6252,5.75704 72,11.5C 66.9537,16.8239 61.9537,16.8239 57,11.5C 55.3935,5.72117 57.2268,1.72117 62.5,-0.5 Z"/></g>
<g><path style="opacity:1" fill="#110f8d" d="M 119.5,-0.5 C 120.833,-0.5 122.167,-0.5 123.5,-0.5C 130.474,3.86893 131.141,9.03559 125.5,15C 115.667,17.1667 111.833,13.3333 114,3.5C 115.5,1.5313 117.333,0.197963 119.5,-0.5 Z"/></g>
<g><path style="opacity:1" fill="#110f8d" d="M 175.5,-0.5 C 177.167,-0.5 178.833,-0.5 180.5,-0.5C 187.254,3.91601 187.921,9.08267 182.5,15C 172.526,17.0267 168.693,13.1934 171,3.5C 172.397,1.92975 173.897,0.596413 175.5,-0.5 Z"/></g>
<g><path style="opacity:1" fill="#110f8d" d="M 232.5,-0.5 C 233.833,-0.5 235.167,-0.5 236.5,-0.5C 242.501,2.49012 244.001,7.15678 241,13.5C 237.656,16.1958 234.156,16.6958 230.5,15C 224.859,9.03559 225.526,3.86893 232.5,-0.5 Z"/></g>
<g><path style="opacity:1" fill="#110f8d" d="M 289.5,-0.5 C 290.833,-0.5 292.167,-0.5 293.5,-0.5C 298.792,1.75704 300.625,5.75704 299,11.5C 294,16.8333 289,16.8333 284,11.5C 282.375,5.75704 284.208,1.75704 289.5,-0.5 Z"/></g>
<g><path style="opacity:1" fill="#110f8d" d="M 346.5,-0.5 C 347.833,-0.5 349.167,-0.5 350.5,-0.5C 355.982,2.46263 357.482,6.79597 355,12.5C 350.845,16.8044 346.512,17.1378 342,13.5C 338.999,7.15678 340.499,2.49012 346.5,-0.5 Z"/></g>
<g><path style="opacity:1" fill="#110f8d" d="M 407.5,-0.5 C 408.833,-0.5 410.167,-0.5 411.5,-0.5C 417.724,2.77628 419.057,7.60961 415.5,14C 405.972,17.7941 401.472,14.6274 402,4.5C 403.406,2.25633 405.239,0.589662 407.5,-0.5 Z"/></g>
<g><path style="opacity:1" fill="#110f8d" d="M 464.5,-0.5 C 465.833,-0.5 467.167,-0.5 468.5,-0.5C 473.792,1.75704 475.625,5.75704 474,11.5C 468.954,16.8239 463.954,16.8239 459,11.5C 457.393,5.72117 459.227,1.72117 464.5,-0.5 Z"/></g>
<g><path style="opacity:1" fill="#110f8d" d="M 521.5,-0.5 C 522.833,-0.5 524.167,-0.5 525.5,-0.5C 532.474,3.86893 533.141,9.03559 527.5,15C 517.667,17.1667 513.833,13.3333 516,3.5C 517.5,1.5313 519.333,0.197963 521.5,-0.5 Z"/></g>
<g><path style="opacity:1" fill="#110f8d" d="M 577.5,-0.5 C 579.167,-0.5 580.833,-0.5 582.5,-0.5C 589.254,3.91601 589.921,9.08267 584.5,15C 574.526,17.0267 570.693,13.1934 573,3.5C 574.397,1.92975 575.897,0.596413 577.5,-0.5 Z"/></g>
<g><path style="opacity:1" fill="#110f8d" d="M 634.5,-0.5 C 635.833,-0.5 637.167,-0.5 638.5,-0.5C 644.501,2.49012 646.001,7.15678 643,13.5C 639.656,16.1958 636.156,16.6958 632.5,15C 626.859,9.03559 627.526,3.86893 634.5,-0.5 Z"/></g>
<g><path style="opacity:1" fill="#110f8d" d="M 691.5,-0.5 C 692.833,-0.5 694.167,-0.5 695.5,-0.5C 700.792,1.75704 702.625,5.75704 701,11.5C 696,16.8333 691,16.8333 686,11.5C 684.375,5.75704 686.208,1.75704 691.5,-0.5 Z"/></g>
<g><path style="opacity:1" fill="#110f8d" d="M -0.5,67.5 C -0.5,65.5 -0.5,63.5 -0.5,61.5C 4.1903,55.3075 9.35697,54.9742 15,60.5C 16.5,69.6667 12.6667,73.5 3.5,72C 1.92975,70.6032 0.596413,69.1032 -0.5,67.5 Z"/></g>
<g><path style="opacity:1" fill="#110f8d" d="M 61.5,56.5 C 69.6577,55.8229 73.1577,59.4895 72,67.5C 69.5647,72.2238 65.7314,73.7238 60.5,72C 55.0344,66.434 55.3678,61.2673 61.5,56.5 Z"/></g>
<g><path style="opacity:1" fill="#110f8d" d="M 118.5,56.5 C 126.511,55.8524 130.011,59.519 129,67.5C 126.459,72.0685 122.625,73.5685 117.5,72C 113.723,69.0891 112.556,65.2558 114,60.5C 115.397,58.9297 116.897,57.5964 118.5,56.5 Z"/></g>
<g><path style="opacity:1" fill="#110f8d" d="M 174.5,56.5 C 185.3,56.7662 188.3,61.5996 183.5,71C 174.707,74.5339 170.207,71.7006 170,62.5C 171.332,60.34 172.832,58.34 174.5,56.5 Z"/></g>
<g><path style="opacity:1" fill="#110f8d" d="M 231.5,56.5 C 240.207,56.0365 243.707,60.0365 242,68.5C 239.398,72.2118 235.898,73.3785 231.5,72C 227.139,69.7742 225.639,66.2742 227,61.5C 228.025,59.313 229.525,57.6464 231.5,56.5 Z"/></g>
<g><path style="opacity:1" fill="#110f8d" d="M 288.5,56.5 C 297.153,55.9867 300.653,59.9867 299,68.5C 294,73.8333 289,73.8333 284,68.5C 282.474,63.2389 283.974,59.2389 288.5,56.5 Z"/></g>
<g><path style="opacity:1" fill="#110f8d" d="M 345.5,56.5 C 353.658,55.8229 357.158,59.4895 356,67.5C 353.565,72.2238 349.731,73.7238 344.5,72C 338.939,66.3527 339.272,61.186 345.5,56.5 Z"/></g>
<g><path style="opacity:1" fill="#110f8d" d="M 406.5,56.5 C 415.207,56.0365 418.707,60.0365 417,68.5C 414.045,72.2765 410.212,73.4432 405.5,72C 399.974,66.357 400.308,61.1903 406.5,56.5 Z"/></g>
<g><path style="opacity:1" fill="#110f8d" d="M 463.5,56.5 C 471.658,55.8229 475.158,59.4895 474,67.5C 471.565,72.2238 467.731,73.7238 462.5,72C 457.034,66.434 457.368,61.2673 463.5,56.5 Z"/></g>
<g><path style="opacity:1" fill="#110f8d" d="M 520.5,56.5 C 528.511,55.8524 532.011,59.519 531,67.5C 528.459,72.0685 524.625,73.5685 519.5,72C 515.723,69.0891 514.556,65.2558 516,60.5C 517.397,58.9297 518.897,57.5964 520.5,56.5 Z"/></g>
<g><path style="opacity:1" fill="#110f8d" d="M 576.5,56.5 C 587.3,56.7662 590.3,61.5996 585.5,71C 576.707,74.5339 572.207,71.7006 572,62.5C 573.332,60.34 574.832,58.34 576.5,56.5 Z"/></g>
<g><path style="opacity:1" fill="#110f8d" d="M 633.5,56.5 C 642.207,56.0365 645.707,60.0365 644,68.5C 641.398,72.2118 637.898,73.3785 633.5,72C 629.139,69.7742 627.639,66.2742 629,61.5C 630.025,59.313 631.525,57.6464 633.5,56.5 Z"/></g>
<g><path style="opacity:1" fill="#110f8d" d="M 690.5,56.5 C 699.153,55.9867 702.653,59.9867 701,68.5C 696,73.8333 691,73.8333 686,68.5C 684.474,63.2389 685.974,59.2389 690.5,56.5 Z"/></g>
<g><path style="opacity:1" fill="#110f8d" d="M 758.5,61.5 C 758.5,63.5 758.5,65.5 758.5,67.5C 753.814,73.7281 748.647,74.0615 743,68.5C 741.283,59.8844 744.783,56.051 753.5,57C 755.687,58.025 757.354,59.525 758.5,61.5 Z"/></g>
<g><path style="opacity:1" fill="#110f8d" d="M -0.5,124.5 C -0.5,122.5 -0.5,120.5 -0.5,118.5C 4.26731,112.368 9.43397,112.034 15,117.5C 16.7172,126.116 13.2172,129.949 4.5,129C 2.31305,127.975 0.646381,126.475 -0.5,124.5 Z"/></g>
<g><path style="opacity:1" fill="#110f8d" d="M 60.5,113.5 C 67.4901,111.838 71.4901,114.505 72.5,121.5C 72.1667,126.5 69.5,129.167 64.5,129.5C 57.7268,128.303 55.2268,124.303 57,117.5C 58.3756,116.295 59.5423,114.962 60.5,113.5 Z"/></g>
<g><path style="opacity:1" fill="#110f8d" d="M 117.5,113.5 C 128.832,113.344 131.832,118.177 126.5,128C 116.846,131.012 112.68,127.512 114,117.5C 115.376,116.295 116.542,114.962 117.5,113.5 Z"/></g>
<g><path style="opacity:1" fill="#110f8d" d="M 174.5,113.5 C 181.237,112.195 185.237,114.862 186.5,121.5C 184.891,127.957 180.891,130.457 174.5,129C 167.933,123.792 167.933,118.625 174.5,113.5 Z"/></g>
<g><path style="opacity:1" fill="#110f8d" d="M 231.5,113.5 C 240.152,112.986 243.652,116.986 242,125.5C 236.514,131.08 231.514,130.747 227,124.5C 225.776,119.626 227.276,115.959 231.5,113.5 Z"/></g>
<g><path style="opacity:1" fill="#110f8d" d="M 287.5,113.5 C 294.49,111.838 298.49,114.505 299.5,121.5C 299.167,126.5 296.5,129.167 291.5,129.5C 285.041,128.592 282.541,124.926 284,118.5C 284.997,116.677 286.164,115.01 287.5,113.5 Z"/></g>
<g><path style="opacity:1" fill="#110f8d" d="M 344.5,113.5 C 351.304,112.221 355.304,114.888 356.5,121.5C 355.592,127.959 351.926,130.459 345.5,129C 340.776,126.565 339.276,122.731 341,117.5C 342.376,116.295 343.542,114.962 344.5,113.5 Z"/></g>
<g><path style="opacity:1" fill="#110f8d" d="M 406.5,113.5 C 415.152,112.986 418.652,116.986 417,125.5C 411.514,131.08 406.514,130.747 402,124.5C 400.776,119.626 402.276,115.959 406.5,113.5 Z"/></g>
<g><path style="opacity:1" fill="#110f8d" d="M 462.5,113.5 C 469.49,111.838 473.49,114.505 474.5,121.5C 474.167,126.5 471.5,129.167 466.5,129.5C 459.727,128.303 457.227,124.303 459,117.5C 460.376,116.295 461.542,114.962 462.5,113.5 Z"/></g>
<g><path style="opacity:1" fill="#110f8d" d="M 519.5,113.5 C 530.832,113.344 533.832,118.177 528.5,128C 518.846,131.012 514.68,127.512 516,117.5C 517.376,116.295 518.542,114.962 519.5,113.5 Z"/></g>
<g><path style="opacity:1" fill="#110f8d" d="M 576.5,113.5 C 583.237,112.195 587.237,114.862 588.5,121.5C 586.891,127.957 582.891,130.457 576.5,129C 569.933,123.792 569.933,118.625 576.5,113.5 Z"/></g>
<g><path style="opacity:1" fill="#110f8d" d="M 633.5,113.5 C 642.152,112.986 645.652,116.986 644,125.5C 638.514,131.08 633.514,130.747 629,124.5C 627.776,119.626 629.276,115.959 633.5,113.5 Z"/></g>
<g><path style="opacity:1" fill="#110f8d" d="M 689.5,113.5 C 696.49,111.838 700.49,114.505 701.5,121.5C 701.167,126.5 698.5,129.167 693.5,129.5C 687.041,128.592 684.541,124.926 686,118.5C 686.997,116.677 688.164,115.01 689.5,113.5 Z"/></g>
<g><path style="opacity:1" fill="#110f8d" d="M 758.5,118.5 C 758.5,120.5 758.5,122.5 758.5,124.5C 753.81,130.692 748.643,131.026 743,125.5C 741.336,116.834 744.836,113 753.5,114C 755.687,115.025 757.354,116.525 758.5,118.5 Z"/></g>
<g><path style="opacity:1" fill="#110f8d" d="M -0.5,181.5 C -0.5,179.5 -0.5,177.5 -0.5,175.5C 3.24738,170.084 8.08072,169.084 14,172.5C 16.7757,178.134 15.609,182.634 10.5,186C 5.90734,186.702 2.24068,185.202 -0.5,181.5 Z"/></g>
<g><path style="opacity:1" fill="#110f8d" d="M 60.5,170.5 C 71.055,169.871 74.3883,174.371 70.5,184C 60.5443,188.571 56.0443,185.405 57,174.5C 58.3756,173.295 59.5423,171.962 60.5,170.5 Z"/></g>
<g><path style="opacity:1" fill="#110f8d" d="M 117.5,170.5 C 127.002,169.493 130.502,173.493 128,182.5C 123.333,187.833 118.667,187.833 114,182.5C 112.593,177.556 113.759,173.556 117.5,170.5 Z"/></g>
<g><path style="opacity:1" fill="#110f8d" d="M 173.5,170.5 C 180.581,168.559 184.914,171.059 186.5,178C 183.475,187.201 178.309,188.701 171,182.5C 169.015,177.945 169.849,173.945 173.5,170.5 Z"/></g>
<g><path style="opacity:1" fill="#110f8d" d="M 230.5,170.5 C 240.33,168.829 244.163,172.829 242,182.5C 237.828,187.368 233.328,187.702 228.5,183.5C 225.547,178.6 226.214,174.267 230.5,170.5 Z"/></g>
<g><path style="opacity:1" fill="#110f8d" d="M 287.5,170.5 C 296.158,169.327 299.992,172.994 299,181.5C 295.086,187.142 290.42,187.809 285,183.5C 282.458,178.438 283.292,174.105 287.5,170.5 Z"/></g>
<g><path style="opacity:1" fill="#110f8d" d="M 344.5,170.5 C 355.63,170.106 358.63,174.773 353.5,184.5C 343.888,188.058 339.721,184.724 341,174.5C 341.69,172.65 342.856,171.316 344.5,170.5 Z"/></g>
<g><path style="opacity:1" fill="#110f8d" d="M 405.5,170.5 C 409.257,170.071 412.757,170.737 416,172.5C 418.303,177.038 417.803,181.205 414.5,185C 405.758,187.721 401.592,184.554 402,175.5C 402.997,173.677 404.164,172.01 405.5,170.5 Z"/></g>
<g><path style="opacity:1" fill="#110f8d" d="M 462.5,170.5 C 473.055,169.871 476.388,174.371 472.5,184C 462.544,188.571 458.044,185.405 459,174.5C 460.376,173.295 461.542,171.962 462.5,170.5 Z"/></g>
<g><path style="opacity:1" fill="#110f8d" d="M 519.5,170.5 C 529.002,169.493 532.502,173.493 530,182.5C 525.333,187.833 520.667,187.833 516,182.5C 514.593,177.556 515.759,173.556 519.5,170.5 Z"/></g>
<g><path style="opacity:1" fill="#110f8d" d="M 575.5,170.5 C 582.581,168.559 586.914,171.059 588.5,178C 585.475,187.201 580.309,188.701 573,182.5C 571.015,177.945 571.849,173.945 575.5,170.5 Z"/></g>
<g><path style="opacity:1" fill="#110f8d" d="M 632.5,170.5 C 642.33,168.829 646.163,172.829 644,182.5C 639.828,187.368 635.328,187.702 630.5,183.5C 627.547,178.6 628.214,174.267 632.5,170.5 Z"/></g>
<g><path style="opacity:1" fill="#110f8d" d="M 689.5,170.5 C 698.158,169.327 701.992,172.994 701,181.5C 697.086,187.142 692.42,187.809 687,183.5C 684.458,178.438 685.292,174.105 689.5,170.5 Z"/></g>
<g><path style="opacity:1" fill="#110f8d" d="M 758.5,175.5 C 758.5,177.167 758.5,178.833 758.5,180.5C 754.179,187.463 749.012,188.13 743,182.5C 740.833,172.667 744.667,168.833 754.5,171C 756.07,172.397 757.404,173.897 758.5,175.5 Z"/></g>
<g><path style="opacity:1" fill="#110f8d" d="M -0.5,237.5 C -0.5,235.5 -0.5,233.5 -0.5,231.5C 3.72965,225.895 8.56298,225.229 14,229.5C 17.5713,239.907 14.0713,244.073 3.5,242C 1.92975,240.603 0.596413,239.103 -0.5,237.5 Z"/></g>
<g><path style="opacity:1" fill="#110f8d" d="M 62.5,226.5 C 70.2169,226.944 73.3836,230.944 72,238.5C 67.9204,243.894 63.2537,244.56 58,240.5C 54.999,234.157 56.499,229.49 62.5,226.5 Z"/></g>
<g><path style="opacity:1" fill="#110f8d" d="M 119.5,226.5 C 127.849,227.334 130.683,231.668 128,239.5C 123.968,244.363 119.634,244.696 115,240.5C 111.854,234.055 113.354,229.388 119.5,226.5 Z"/></g>
<g><path style="opacity:1" fill="#110f8d" d="M 175.5,226.5 C 184.357,226.841 187.524,231.174 185,239.5C 181.763,243.249 177.93,244.082 173.5,242C 168.079,236.083 168.746,230.916 175.5,226.5 Z"/></g>
<g><path style="opacity:1" fill="#110f8d" d="M 232.5,226.5 C 241.683,227.19 244.517,231.856 241,240.5C 233.821,244.995 228.987,243.161 226.5,235C 227.174,231.17 229.174,228.336 232.5,226.5 Z"/></g>
<g><path style="opacity:1" fill="#110f8d" d="M 289.5,226.5 C 298.683,227.19 301.517,231.856 298,240.5C 293.667,244.5 289.333,244.5 285,240.5C 281.999,234.157 283.499,229.49 289.5,226.5 Z"/></g>
<g><path style="opacity:1" fill="#110f8d" d="M 346.5,226.5 C 354.849,227.334 357.683,231.668 355,239.5C 351.017,244.324 346.683,244.657 342,240.5C 338.999,234.157 340.499,229.49 346.5,226.5 Z"/></g>
<g><path style="opacity:1" fill="#110f8d" d="M 407.5,226.5 C 416.683,227.19 419.517,231.856 416,240.5C 406.458,245.307 401.792,242.307 402,231.5C 403.73,229.598 405.563,227.931 407.5,226.5 Z"/></g>
<g><path style="opacity:1" fill="#110f8d" d="M 464.5,226.5 C 472.217,226.944 475.384,230.944 474,238.5C 469.92,243.894 465.254,244.56 460,240.5C 456.999,234.157 458.499,229.49 464.5,226.5 Z"/></g>
<g><path style="opacity:1" fill="#110f8d" d="M 521.5,226.5 C 529.849,227.334 532.683,231.668 530,239.5C 525.968,244.363 521.634,244.696 517,240.5C 513.854,234.055 515.354,229.388 521.5,226.5 Z"/></g>
<g><path style="opacity:1" fill="#110f8d" d="M 577.5,226.5 C 586.357,226.841 589.524,231.174 587,239.5C 583.763,243.249 579.93,244.082 575.5,242C 570.079,236.083 570.746,230.916 577.5,226.5 Z"/></g>
<g><path style="opacity:1" fill="#110f8d" d="M 634.5,226.5 C 643.683,227.19 646.517,231.856 643,240.5C 635.821,244.995 630.987,243.161 628.5,235C 629.174,231.17 631.174,228.336 634.5,226.5 Z"/></g>
<g><path style="opacity:1" fill="#110f8d" d="M 691.5,226.5 C 700.683,227.19 703.517,231.856 700,240.5C 695.667,244.5 691.333,244.5 687,240.5C 683.999,234.157 685.499,229.49 691.5,226.5 Z"/></g>
<g><path style="opacity:1" fill="#110f8d" d="M 758.5,232.5 C 758.5,234.167 758.5,235.833 758.5,237.5C 754.703,243.601 749.869,244.601 744,240.5C 740.47,230.043 743.97,225.876 754.5,228C 756.07,229.397 757.404,230.897 758.5,232.5 Z"/></g>
<g><path style="opacity:1" fill="#110f8d" d="M -0.5,293.5 C -0.5,291.5 -0.5,289.5 -0.5,287.5C 3.68534,281.91 8.51867,281.243 14,285.5C 17.66,295.68 14.16,299.846 3.5,298C 1.92975,296.603 0.596413,295.103 -0.5,293.5 Z"/></g>
<g><path style="opacity:1" fill="#110f8d" d="M 62.5,282.5 C 70.6841,282.537 73.8507,286.537 72,294.5C 66.9537,299.824 61.9537,299.824 57,294.5C 55.3935,288.721 57.2268,284.721 62.5,282.5 Z"/></g>
<g><path style="opacity:1" fill="#110f8d" d="M 119.5,282.5 C 126.465,282.961 129.632,286.628 129,293.5C 126.565,298.224 122.731,299.724 117.5,298C 115.667,297.5 114.5,296.333 114,294.5C 112.036,288.532 113.869,284.532 119.5,282.5 Z"/></g>
<g><path style="opacity:1" fill="#110f8d" d="M 175.5,282.5 C 181.636,282.136 185.302,284.969 186.5,291C 184.904,298.101 180.571,300.435 173.5,298C 168.079,292.083 168.746,286.916 175.5,282.5 Z"/></g>
<g><path style="opacity:1" fill="#110f8d" d="M 232.5,282.5 C 241.683,283.19 244.517,287.856 241,296.5C 237.656,299.196 234.156,299.696 230.5,298C 224.859,292.036 225.526,286.869 232.5,282.5 Z"/></g>
<g><path style="opacity:1" fill="#110f8d" d="M 289.5,282.5 C 297.684,282.537 300.851,286.537 299,294.5C 294,299.833 289,299.833 284,294.5C 282.375,288.757 284.208,284.757 289.5,282.5 Z"/></g>
<g><path style="opacity:1" fill="#110f8d" d="M 346.5,282.5 C 354.849,283.334 357.683,287.668 355,295.5C 350.845,299.804 346.512,300.138 342,296.5C 338.999,290.157 340.499,285.49 346.5,282.5 Z"/></g>
<g><path style="opacity:1" fill="#110f8d" d="M 407.5,282.5 C 415.662,282.498 418.828,286.498 417,294.5C 416.5,296.333 415.333,297.5 413.5,298C 404.884,299.717 401.051,296.217 402,287.5C 403.406,285.256 405.239,283.59 407.5,282.5 Z"/></g>
<g><path style="opacity:1" fill="#110f8d" d="M 464.5,282.5 C 472.684,282.537 475.851,286.537 474,294.5C 468.954,299.824 463.954,299.824 459,294.5C 457.393,288.721 459.227,284.721 464.5,282.5 Z"/></g>
<g><path style="opacity:1" fill="#110f8d" d="M 521.5,282.5 C 528.465,282.961 531.632,286.628 531,293.5C 528.565,298.224 524.731,299.724 519.5,298C 517.667,297.5 516.5,296.333 516,294.5C 514.036,288.532 515.869,284.532 521.5,282.5 Z"/></g>
<g><path style="opacity:1" fill="#110f8d" d="M 577.5,282.5 C 583.636,282.136 587.302,284.969 588.5,291C 586.904,298.101 582.571,300.435 575.5,298C 570.079,292.083 570.746,286.916 577.5,282.5 Z"/></g>
<g><path style="opacity:1" fill="#110f8d" d="M 634.5,282.5 C 643.683,283.19 646.517,287.856 643,296.5C 639.656,299.196 636.156,299.696 632.5,298C 626.859,292.036 627.526,286.869 634.5,282.5 Z"/></g>
<g><path style="opacity:1" fill="#110f8d" d="M 691.5,282.5 C 699.684,282.537 702.851,286.537 701,294.5C 696,299.833 691,299.833 686,294.5C 684.375,288.757 686.208,284.757 691.5,282.5 Z"/></g>
<g><path style="opacity:1" fill="#110f8d" d="M 758.5,288.5 C 758.5,290.167 758.5,291.833 758.5,293.5C 754.583,299.357 749.749,300.357 744,296.5C 740.47,286.043 743.97,281.876 754.5,284C 756.07,285.397 757.404,286.897 758.5,288.5 Z"/></g>
<g><path style="opacity:1" fill="#110f8d" d="M -0.5,350.5 C -0.5,348.5 -0.5,346.5 -0.5,344.5C 4.1903,338.308 9.35697,337.974 15,343.5C 16.5,352.667 12.6667,356.5 3.5,355C 1.92975,353.603 0.596413,352.103 -0.5,350.5 Z"/></g>
<g><path style="opacity:1" fill="#110f8d" d="M 61.5,339.5 C 69.6577,338.823 73.1577,342.49 72,350.5C 69.5647,355.224 65.7314,356.724 60.5,355C 55.0344,349.434 55.3678,344.267 61.5,339.5 Z"/></g>
<g><path style="opacity:1" fill="#110f8d" d="M 118.5,339.5 C 126.511,338.852 130.011,342.519 129,350.5C 126.459,355.069 122.625,356.569 117.5,355C 113.723,352.089 112.556,348.256 114,343.5C 115.397,341.93 116.897,340.596 118.5,339.5 Z"/></g>
<g><path style="opacity:1" fill="#110f8d" d="M 174.5,339.5 C 185.3,339.766 188.3,344.6 183.5,354C 174.707,357.534 170.207,354.701 170,345.5C 171.332,343.34 172.832,341.34 174.5,339.5 Z"/></g>
<g><path style="opacity:1" fill="#110f8d" d="M 231.5,339.5 C 240.207,339.037 243.707,343.037 242,351.5C 239.398,355.212 235.898,356.378 231.5,355C 227.139,352.774 225.639,349.274 227,344.5C 228.025,342.313 229.525,340.646 231.5,339.5 Z"/></g>
<g><path style="opacity:1" fill="#110f8d" d="M 288.5,339.5 C 297.153,338.987 300.653,342.987 299,351.5C 294,356.833 289,356.833 284,351.5C 282.474,346.239 283.974,342.239 288.5,339.5 Z"/></g>
<g><path style="opacity:1" fill="#110f8d" d="M 345.5,339.5 C 353.658,338.823 357.158,342.49 356,350.5C 353.565,355.224 349.731,356.724 344.5,355C 338.939,349.353 339.272,344.186 345.5,339.5 Z"/></g>
<g><path style="opacity:1" fill="#110f8d" d="M 406.5,339.5 C 415.207,339.037 418.707,343.037 417,351.5C 414.045,355.277 410.212,356.443 405.5,355C 399.974,349.357 400.308,344.19 406.5,339.5 Z"/></g>
<g><path style="opacity:1" fill="#110f8d" d="M 463.5,339.5 C 471.658,338.823 475.158,342.49 474,350.5C 471.565,355.224 467.731,356.724 462.5,355C 457.034,349.434 457.368,344.267 463.5,339.5 Z"/></g>
<g><path style="opacity:1" fill="#110f8d" d="M 520.5,339.5 C 528.511,338.852 532.011,342.519 531,350.5C 528.459,355.069 524.625,356.569 519.5,355C 515.723,352.089 514.556,348.256 516,343.5C 517.397,341.93 518.897,340.596 520.5,339.5 Z"/></g>
<g><path style="opacity:1" fill="#110f8d" d="M 576.5,339.5 C 587.3,339.766 590.3,344.6 585.5,354C 576.707,357.534 572.207,354.701 572,345.5C 573.332,343.34 574.832,341.34 576.5,339.5 Z"/></g>
<g><path style="opacity:1" fill="#110f8d" d="M 633.5,339.5 C 642.207,339.037 645.707,343.037 644,351.5C 641.398,355.212 637.898,356.378 633.5,355C 629.139,352.774 627.639,349.274 629,344.5C 630.025,342.313 631.525,340.646 633.5,339.5 Z"/></g>
<g><path style="opacity:1" fill="#110f8d" d="M 690.5,339.5 C 699.153,338.987 702.653,342.987 701,351.5C 696,356.833 691,356.833 686,351.5C 684.474,346.239 685.974,342.239 690.5,339.5 Z"/></g>
<g><path style="opacity:1" fill="#110f8d" d="M 758.5,344.5 C 758.5,346.5 758.5,348.5 758.5,350.5C 753.814,356.728 748.647,357.061 743,351.5C 741.283,342.884 744.783,339.051 753.5,340C 755.687,341.025 757.354,342.525 758.5,344.5 Z"/></g>
<g><path style="opacity:1" fill="#110f8d" d="M -0.5,407.5 C -0.5,405.5 -0.5,403.5 -0.5,401.5C 4.26731,395.368 9.43397,395.034 15,400.5C 16.7172,409.116 13.2172,412.949 4.5,412C 2.31305,410.975 0.646381,409.475 -0.5,407.5 Z"/></g>
<g><path style="opacity:1" fill="#110f8d" d="M 60.5,396.5 C 67.4901,394.838 71.4901,397.505 72.5,404.5C 72.1667,409.5 69.5,412.167 64.5,412.5C 57.7268,411.303 55.2268,407.303 57,400.5C 58.3756,399.295 59.5423,397.962 60.5,396.5 Z"/></g>
<g><path style="opacity:1" fill="#110f8d" d="M 117.5,396.5 C 128.832,396.344 131.832,401.177 126.5,411C 116.846,414.012 112.68,410.512 114,400.5C 115.376,399.295 116.542,397.962 117.5,396.5 Z"/></g>
<g><path style="opacity:1" fill="#110f8d" d="M 174.5,396.5 C 181.237,395.195 185.237,397.862 186.5,404.5C 184.891,410.957 180.891,413.457 174.5,412C 167.933,406.792 167.933,401.625 174.5,396.5 Z"/></g>
<g><path style="opacity:1" fill="#110f8d" d="M 231.5,396.5 C 240.152,395.986 243.652,399.986 242,408.5C 236.514,414.08 231.514,413.747 227,407.5C 225.776,402.626 227.276,398.959 231.5,396.5 Z"/></g>
<g><path style="opacity:1" fill="#110f8d" d="M 287.5,396.5 C 294.49,394.838 298.49,397.505 299.5,404.5C 299.167,409.5 296.5,412.167 291.5,412.5C 285.041,411.592 282.541,407.926 284,401.5C 284.997,399.677 286.164,398.01 287.5,396.5 Z"/></g>
<g><path style="opacity:1" fill="#110f8d" d="M 344.5,396.5 C 351.304,395.221 355.304,397.888 356.5,404.5C 355.592,410.959 351.926,413.459 345.5,412C 340.776,409.565 339.276,405.731 341,400.5C 342.376,399.295 343.542,397.962 344.5,396.5 Z"/></g>
<g><path style="opacity:1" fill="#110f8d" d="M 406.5,396.5 C 415.152,395.986 418.652,399.986 417,408.5C 411.514,414.08 406.514,413.747 402,407.5C 400.776,402.626 402.276,398.959 406.5,396.5 Z"/></g>
<g><path style="opacity:1" fill="#110f8d" d="M 462.5,396.5 C 469.49,394.838 473.49,397.505 474.5,404.5C 474.167,409.5 471.5,412.167 466.5,412.5C 459.727,411.303 457.227,407.303 459,400.5C 460.376,399.295 461.542,397.962 462.5,396.5 Z"/></g>
<g><path style="opacity:1" fill="#110f8d" d="M 519.5,396.5 C 530.832,396.344 533.832,401.177 528.5,411C 518.846,414.012 514.68,410.512 516,400.5C 517.376,399.295 518.542,397.962 519.5,396.5 Z"/></g>
<g><path style="opacity:1" fill="#110f8d" d="M 576.5,396.5 C 583.237,395.195 587.237,397.862 588.5,404.5C 586.891,410.957 582.891,413.457 576.5,412C 569.933,406.792 569.933,401.625 576.5,396.5 Z"/></g>
<g><path style="opacity:1" fill="#110f8d" d="M 633.5,396.5 C 642.152,395.986 645.652,399.986 644,408.5C 638.514,414.08 633.514,413.747 629,407.5C 627.776,402.626 629.276,398.959 633.5,396.5 Z"/></g>
<g><path style="opacity:1" fill="#110f8d" d="M 689.5,396.5 C 696.49,394.838 700.49,397.505 701.5,404.5C 701.167,409.5 698.5,412.167 693.5,412.5C 687.041,411.592 684.541,407.926 686,401.5C 686.997,399.677 688.164,398.01 689.5,396.5 Z"/></g>
<g><path style="opacity:1" fill="#110f8d" d="M 758.5,401.5 C 758.5,403.5 758.5,405.5 758.5,407.5C 753.81,413.692 748.643,414.026 743,408.5C 741.336,399.834 744.836,396 753.5,397C 755.687,398.025 757.354,399.525 758.5,401.5 Z"/></g>
<g><path style="opacity:1" fill="#110f8d" d="M -0.5,464.5 C -0.5,462.5 -0.5,460.5 -0.5,458.5C 3.24738,453.084 8.08072,452.084 14,455.5C 16.7757,461.134 15.609,465.634 10.5,469C 5.90734,469.702 2.24068,468.202 -0.5,464.5 Z"/></g>
<g><path style="opacity:1" fill="#110f8d" d="M 60.5,453.5 C 71.055,452.871 74.3883,457.371 70.5,467C 60.5443,471.571 56.0443,468.405 57,457.5C 58.3756,456.295 59.5423,454.962 60.5,453.5 Z"/></g>
<g><path style="opacity:1" fill="#110f8d" d="M 117.5,453.5 C 127.002,452.493 130.502,456.493 128,465.5C 123.333,470.833 118.667,470.833 114,465.5C 112.593,460.556 113.759,456.556 117.5,453.5 Z"/></g>
<g><path style="opacity:1" fill="#110f8d" d="M 173.5,453.5 C 180.581,451.559 184.914,454.059 186.5,461C 183.475,470.201 178.309,471.701 171,465.5C 169.015,460.945 169.849,456.945 173.5,453.5 Z"/></g>
<g><path style="opacity:1" fill="#110f8d" d="M 230.5,453.5 C 240.33,451.829 244.163,455.829 242,465.5C 237.828,470.368 233.328,470.702 228.5,466.5C 225.547,461.6 226.214,457.267 230.5,453.5 Z"/></g>
<g><path style="opacity:1" fill="#110f8d" d="M 287.5,453.5 C 296.158,452.327 299.992,455.994 299,464.5C 295.086,470.142 290.42,470.809 285,466.5C 282.458,461.438 283.292,457.105 287.5,453.5 Z"/></g>
<g><path style="opacity:1" fill="#110f8d" d="M 344.5,453.5 C 355.63,453.106 358.63,457.773 353.5,467.5C 343.888,471.058 339.721,467.724 341,457.5C 341.69,455.65 342.856,454.316 344.5,453.5 Z"/></g>
<g><path style="opacity:1" fill="#110f8d" d="M 405.5,453.5 C 409.257,453.071 412.757,453.737 416,455.5C 418.303,460.038 417.803,464.205 414.5,468C 405.758,470.721 401.592,467.554 402,458.5C 402.997,456.677 404.164,455.01 405.5,453.5 Z"/></g>
<g><path style="opacity:1" fill="#110f8d" d="M 462.5,453.5 C 473.055,452.871 476.388,457.371 472.5,467C 462.544,471.571 458.044,468.405 459,457.5C 460.376,456.295 461.542,454.962 462.5,453.5 Z"/></g>
<g><path style="opacity:1" fill="#110f8d" d="M 519.5,453.5 C 529.002,452.493 532.502,456.493 530,465.5C 525.333,470.833 520.667,470.833 516,465.5C 514.593,460.556 515.759,456.556 519.5,453.5 Z"/></g>
<g><path style="opacity:1" fill="#110f8d" d="M 575.5,453.5 C 582.581,451.559 586.914,454.059 588.5,461C 585.475,470.201 580.309,471.701 573,465.5C 571.015,460.945 571.849,456.945 575.5,453.5 Z"/></g>
<g><path style="opacity:1" fill="#110f8d" d="M 632.5,453.5 C 642.33,451.829 646.163,455.829 644,465.5C 639.828,470.368 635.328,470.702 630.5,466.5C 627.547,461.6 628.214,457.267 632.5,453.5 Z"/></g>
<g><path style="opacity:1" fill="#110f8d" d="M 689.5,453.5 C 698.158,452.327 701.992,455.994 701,464.5C 697.086,470.142 692.42,470.809 687,466.5C 684.458,461.438 685.292,457.105 689.5,453.5 Z"/></g>
<g><path style="opacity:1" fill="#110f8d" d="M 758.5,458.5 C 758.5,460.167 758.5,461.833 758.5,463.5C 754.179,470.463 749.012,471.13 743,465.5C 740.833,455.667 744.667,451.833 754.5,454C 756.07,455.397 757.404,456.897 758.5,458.5 Z"/></g>
<g><path style="opacity:1" fill="#110f8d" d="M 65.5,526.5 C 64.8333,526.5 64.1667,526.5 63.5,526.5C 56.5727,524.068 54.7393,519.401 58,512.5C 62.1667,508.583 66.3334,508.583 70.5,512.5C 74.2689,519.155 72.6023,523.821 65.5,526.5 Z"/></g>
<g><path style="opacity:1" fill="#110f8d" d="M 122.5,526.5 C 121.833,526.5 121.167,526.5 120.5,526.5C 114.189,524.548 112.022,520.215 114,513.5C 121.352,507.297 126.518,508.797 129.5,518C 128.744,522.246 126.411,525.079 122.5,526.5 Z"/></g>
<g><path style="opacity:1" fill="#110f8d" d="M 179.5,526.5 C 178.5,526.5 177.5,526.5 176.5,526.5C 170.498,524.008 168.665,519.674 171,513.5C 174.139,509.423 177.972,508.59 182.5,511C 188.064,517.467 187.064,522.634 179.5,526.5 Z"/></g>
<g><path style="opacity:1" fill="#110f8d" d="M 235.5,526.5 C 234.833,526.5 234.167,526.5 233.5,526.5C 227.283,524.062 225.449,519.729 228,513.5C 232.003,508.58 236.337,508.247 241,512.5C 244.261,519.401 242.427,524.068 235.5,526.5 Z"/></g>
<g><path style="opacity:1" fill="#110f8d" d="M 293.5,526.5 C 292.167,526.5 290.833,526.5 289.5,526.5C 283.498,523.467 281.998,518.8 285,512.5C 289.333,508.5 293.667,508.5 298,512.5C 301.002,518.8 299.502,523.467 293.5,526.5 Z"/></g>
<g><path style="opacity:1" fill="#110f8d" d="M 349.5,526.5 C 348.833,526.5 348.167,526.5 347.5,526.5C 340.573,524.068 338.739,519.401 342,512.5C 349.237,507.696 354.071,509.529 356.5,518C 355.744,522.246 353.411,525.079 349.5,526.5 Z"/></g>
<g><path style="opacity:1" fill="#110f8d" d="M 410.5,526.5 C 409.833,526.5 409.167,526.5 408.5,526.5C 402.965,524.435 400.798,520.435 402,514.5C 406.044,508.816 410.711,508.149 416,512.5C 419.261,519.401 417.427,524.068 410.5,526.5 Z"/></g>
<g><path style="opacity:1" fill="#110f8d" d="M 467.5,526.5 C 466.833,526.5 466.167,526.5 465.5,526.5C 458.573,524.068 456.739,519.401 460,512.5C 464.167,508.583 468.333,508.583 472.5,512.5C 476.269,519.155 474.602,523.821 467.5,526.5 Z"/></g>
<g><path style="opacity:1" fill="#110f8d" d="M 524.5,526.5 C 523.833,526.5 523.167,526.5 522.5,526.5C 516.189,524.548 514.022,520.215 516,513.5C 523.352,507.297 528.518,508.797 531.5,518C 530.744,522.246 528.411,525.079 524.5,526.5 Z"/></g>
<g><path style="opacity:1" fill="#110f8d" d="M 581.5,526.5 C 580.5,526.5 579.5,526.5 578.5,526.5C 572.498,524.008 570.665,519.674 573,513.5C 576.139,509.423 579.972,508.59 584.5,511C 590.064,517.467 589.064,522.634 581.5,526.5 Z"/></g>
<g><path style="opacity:1" fill="#110f8d" d="M 637.5,526.5 C 636.833,526.5 636.167,526.5 635.5,526.5C 629.283,524.062 627.449,519.729 630,513.5C 634.003,508.58 638.337,508.247 643,512.5C 646.261,519.401 644.427,524.068 637.5,526.5 Z"/></g>
<g><path style="opacity:1" fill="#110f8d" d="M 695.5,526.5 C 694.167,526.5 692.833,526.5 691.5,526.5C 685.498,523.467 683.998,518.8 687,512.5C 691.333,508.5 695.667,508.5 700,512.5C 703.002,518.8 701.502,523.467 695.5,526.5 Z"/></g>
</svg>
