<?xml version="1.0" encoding="UTF-8"?>
<!DOCTYPE svg PUBLIC "-//W3C//DTD SVG 1.1//EN" "http://www.w3.org/Graphics/SVG/1.1/DTD/svg11.dtd">
<svg xmlns="http://www.w3.org/2000/svg" version="1.1" width="402px" height="404px" style="shape-rendering:geometricPrecision; text-rendering:geometricPrecision; image-rendering:optimizeQuality; fill-rule:evenodd; clip-rule:evenodd" xmlns:xlink="http://www.w3.org/1999/xlink">
<g><path style="opacity:0.833" fill="#110f8d" d="M -0.5,20.5 C -0.5,19.5 -0.5,18.5 -0.5,17.5C 4.96252,10.532 9.62919,11.032 13.5,19C 11.6492,25.9484 7.6492,27.615 1.5,24C 0.915201,22.6976 0.248534,21.531 -0.5,20.5 Z"/></g>
<g><path style="opacity:0.827" fill="#110f8d" d="M 35.5,12.5 C 43.0182,12.8875 45.5182,16.5542 43,23.5C 40.145,26.3603 36.9783,26.8603 33.5,25C 29.2765,20.059 29.9431,15.8924 35.5,12.5 Z"/></g>
<g><path style="opacity:0.833" fill="#110f8d" d="M 66.5,12.5 C 74.0182,12.8875 76.5182,16.5542 74,23.5C 68.1079,27.703 63.9412,26.3696 61.5,19.5C 62.0599,16.288 63.7266,13.9547 66.5,12.5 Z"/></g>
<g><path style="opacity:0.832" fill="#110f8d" d="M 96.5,12.5 C 105.602,12.8775 107.935,16.8775 103.5,24.5C 97.5418,27.5213 93.8752,25.688 92.5,19C 93.2054,16.4582 94.5387,14.2916 96.5,12.5 Z"/></g>
<g><path style="opacity:0.844" fill="#110f8d" d="M 127.5,12.5 C 134.88,12.043 137.713,15.3763 136,22.5C 132,27.8333 128,27.8333 124,22.5C 123.333,20.5 123.333,18.5 124,16.5C 125.376,15.2949 126.542,13.9616 127.5,12.5 Z"/></g>
<g><path style="opacity:0.844" fill="#110f8d" d="M 158.5,12.5 C 165.771,12.0357 168.604,15.3691 167,22.5C 163,27.8333 159,27.8333 155,22.5C 153.755,18.2353 154.922,14.902 158.5,12.5 Z"/></g>
<g><path style="opacity:0.856" fill="#110f8d" d="M 189.5,12.5 C 199.133,12.9184 201.466,17.085 196.5,25C 188.831,27.3318 185.331,24.4985 186,16.5C 186.69,14.6498 187.856,13.3164 189.5,12.5 Z"/></g>
<g><path style="opacity:0.856" fill="#110f8d" d="M 220.5,12.5 C 225.955,11.8882 229.288,14.2215 230.5,19.5C 229.781,23.7185 227.281,26.0518 223,26.5C 217.129,24.9591 215.129,21.2924 217,15.5C 218.145,14.3636 219.312,13.3636 220.5,12.5 Z"/></g>
<g><path style="opacity:0.833" fill="#110f8d" d="M 252.5,12.5 C 260.018,12.8875 262.518,16.5542 260,23.5C 254.108,27.703 249.941,26.3696 247.5,19.5C 248.06,16.288 249.727,13.9547 252.5,12.5 Z"/></g>
<g><path style="opacity:0.832" fill="#110f8d" d="M 282.5,12.5 C 291.602,12.8775 293.935,16.8775 289.5,24.5C 283.542,27.5213 279.875,25.688 278.5,19C 279.205,16.4582 280.539,14.2916 282.5,12.5 Z"/></g>
<g><path style="opacity:0.844" fill="#110f8d" d="M 313.5,12.5 C 320.88,12.043 323.713,15.3763 322,22.5C 318,27.8333 314,27.8333 310,22.5C 309.333,20.5 309.333,18.5 310,16.5C 311.376,15.2949 312.542,13.9616 313.5,12.5 Z"/></g>
<g><path style="opacity:0.844" fill="#110f8d" d="M 344.5,12.5 C 351.771,12.0357 354.604,15.3691 353,22.5C 349,27.8333 345,27.8333 341,22.5C 339.755,18.2353 340.922,14.902 344.5,12.5 Z"/></g>
<g><path style="opacity:0.844" fill="#110f8d" d="M 375.5,12.5 C 382.484,12.3167 385.317,15.65 384,22.5C 380,27.8333 376,27.8333 372,22.5C 370.756,18.191 371.923,14.8577 375.5,12.5 Z"/></g>
<g><path style="opacity:0.832" fill="#110f8d" d="M -0.5,60.5 C -0.5,59.5 -0.5,58.5 -0.5,57.5C 5.06418,50.3826 9.73085,50.8826 13.5,59C 12.0553,65.5282 8.3886,67.3615 2.5,64.5C 1.47934,63.0986 0.479345,61.7653 -0.5,60.5 Z"/></g>
<g><path style="opacity:0.838" fill="#110f8d" d="M 35.5,52.5 C 43.0182,52.8875 45.5182,56.5542 43,63.5C 37.219,67.5357 33.0523,66.2024 30.5,59.5C 31.0599,56.288 32.7266,53.9547 35.5,52.5 Z"/></g>
<g><path style="opacity:0.826" fill="#110f8d" d="M 65.5,52.5 C 73.5581,52.3729 76.3915,56.0396 74,63.5C 68.1079,67.703 63.9412,66.3696 61.5,59.5C 62.0707,56.6873 63.4041,54.354 65.5,52.5 Z"/></g>
<g><path style="opacity:0.832" fill="#110f8d" d="M 96.5,52.5 C 104.783,52.4194 107.45,56.086 104.5,63.5C 99.9594,67.3832 96.1261,66.7165 93,61.5C 92.3333,59.8333 92.3333,58.1667 93,56.5C 94.3756,55.2949 95.5423,53.9616 96.5,52.5 Z"/></g>
<g><path style="opacity:0.85" fill="#110f8d" d="M 127.5,52.5 C 134.88,52.043 137.713,55.3763 136,62.5C 132.074,67.5573 128.074,67.5573 124,62.5C 123.333,60.5 123.333,58.5 124,56.5C 125.376,55.2949 126.542,53.9616 127.5,52.5 Z"/></g>
<g><path style="opacity:0.845" fill="#110f8d" d="M 158.5,52.5 C 165.771,52.0357 168.604,55.3691 167,62.5C 163.074,67.5573 159.074,67.5573 155,62.5C 153.756,58.191 154.923,54.8577 158.5,52.5 Z"/></g>
<g><path style="opacity:0.851" fill="#110f8d" d="M 189.5,52.5 C 196.164,52.0002 199.331,55.0002 199,61.5C 195.104,67.465 190.77,67.7983 186,62.5C 184.756,58.191 185.923,54.8577 189.5,52.5 Z"/></g>
<g><path style="opacity:0.862" fill="#110f8d" d="M 220.5,52.5 C 229.055,52.5255 231.721,56.3589 228.5,64C 219.942,67.7871 216.108,64.9537 217,55.5C 218.145,54.3636 219.312,53.3636 220.5,52.5 Z"/></g>
<g><path style="opacity:0.826" fill="#110f8d" d="M 251.5,52.5 C 259.558,52.3729 262.391,56.0396 260,63.5C 254.108,67.703 249.941,66.3696 247.5,59.5C 248.071,56.6873 249.404,54.354 251.5,52.5 Z"/></g>
<g><path style="opacity:0.832" fill="#110f8d" d="M 282.5,52.5 C 290.783,52.4194 293.45,56.086 290.5,63.5C 285.959,67.3832 282.126,66.7165 279,61.5C 278.333,59.8333 278.333,58.1667 279,56.5C 280.376,55.2949 281.542,53.9616 282.5,52.5 Z"/></g>
<g><path style="opacity:0.85" fill="#110f8d" d="M 313.5,52.5 C 320.88,52.043 323.713,55.3763 322,62.5C 318.074,67.5573 314.074,67.5573 310,62.5C 309.333,60.5 309.333,58.5 310,56.5C 311.376,55.2949 312.542,53.9616 313.5,52.5 Z"/></g>
<g><path style="opacity:0.845" fill="#110f8d" d="M 344.5,52.5 C 351.771,52.0357 354.604,55.3691 353,62.5C 349.074,67.5573 345.074,67.5573 341,62.5C 339.756,58.191 340.923,54.8577 344.5,52.5 Z"/></g>
<g><path style="opacity:0.839" fill="#110f8d" d="M 375.5,52.5 C 382.771,52.0357 385.604,55.3691 384,62.5C 380,67.8333 376,67.8333 372,62.5C 370.756,58.191 371.923,54.8577 375.5,52.5 Z"/></g>
<g><path style="opacity:0.832" fill="#110f8d" d="M -0.5,100.5 C -0.5,99.5 -0.5,98.5 -0.5,97.5C 5.06418,90.3826 9.73085,90.8826 13.5,99C 12.0553,105.528 8.3886,107.361 2.5,104.5C 1.47934,103.099 0.479345,101.765 -0.5,100.5 Z"/></g>
<g><path style="opacity:0.826" fill="#110f8d" d="M 34.5,92.5 C 42.5007,92.3229 45.3341,95.9895 43,103.5C 37.219,107.536 33.0523,106.202 30.5,99.5C 31.0707,96.6873 32.4041,94.354 34.5,92.5 Z"/></g>
<g><path style="opacity:0.837" fill="#110f8d" d="M 65.5,92.5 C 73.7832,92.4194 76.4498,96.086 73.5,103.5C 69.0118,107.365 65.1785,106.698 62,101.5C 61.3333,99.8333 61.3333,98.1667 62,96.5C 63.3756,95.2949 64.5423,93.9616 65.5,92.5 Z"/></g>
<g><path style="opacity:0.843" fill="#110f8d" d="M 96.5,92.5 C 104.064,92.21 106.897,95.5434 105,102.5C 101.473,106.822 97.8062,107.155 94,103.5C 91.5841,99.0776 92.4175,95.4109 96.5,92.5 Z"/></g>
<g><path style="opacity:0.85" fill="#110f8d" d="M 127.5,92.5 C 134.88,92.043 137.713,95.3763 136,102.5C 132.473,106.822 128.806,107.155 125,103.5C 122.6,98.9898 123.433,95.3231 127.5,92.5 Z"/></g>
<g><path style="opacity:0.845" fill="#110f8d" d="M 158.5,92.5 C 165.88,92.043 168.713,95.3763 167,102.5C 163,107.833 159,107.833 155,102.5C 153.756,98.191 154.923,94.8577 158.5,92.5 Z"/></g>
<g><path style="opacity:0.857" fill="#110f8d" d="M 189.5,92.5 C 196.164,92.0002 199.331,95.0002 199,101.5C 195.14,107.59 190.807,107.923 186,102.5C 184.756,98.191 185.923,94.8577 189.5,92.5 Z"/></g>
<g><path style="opacity:0.862" fill="#110f8d" d="M 220.5,92.5 C 228.501,92.3229 231.334,95.9895 229,103.5C 224.717,107.377 220.717,107.044 217,102.5C 215.581,98.0823 216.748,94.7489 220.5,92.5 Z"/></g>
<g><path style="opacity:0.837" fill="#110f8d" d="M 251.5,92.5 C 259.783,92.4194 262.45,96.086 259.5,103.5C 255.012,107.365 251.178,106.698 248,101.5C 247.333,99.8333 247.333,98.1667 248,96.5C 249.376,95.2949 250.542,93.9616 251.5,92.5 Z"/></g>
<g><path style="opacity:0.843" fill="#110f8d" d="M 282.5,92.5 C 290.064,92.21 292.897,95.5434 291,102.5C 287.473,106.822 283.806,107.155 280,103.5C 277.584,99.0776 278.417,95.4109 282.5,92.5 Z"/></g>
<g><path style="opacity:0.85" fill="#110f8d" d="M 313.5,92.5 C 320.88,92.043 323.713,95.3763 322,102.5C 318.473,106.822 314.806,107.155 311,103.5C 308.6,98.9898 309.433,95.3231 313.5,92.5 Z"/></g>
<g><path style="opacity:0.845" fill="#110f8d" d="M 344.5,92.5 C 351.88,92.043 354.713,95.3763 353,102.5C 349,107.833 345,107.833 341,102.5C 339.756,98.191 340.923,94.8577 344.5,92.5 Z"/></g>
<g><path style="opacity:0.851" fill="#110f8d" d="M 375.5,92.5 C 382.771,92.0357 385.604,95.3691 384,102.5C 380,107.833 376,107.833 372,102.5C 370.756,98.191 371.923,94.8577 375.5,92.5 Z"/></g>
<g><path style="opacity:0.849" fill="#110f8d" d="M -0.5,140.5 C -0.5,139.5 -0.5,138.5 -0.5,137.5C 1.45001,133.071 4.78334,131.571 9.5,133C 13.9019,136.008 14.5686,139.675 11.5,144C 6.24829,146.745 2.24829,145.578 -0.5,140.5 Z"/></g>
<g><path style="opacity:0.843" fill="#110f8d" d="M 34.5,132.5 C 42.9944,132.475 45.661,136.308 42.5,144C 35.2618,147.307 31.4285,145.14 31,137.5C 31.9973,135.677 33.1639,134.01 34.5,132.5 Z"/></g>
<g><path style="opacity:0.843" fill="#110f8d" d="M 65.5,132.5 C 70.7936,131.624 74.1269,133.791 75.5,139C 73.2724,145.684 69.1057,147.184 63,143.5C 60.5841,139.078 61.4175,135.411 65.5,132.5 Z"/></g>
<g><path style="opacity:0.855" fill="#110f8d" d="M 96.5,132.5 C 102.688,131.867 105.855,134.534 106,140.5C 104.287,145.038 101.12,146.538 96.5,145C 93.0093,143.179 91.8426,140.346 93,136.5C 94.3756,135.295 95.5423,133.962 96.5,132.5 Z"/></g>
<g><path style="opacity:0.856" fill="#110f8d" d="M 127.5,132.5 C 134.88,132.043 137.713,135.376 136,142.5C 133.441,145.349 130.274,146.183 126.5,145C 122.334,140.368 122.667,136.202 127.5,132.5 Z"/></g>
<g><path style="opacity:0.851" fill="#110f8d" d="M 158.5,132.5 C 165.88,132.043 168.713,135.376 167,142.5C 163,146.5 159,146.5 155,142.5C 153.756,138.191 154.923,134.858 158.5,132.5 Z"/></g>
<g><path style="opacity:0.869" fill="#110f8d" d="M 189.5,132.5 C 198.049,132.521 200.716,136.354 197.5,144C 188.763,147.586 184.93,144.752 186,135.5C 187.145,134.364 188.312,133.364 189.5,132.5 Z"/></g>
<g><path style="opacity:0.874" fill="#110f8d" d="M 220.5,132.5 C 228.994,132.475 231.661,136.308 228.5,144C 219.763,147.586 215.93,144.752 217,135.5C 218.145,134.364 219.312,133.364 220.5,132.5 Z"/></g>
<g><path style="opacity:0.843" fill="#110f8d" d="M 251.5,132.5 C 256.794,131.624 260.127,133.791 261.5,139C 259.272,145.684 255.106,147.184 249,143.5C 246.584,139.078 247.417,135.411 251.5,132.5 Z"/></g>
<g><path style="opacity:0.855" fill="#110f8d" d="M 282.5,132.5 C 288.688,131.867 291.855,134.534 292,140.5C 290.287,145.038 287.12,146.538 282.5,145C 279.009,143.179 277.843,140.346 279,136.5C 280.376,135.295 281.542,133.962 282.5,132.5 Z"/></g>
<g><path style="opacity:0.856" fill="#110f8d" d="M 313.5,132.5 C 320.88,132.043 323.713,135.376 322,142.5C 319.441,145.349 316.274,146.183 312.5,145C 308.334,140.368 308.667,136.202 313.5,132.5 Z"/></g>
<g><path style="opacity:0.851" fill="#110f8d" d="M 344.5,132.5 C 351.88,132.043 354.713,135.376 353,142.5C 349,146.5 345,146.5 341,142.5C 339.756,138.191 340.923,134.858 344.5,132.5 Z"/></g>
<g><path style="opacity:0.851" fill="#110f8d" d="M 375.5,132.5 C 382.771,132.036 385.604,135.369 384,142.5C 380,146.5 376,146.5 372,142.5C 370.581,138.082 371.748,134.749 375.5,132.5 Z"/></g>
<g><path style="opacity:0.85" fill="#110f8d" d="M -0.5,180.5 C -0.5,179.5 -0.5,178.5 -0.5,177.5C 1.45001,173.071 4.78334,171.571 9.5,173C 13.9019,176.008 14.5686,179.675 11.5,184C 6.24829,186.745 2.24829,185.578 -0.5,180.5 Z"/></g>
<g><path style="opacity:0.844" fill="#110f8d" d="M 34.5,172.5 C 43.049,172.521 45.7157,176.354 42.5,184C 36.4318,187.11 32.4318,185.443 30.5,179C 31.25,176.429 32.5833,174.262 34.5,172.5 Z"/></g>
<g><path style="opacity:0.849" fill="#110f8d" d="M 65.5,172.5 C 71.6408,171.816 74.8075,174.483 75,180.5C 73.2871,185.038 70.1205,186.538 65.5,185C 62.0093,183.179 60.8426,180.346 62,176.5C 63.3756,175.295 64.5423,173.962 65.5,172.5 Z"/></g>
<g><path style="opacity:0.838" fill="#110f8d" d="M 96.5,172.5 C 102.641,171.816 105.808,174.483 106,180.5C 104.287,185.038 101.12,186.538 96.5,185C 91.232,180.837 91.232,176.671 96.5,172.5 Z"/></g>
<g><path style="opacity:0.862" fill="#110f8d" d="M 127.5,172.5 C 134.88,172.043 137.713,175.376 136,182.5C 131.601,186.654 127.601,186.321 124,181.5C 122.98,177.553 124.147,174.553 127.5,172.5 Z"/></g>
<g><path style="opacity:0.85" fill="#110f8d" d="M 158.5,172.5 C 165.88,172.043 168.713,175.376 167,182.5C 163,186.5 159,186.5 155,182.5C 153.756,178.191 154.923,174.858 158.5,172.5 Z"/></g>
<g><path style="opacity:0.87" fill="#110f8d" d="M 189.5,172.5 C 198.049,172.521 200.716,176.354 197.5,184C 188.763,187.586 184.93,184.752 186,175.5C 187.145,174.364 188.312,173.364 189.5,172.5 Z"/></g>
<g><path style="opacity:0.869" fill="#110f8d" d="M 220.5,172.5 C 229.049,172.521 231.716,176.354 228.5,184C 219.763,187.586 215.93,184.752 217,175.5C 218.145,174.364 219.312,173.364 220.5,172.5 Z"/></g>
<g><path style="opacity:0.849" fill="#110f8d" d="M 251.5,172.5 C 257.641,171.816 260.808,174.483 261,180.5C 259.287,185.038 256.12,186.538 251.5,185C 248.009,183.179 246.843,180.346 248,176.5C 249.376,175.295 250.542,173.962 251.5,172.5 Z"/></g>
<g><path style="opacity:0.838" fill="#110f8d" d="M 282.5,172.5 C 288.641,171.816 291.808,174.483 292,180.5C 290.287,185.038 287.12,186.538 282.5,185C 277.232,180.837 277.232,176.671 282.5,172.5 Z"/></g>
<g><path style="opacity:0.862" fill="#110f8d" d="M 313.5,172.5 C 320.88,172.043 323.713,175.376 322,182.5C 317.601,186.654 313.601,186.321 310,181.5C 308.98,177.553 310.147,174.553 313.5,172.5 Z"/></g>
<g><path style="opacity:0.85" fill="#110f8d" d="M 344.5,172.5 C 351.88,172.043 354.713,175.376 353,182.5C 349,186.5 345,186.5 341,182.5C 339.756,178.191 340.923,174.858 344.5,172.5 Z"/></g>
<g><path style="opacity:0.85" fill="#110f8d" d="M 375.5,172.5 C 382.771,172.036 385.604,175.369 384,182.5C 380,186.5 376,186.5 372,182.5C 370.581,178.082 371.748,174.749 375.5,172.5 Z"/></g>
<g><path style="opacity:0.838" fill="#110f8d" d="M -0.5,220.5 C -0.5,219.5 -0.5,218.5 -0.5,217.5C 2.24829,212.422 6.24829,211.255 11.5,214C 15.2001,222.262 12.5334,225.929 3.5,225C 1.92975,223.603 0.596413,222.103 -0.5,220.5 Z"/></g>
<g><path style="opacity:0.856" fill="#110f8d" d="M 34.5,212.5 C 41.1643,212 44.331,215 44,221.5C 38.3043,227.411 33.8043,226.578 30.5,219C 31.25,216.429 32.5833,214.262 34.5,212.5 Z"/></g>
<g><path style="opacity:0.85" fill="#110f8d" d="M 65.5,212.5 C 71.6408,211.816 74.8075,214.483 75,220.5C 73.2871,225.038 70.1205,226.538 65.5,225C 62.0093,223.179 60.8426,220.346 62,216.5C 63.3756,215.295 64.5423,213.962 65.5,212.5 Z"/></g>
<g><path style="opacity:0.838" fill="#110f8d" d="M 96.5,212.5 C 102.641,211.816 105.808,214.483 106,220.5C 104.287,225.038 101.12,226.538 96.5,225C 91.232,220.837 91.232,216.671 96.5,212.5 Z"/></g>
<g><path style="opacity:0.856" fill="#110f8d" d="M 127.5,212.5 C 134.825,211.992 137.658,215.326 136,222.5C 131.601,226.654 127.601,226.321 124,221.5C 122.98,217.553 124.147,214.553 127.5,212.5 Z"/></g>
<g><path style="opacity:0.855" fill="#110f8d" d="M 158.5,212.5 C 165.88,212.043 168.713,215.376 167,222.5C 163.075,226.41 159.075,226.41 155,222.5C 153.756,218.191 154.923,214.858 158.5,212.5 Z"/></g>
<g><path style="opacity:0.858" fill="#110f8d" d="M 189.5,212.5 C 198.523,212.062 201.189,215.895 197.5,224C 188.763,227.586 184.93,224.752 186,215.5C 187.145,214.364 188.312,213.364 189.5,212.5 Z"/></g>
<g><path style="opacity:0.869" fill="#110f8d" d="M 219.5,212.5 C 226.669,211.513 230.169,214.513 230,221.5C 226.011,226.356 221.678,226.689 217,222.5C 215.861,218.579 216.695,215.246 219.5,212.5 Z"/></g>
<g><path style="opacity:0.85" fill="#110f8d" d="M 251.5,212.5 C 257.641,211.816 260.808,214.483 261,220.5C 259.287,225.038 256.12,226.538 251.5,225C 248.009,223.179 246.843,220.346 248,216.5C 249.376,215.295 250.542,213.962 251.5,212.5 Z"/></g>
<g><path style="opacity:0.838" fill="#110f8d" d="M 282.5,212.5 C 288.641,211.816 291.808,214.483 292,220.5C 290.287,225.038 287.12,226.538 282.5,225C 277.232,220.837 277.232,216.671 282.5,212.5 Z"/></g>
<g><path style="opacity:0.856" fill="#110f8d" d="M 313.5,212.5 C 320.825,211.992 323.658,215.326 322,222.5C 317.601,226.654 313.601,226.321 310,221.5C 308.98,217.553 310.147,214.553 313.5,212.5 Z"/></g>
<g><path style="opacity:0.855" fill="#110f8d" d="M 344.5,212.5 C 351.88,212.043 354.713,215.376 353,222.5C 349.075,226.41 345.075,226.41 341,222.5C 339.756,218.191 340.923,214.858 344.5,212.5 Z"/></g>
<g><path style="opacity:0.843" fill="#110f8d" d="M 375.5,212.5 C 382.88,212.043 385.713,215.376 384,222.5C 380,226.5 376,226.5 372,222.5C 370.581,218.082 371.748,214.749 375.5,212.5 Z"/></g>
<g><path style="opacity:0.917" fill="#110f8d" d="M -0.5,260.5 C -0.5,259.5 -0.5,258.5 -0.5,257.5C 1.65597,251.511 5.65597,250.011 11.5,253C 15.5301,261.622 12.8634,265.622 3.5,265C 1.92975,263.603 0.596413,262.103 -0.5,260.5 Z"/></g>
<g><path style="opacity:0.937" fill="#110f8d" d="M 34.5,251.5 C 41.9421,250.775 45.1088,254.109 44,261.5C 39.1553,267.079 34.822,266.746 31,260.5C 30.4807,256.868 31.6474,253.868 34.5,251.5 Z"/></g>
<g><path style="opacity:0.937" fill="#110f8d" d="M 65.5,251.5 C 72.1197,250.954 75.2864,253.954 75,260.5C 71.178,266.746 66.8447,267.079 62,261.5C 61.2049,257.434 62.3715,254.101 65.5,251.5 Z"/></g>
<g><path style="opacity:0.917" fill="#110f8d" d="M 96.5,251.5 C 102.24,250.735 105.573,253.235 106.5,259C 105.131,264.382 101.797,266.382 96.5,265C 92.8759,262.839 91.7093,259.672 93,255.5C 93.6897,253.65 94.8564,252.316 96.5,251.5 Z"/></g>
<g><path style="opacity:0.936" fill="#110f8d" d="M 126.5,251.5 C 134.829,250.664 137.995,254.33 136,262.5C 132.685,266.105 129.018,266.439 125,263.5C 122.784,259.132 123.284,255.132 126.5,251.5 Z"/></g>
<g><path style="opacity:0.939" fill="#110f8d" d="M 157.5,251.5 C 165.829,250.664 168.995,254.33 167,262.5C 163.685,266.105 160.018,266.439 156,263.5C 153.784,259.132 154.284,255.132 157.5,251.5 Z"/></g>
<g><path style="opacity:0.941" fill="#110f8d" d="M 188.5,251.5 C 198.525,250.731 201.525,254.898 197.5,264C 188.242,267.295 184.409,264.128 186,254.5C 187.045,253.627 187.878,252.627 188.5,251.5 Z"/></g>
<g><path style="opacity:0.946" fill="#110f8d" d="M 219.5,251.5 C 225.958,250.054 229.625,252.554 230.5,259C 228.996,264.82 225.329,266.82 219.5,265C 215.541,260.501 215.541,256.001 219.5,251.5 Z"/></g>
<g><path style="opacity:0.937" fill="#110f8d" d="M 251.5,251.5 C 258.12,250.954 261.286,253.954 261,260.5C 257.178,266.746 252.845,267.079 248,261.5C 247.205,257.434 248.372,254.101 251.5,251.5 Z"/></g>
<g><path style="opacity:0.917" fill="#110f8d" d="M 282.5,251.5 C 288.24,250.735 291.573,253.235 292.5,259C 291.131,264.382 287.797,266.382 282.5,265C 278.876,262.839 277.709,259.672 279,255.5C 279.69,253.65 280.856,252.316 282.5,251.5 Z"/></g>
<g><path style="opacity:0.936" fill="#110f8d" d="M 312.5,251.5 C 320.829,250.664 323.995,254.33 322,262.5C 318.685,266.105 315.018,266.439 311,263.5C 308.784,259.132 309.284,255.132 312.5,251.5 Z"/></g>
<g><path style="opacity:0.939" fill="#110f8d" d="M 343.5,251.5 C 351.829,250.664 354.995,254.33 353,262.5C 349.685,266.105 346.018,266.439 342,263.5C 339.784,259.132 340.284,255.132 343.5,251.5 Z"/></g>
<g><path style="opacity:0.939" fill="#110f8d" d="M 374.5,251.5 C 380.875,250.049 384.208,252.549 384.5,259C 384.379,263.121 382.212,265.288 378,265.5C 371.851,264.306 369.851,260.639 372,254.5C 373.045,253.627 373.878,252.627 374.5,251.5 Z"/></g>
<g><path style="opacity:1" fill="#110f8d" d="M 6.5,290.5 C 12.6368,292.107 14.4702,295.773 12,301.5C 6.01888,306.215 2.18554,304.881 0.5,297.5C 1.1,293.904 3.1,291.571 6.5,290.5 Z"/></g>
<g><path style="opacity:1" fill="#110f8d" d="M 37.5,290.5 C 44.2603,293.147 45.5936,297.313 41.5,303C 35.7676,305.467 32.1009,303.634 30.5,297.5C 31.5779,293.755 33.9112,291.422 37.5,290.5 Z"/></g>
<g><path style="opacity:1" fill="#110f8d" d="M 67.5,290.5 C 73.8132,291.937 75.9799,295.604 74,301.5C 68.3228,306.038 64.1561,304.871 61.5,298C 62,296.5 62.5,295 63,293.5C 64.6516,292.601 66.1516,291.601 67.5,290.5 Z"/></g>
<g><path style="opacity:1" fill="#110f8d" d="M 98.5,290.5 C 105.39,292.13 107.223,296.13 104,302.5C 98.1692,305.671 94.3359,304.005 92.5,297.5C 93.143,293.866 95.143,291.533 98.5,290.5 Z"/></g>
<g><path style="opacity:1" fill="#110f8d" d="M 129.5,290.5 C 135.129,291.623 137.296,294.956 136,300.5C 130.307,306.217 126.141,305.217 123.5,297.5C 124.143,293.866 126.143,291.533 129.5,290.5 Z"/></g>
<g><path style="opacity:1" fill="#110f8d" d="M 160.5,290.5 C 166.129,291.623 168.296,294.956 167,300.5C 161.55,306.128 157.384,305.295 154.5,298C 154.916,294.097 156.916,291.597 160.5,290.5 Z"/></g>
<g><path style="opacity:1" fill="#110f8d" d="M 191.5,290.5 C 198.351,291.546 200.518,295.213 198,301.5C 191.961,306.065 187.795,304.732 185.5,297.5C 186.1,293.904 188.1,291.571 191.5,290.5 Z"/></g>
<g><path style="opacity:1" fill="#110f8d" d="M 222.5,290.5 C 229.978,292.597 231.645,296.764 227.5,303C 219.842,305.343 216.342,302.51 217,294.5C 218.5,292.531 220.333,291.198 222.5,290.5 Z"/></g>
<g><path style="opacity:1" fill="#110f8d" d="M 253.5,290.5 C 259.813,291.937 261.98,295.604 260,301.5C 254.323,306.038 250.156,304.871 247.5,298C 248,296.5 248.5,295 249,293.5C 250.652,292.601 252.152,291.601 253.5,290.5 Z"/></g>
<g><path style="opacity:1" fill="#110f8d" d="M 284.5,290.5 C 291.39,292.13 293.223,296.13 290,302.5C 284.169,305.671 280.336,304.005 278.5,297.5C 279.143,293.866 281.143,291.533 284.5,290.5 Z"/></g>
<g><path style="opacity:1" fill="#110f8d" d="M 315.5,290.5 C 321.129,291.623 323.296,294.956 322,300.5C 316.307,306.217 312.141,305.217 309.5,297.5C 310.143,293.866 312.143,291.533 315.5,290.5 Z"/></g>
<g><path style="opacity:1" fill="#110f8d" d="M 346.5,290.5 C 352.129,291.623 354.296,294.956 353,300.5C 347.55,306.128 343.384,305.295 340.5,298C 340.916,294.097 342.916,291.597 346.5,290.5 Z"/></g>
<g><path style="opacity:1" fill="#110f8d" d="M 377.5,290.5 C 382.928,291.684 385.094,295.018 384,300.5C 378.239,306.191 374.072,305.191 371.5,297.5C 372.1,293.904 374.1,291.571 377.5,290.5 Z"/></g>
<g><path style="opacity:0.823" fill="#110f8d" d="M -0.5,339.5 C -0.5,338.5 -0.5,337.5 -0.5,336.5C 1.53886,331.15 5.20553,329.65 10.5,332C 15.102,337.977 13.7686,342.144 6.5,344.5C 3.28804,343.94 0.954709,342.273 -0.5,339.5 Z"/></g>
<g><path style="opacity:0.819" fill="#110f8d" d="M 35.5,330.5 C 43.0182,330.887 45.5182,334.554 43,341.5C 37.0225,346.102 32.8559,344.769 30.5,337.5C 31.0599,334.288 32.7266,331.955 35.5,330.5 Z"/></g>
<g><path style="opacity:0.907" fill="#110f8d" d="M 67.5,330.5 C 73.8443,331.868 76.011,335.535 74,341.5C 67.7291,346.121 63.5624,344.621 61.5,337C 62.3262,333.676 64.3262,331.51 67.5,330.5 Z"/></g>
<g><path style="opacity:1" fill="#110f8d" d="M 98.5,330.5 C 104.835,331.829 106.835,335.496 104.5,341.5C 98.6863,345.935 94.6863,344.601 92.5,337.5C 93.143,333.866 95.143,331.533 98.5,330.5 Z"/></g>
<g><path style="opacity:1" fill="#110f8d" d="M 129.5,330.5 C 135.134,331.627 137.301,334.96 136,340.5C 130.307,346.217 126.141,345.217 123.5,337.5C 124.143,333.866 126.143,331.533 129.5,330.5 Z"/></g>
<g><path style="opacity:1" fill="#110f8d" d="M 160.5,330.5 C 166.134,331.627 168.301,334.96 167,340.5C 161.55,346.128 157.384,345.295 154.5,338C 154.916,334.097 156.916,331.597 160.5,330.5 Z"/></g>
<g><path style="opacity:0.935" fill="#110f8d" d="M 190.5,330.5 C 198.018,330.887 200.518,334.554 198,341.5C 191.961,346.065 187.795,344.732 185.5,337.5C 186.014,334.323 187.681,331.989 190.5,330.5 Z"/></g>
<g><path style="opacity:0.924" fill="#110f8d" d="M 221.5,330.5 C 229.018,330.887 231.518,334.554 229,341.5C 222.961,346.065 218.795,344.732 216.5,337.5C 217.014,334.323 218.681,331.989 221.5,330.5 Z"/></g>
<g><path style="opacity:0.907" fill="#110f8d" d="M 253.5,330.5 C 259.844,331.868 262.011,335.535 260,341.5C 253.729,346.121 249.562,344.621 247.5,337C 248.326,333.676 250.326,331.51 253.5,330.5 Z"/></g>
<g><path style="opacity:1" fill="#110f8d" d="M 284.5,330.5 C 290.835,331.829 292.835,335.496 290.5,341.5C 284.686,345.935 280.686,344.601 278.5,337.5C 279.143,333.866 281.143,331.533 284.5,330.5 Z"/></g>
<g><path style="opacity:1" fill="#110f8d" d="M 315.5,330.5 C 321.134,331.627 323.301,334.96 322,340.5C 316.307,346.217 312.141,345.217 309.5,337.5C 310.143,333.866 312.143,331.533 315.5,330.5 Z"/></g>
<g><path style="opacity:1" fill="#110f8d" d="M 346.5,330.5 C 352.134,331.627 354.301,334.96 353,340.5C 347.55,346.128 343.384,345.295 340.5,338C 340.916,334.097 342.916,331.597 346.5,330.5 Z"/></g>
<g><path style="opacity:1" fill="#110f8d" d="M 376.5,330.5 C 382.682,331.172 385.182,334.505 384,340.5C 378.239,346.191 374.072,345.191 371.5,337.5C 372.014,334.323 373.681,331.989 376.5,330.5 Z"/></g>
<g><path style="opacity:0.829" fill="#110f8d" d="M -0.5,378.5 C -0.5,377.833 -0.5,377.167 -0.5,376.5C 1.53886,371.15 5.20553,369.65 10.5,372C 15.102,377.977 13.7686,382.144 6.5,384.5C 2.86603,383.857 0.532699,381.857 -0.5,378.5 Z"/></g>
<g><path style="opacity:0.82" fill="#110f8d" d="M 35.5,370.5 C 43.0182,370.887 45.5182,374.554 43,381.5C 37.0225,386.102 32.8559,384.769 30.5,377.5C 31.0599,374.288 32.7266,371.955 35.5,370.5 Z"/></g>
<g><path style="opacity:0.819" fill="#110f8d" d="M 66.5,370.5 C 74.0182,370.887 76.5182,374.554 74,381.5C 68.0225,386.102 63.8559,384.769 61.5,377.5C 62.0599,374.288 63.7266,371.955 66.5,370.5 Z"/></g>
<g><path style="opacity:0.822" fill="#110f8d" d="M 97.5,370.5 C 105,370.879 107.5,374.546 105,381.5C 99.2602,386.023 95.0935,384.856 92.5,378C 92.8311,374.52 94.4978,372.02 97.5,370.5 Z"/></g>
<g><path style="opacity:0.843" fill="#110f8d" d="M 128.5,370.5 C 136.123,371.407 138.289,375.407 135,382.5C 129.11,385.639 125.276,383.973 123.5,377.5C 124.014,374.323 125.681,371.989 128.5,370.5 Z"/></g>
<g><path style="opacity:0.95" fill="#110f8d" d="M 159.5,370.5 C 165.67,371.162 168.17,374.495 167,380.5C 161.239,386.191 157.072,385.191 154.5,377.5C 155.014,374.323 156.681,371.989 159.5,370.5 Z"/></g>
<g><path style="opacity:0.94" fill="#110f8d" d="M 190.5,370.5 C 198.018,370.887 200.518,374.554 198,381.5C 191.961,386.065 187.795,384.732 185.5,377.5C 186.014,374.323 187.681,371.989 190.5,370.5 Z"/></g>
<g><path style="opacity:0.93" fill="#110f8d" d="M 221.5,370.5 C 229.018,370.887 231.518,374.554 229,381.5C 222.961,386.065 218.795,384.732 216.5,377.5C 217.014,374.323 218.681,371.989 221.5,370.5 Z"/></g>
<g><path style="opacity:0.819" fill="#110f8d" d="M 252.5,370.5 C 260.018,370.887 262.518,374.554 260,381.5C 254.023,386.102 249.856,384.769 247.5,377.5C 248.06,374.288 249.727,371.955 252.5,370.5 Z"/></g>
<g><path style="opacity:0.822" fill="#110f8d" d="M 283.5,370.5 C 291,370.879 293.5,374.546 291,381.5C 285.26,386.023 281.093,384.856 278.5,378C 278.831,374.52 280.498,372.02 283.5,370.5 Z"/></g>
<g><path style="opacity:0.843" fill="#110f8d" d="M 314.5,370.5 C 322.123,371.407 324.289,375.407 321,382.5C 315.11,385.639 311.276,383.973 309.5,377.5C 310.014,374.323 311.681,371.989 314.5,370.5 Z"/></g>
<g><path style="opacity:0.95" fill="#110f8d" d="M 345.5,370.5 C 351.67,371.162 354.17,374.495 353,380.5C 347.239,386.191 343.072,385.191 340.5,377.5C 341.014,374.323 342.681,371.989 345.5,370.5 Z"/></g>
<g><path style="opacity:1" fill="#f47500" d="M 376.5,370.5 C 382.67,371.162 385.17,374.495 384,380.5C 378.239,386.191 374.072,385.191 371.5,377.5C 372.014,374.323 373.681,371.989 376.5,370.5 Z"/></g>
</svg>
