<?xml version="1.0" encoding="UTF-8"?>
<!DOCTYPE svg PUBLIC "-//W3C//DTD SVG 1.1//EN" "http://www.w3.org/Graphics/SVG/1.1/DTD/svg11.dtd">
<svg xmlns="http://www.w3.org/2000/svg" version="1.1" width="929px" height="866px" style="shape-rendering:geometricPrecision; text-rendering:geometricPrecision; image-rendering:optimizeQuality; fill-rule:evenodd; clip-rule:evenodd" xmlns:xlink="http://www.w3.org/1999/xlink">
<g><path style="opacity:1" fill="#110f8d" d="M 746.5,-0.5 C 748.5,-0.5 750.5,-0.5 752.5,-0.5C 758.601,3.29727 759.601,8.13061 755.5,14C 748.074,17.4517 743.408,15.285 741.5,7.5C 742.366,4.30751 744.032,1.64084 746.5,-0.5 Z"/></g>
<g><path style="opacity:0.989" fill="#110f8d" d="M 803.5,-0.5 C 805.5,-0.5 807.5,-0.5 809.5,-0.5C 815.728,4.18602 816.061,9.35269 810.5,15C 801.833,16.6635 798,13.1635 799,4.5C 800.025,2.31305 801.525,0.646381 803.5,-0.5 Z"/></g>
<g><path style="opacity:0.861" fill="#110f8d" d="M 698.5,7.5 C 699.5,7.5 700.5,7.5 701.5,7.5C 701.107,12.7255 698.274,15.3922 693,15.5C 690.456,15.6164 688.289,14.783 686.5,13C 690.441,10.8613 694.441,9.02801 698.5,7.5 Z"/></g>
<g><path style="opacity:1" fill="#110f8d" d="M 632.5,56.5 C 639.49,54.8383 643.49,57.5049 644.5,64.5C 643.592,70.9586 639.926,73.4586 633.5,72C 628.776,69.5647 627.276,65.7314 629,60.5C 630.376,59.2949 631.542,57.9616 632.5,56.5 Z"/></g>
<g><path style="opacity:1" fill="#110f8d" d="M 689.5,56.5 C 700.832,56.3438 703.832,61.1772 698.5,71C 688.846,74.0121 684.68,70.5121 686,60.5C 687.376,59.2949 688.542,57.9616 689.5,56.5 Z"/></g>
<g><path style="opacity:1" fill="#110f8d" d="M 746.5,56.5 C 753.237,55.195 757.237,57.8617 758.5,64.5C 756.891,70.9574 752.891,73.4574 746.5,72C 739.933,66.792 739.933,61.6253 746.5,56.5 Z"/></g>
<g><path style="opacity:1" fill="#110f8d" d="M 803.5,56.5 C 812.152,55.9858 815.652,59.9858 814,68.5C 808.514,74.0804 803.514,73.747 799,67.5C 797.776,62.626 799.276,58.9593 803.5,56.5 Z"/></g>
<g><path style="opacity:1" fill="#110f8d" d="M 859.5,56.5 C 866.49,54.8383 870.49,57.5049 871.5,64.5C 871.167,69.5 868.5,72.1667 863.5,72.5C 857.041,71.5923 854.541,67.9257 856,61.5C 856.997,59.6769 858.164,58.0103 859.5,56.5 Z"/></g>
<g><path style="opacity:0.173" fill="#110f8d" d="M 586.5,67.5 C 587.833,68.1667 587.833,68.1667 586.5,67.5 Z"/></g>
<g><path style="opacity:0.192" fill="#110f8d" d="M 586.5,68.5 C 585.833,69.1667 585.833,69.1667 586.5,68.5 Z"/></g>
<g><path style="opacity:0.2" fill="#110f8d" d="M 585.5,69.5 C 584.833,70.1667 584.833,70.1667 585.5,69.5 Z"/></g>
<g><path style="opacity:0.212" fill="#110f8d" d="M 584.5,70.5 C 583.833,71.1667 583.833,71.1667 584.5,70.5 Z"/></g>
<g><path style="opacity:1" fill="#110f8d" d="M 575.5,113.5 C 579.257,113.071 582.757,113.737 586,115.5C 589.385,122.641 587.385,127.308 580,129.5C 572.865,128.579 570.199,124.579 572,117.5C 573.376,116.295 574.542,114.962 575.5,113.5 Z"/></g>
<g><path style="opacity:1" fill="#110f8d" d="M 632.5,113.5 C 643.055,112.871 646.388,117.371 642.5,127C 632.478,131.576 627.978,128.41 629,117.5C 629.69,115.65 630.856,114.316 632.5,113.5 Z"/></g>
<g><path style="opacity:1" fill="#110f8d" d="M 689.5,113.5 C 699.002,112.493 702.502,116.493 700,125.5C 695.333,130.833 690.667,130.833 686,125.5C 684.593,120.556 685.759,116.556 689.5,113.5 Z"/></g>
<g><path style="opacity:1" fill="#110f8d" d="M 745.5,113.5 C 752.581,111.559 756.914,114.059 758.5,121C 755.475,130.201 750.309,131.701 743,125.5C 741.015,120.945 741.849,116.945 745.5,113.5 Z"/></g>
<g><path style="opacity:1" fill="#110f8d" d="M 802.5,113.5 C 812.33,111.829 816.163,115.829 814,125.5C 809.828,130.368 805.328,130.702 800.5,126.5C 797.547,121.6 798.214,117.267 802.5,113.5 Z"/></g>
<g><path style="opacity:1" fill="#110f8d" d="M 859.5,113.5 C 868.158,112.327 871.992,115.994 871,124.5C 867.086,130.142 862.42,130.809 857,126.5C 854.458,121.438 855.292,117.105 859.5,113.5 Z"/></g>
<g><path style="opacity:1" fill="#110f8d" d="M 520.5,169.5 C 529.683,170.19 532.517,174.856 529,183.5C 521.821,187.995 516.987,186.161 514.5,178C 515.174,174.17 517.174,171.336 520.5,169.5 Z"/></g>
<g><path style="opacity:1" fill="#110f8d" d="M 577.5,169.5 C 586.683,170.19 589.517,174.856 586,183.5C 581.667,187.5 577.333,187.5 573,183.5C 569.999,177.157 571.499,172.49 577.5,169.5 Z"/></g>
<g><path style="opacity:1" fill="#110f8d" d="M 634.5,169.5 C 642.217,169.944 645.384,173.944 644,181.5C 639.92,186.894 635.254,187.56 630,183.5C 626.999,177.157 628.499,172.49 634.5,169.5 Z"/></g>
<g><path style="opacity:1" fill="#110f8d" d="M 691.5,169.5 C 699.849,170.334 702.683,174.668 700,182.5C 695.968,187.363 691.634,187.696 687,183.5C 683.854,177.055 685.354,172.388 691.5,169.5 Z"/></g>
<g><path style="opacity:1" fill="#110f8d" d="M 747.5,169.5 C 756.357,169.841 759.524,174.174 757,182.5C 753.763,186.249 749.93,187.082 745.5,185C 740.079,179.083 740.746,173.916 747.5,169.5 Z"/></g>
<g><path style="opacity:1" fill="#110f8d" d="M 804.5,169.5 C 813.683,170.19 816.517,174.856 813,183.5C 805.821,187.995 800.987,186.161 798.5,178C 799.174,174.17 801.174,171.336 804.5,169.5 Z"/></g>
<g><path style="opacity:1" fill="#110f8d" d="M 861.5,169.5 C 870.683,170.19 873.517,174.856 870,183.5C 865.667,187.5 861.333,187.5 857,183.5C 853.999,177.157 855.499,172.49 861.5,169.5 Z"/></g>
<g><path style="opacity:0.956" fill="#110f8d" d="M 918.5,169.5 C 919.833,169.5 921.167,169.5 922.5,169.5C 923.244,174.219 924.244,178.886 925.5,183.5C 921.864,187.168 918.031,187.168 914,183.5C 910.999,177.157 912.499,172.49 918.5,169.5 Z"/></g>
<g><path style="opacity:1" fill="#110f8d" d="M 118.5,225.5 C 127.683,226.19 130.517,230.856 127,239.5C 123.656,242.196 120.156,242.696 116.5,241C 110.859,235.036 111.526,229.869 118.5,225.5 Z"/></g>
<g><path style="opacity:1" fill="#110f8d" d="M 463.5,225.5 C 469.636,225.136 473.302,227.969 474.5,234C 472.904,241.101 468.571,243.435 461.5,241C 456.079,235.083 456.746,229.916 463.5,225.5 Z"/></g>
<g><path style="opacity:1" fill="#110f8d" d="M 520.5,225.5 C 529.683,226.19 532.517,230.856 529,239.5C 525.656,242.196 522.156,242.696 518.5,241C 512.859,235.036 513.526,229.869 520.5,225.5 Z"/></g>
<g><path style="opacity:1" fill="#110f8d" d="M 577.5,225.5 C 585.662,225.498 588.828,229.498 587,237.5C 586.5,239.333 585.333,240.5 583.5,241C 574.834,242.664 571,239.164 572,230.5C 573.352,228.251 575.185,226.584 577.5,225.5 Z"/></g>
<g><path style="opacity:1" fill="#110f8d" d="M 634.5,225.5 C 642.684,225.537 645.851,229.537 644,237.5C 639.789,242.566 635.122,243.233 630,239.5C 626.999,233.157 628.499,228.49 634.5,225.5 Z"/></g>
<g><path style="opacity:1" fill="#110f8d" d="M 691.5,225.5 C 698.465,225.961 701.632,229.628 701,236.5C 698.565,241.224 694.731,242.724 689.5,241C 687.667,240.5 686.5,239.333 686,237.5C 684.036,231.532 685.869,227.532 691.5,225.5 Z"/></g>
<g><path style="opacity:1" fill="#110f8d" d="M 747.5,225.5 C 753.636,225.136 757.302,227.969 758.5,234C 756.904,241.101 752.571,243.435 745.5,241C 740.079,235.083 740.746,229.916 747.5,225.5 Z"/></g>
<g><path style="opacity:1" fill="#110f8d" d="M 804.5,225.5 C 813.683,226.19 816.517,230.856 813,239.5C 809.656,242.196 806.156,242.696 802.5,241C 796.859,235.036 797.526,229.869 804.5,225.5 Z"/></g>
<g><path style="opacity:1" fill="#110f8d" d="M 861.5,225.5 C 869.684,225.537 872.851,229.537 871,237.5C 866,242.833 861,242.833 856,237.5C 854.375,231.757 856.208,227.757 861.5,225.5 Z"/></g>
<g><path style="opacity:1" fill="#110f8d" d="M 928.5,231.5 C 928.5,233.167 928.5,234.833 928.5,236.5C 924.583,242.357 919.749,243.357 914,239.5C 910.47,229.043 913.97,224.876 924.5,227C 926.07,228.397 927.404,229.897 928.5,231.5 Z"/></g>
<g><path style="opacity:0.956" fill="#110f8d" d="M 171.5,227.5 C 175.854,228.371 180.188,229.371 184.5,230.5C 186.014,239.15 182.348,242.65 173.5,241C 168.97,237.124 168.303,232.624 171.5,227.5 Z"/></g>
<g><path style="opacity:0.905" fill="#110f8d" d="M 70.5,231.5 C 72.7785,234.933 72.1119,238.099 68.5,241C 63.7848,242.379 59.7848,241.379 56.5,238C 61.3774,236.058 66.0441,233.892 70.5,231.5 Z"/></g>
<g><path style="opacity:0.043" fill="#110f8d" d="M 416.5,235.5 C 417.833,236.167 417.833,236.167 416.5,235.5 Z"/></g>
<g><path style="opacity:0.682" fill="#110f8d" d="M 416.5,236.5 C 415.157,241.078 412.157,242.578 407.5,241C 410.553,239.473 413.553,237.973 416.5,236.5 Z"/></g>
<g><path style="opacity:0.922" fill="#110f8d" d="M 9.5,282.5 C 13.9719,284.777 15.8052,288.444 15,293.5C 12.4586,298.069 8.62527,299.569 3.5,298C 2.64332,297.311 1.97665,296.478 1.5,295.5C 4.19352,291.149 6.86018,286.816 9.5,282.5 Z"/></g>
<g><path style="opacity:1" fill="#110f8d" d="M 60.5,282.5 C 71.3005,282.766 74.3005,287.6 69.5,297C 60.7065,300.534 56.2065,297.701 56,288.5C 57.332,286.34 58.832,284.34 60.5,282.5 Z"/></g>
<g><path style="opacity:1" fill="#110f8d" d="M 117.5,282.5 C 126.207,282.037 129.707,286.037 128,294.5C 125.398,298.212 121.898,299.378 117.5,298C 113.139,295.774 111.639,292.274 113,287.5C 114.025,285.313 115.525,283.646 117.5,282.5 Z"/></g>
<g><path style="opacity:1" fill="#110f8d" d="M 174.5,282.5 C 183.153,281.987 186.653,285.987 185,294.5C 180,299.833 175,299.833 170,294.5C 168.474,289.239 169.974,285.239 174.5,282.5 Z"/></g>
<g><path style="opacity:1" fill="#110f8d" d="M 231.5,282.5 C 239.658,281.823 243.158,285.49 242,293.5C 239.565,298.224 235.731,299.724 230.5,298C 224.939,292.353 225.272,287.186 231.5,282.5 Z"/></g>
<g><path style="opacity:1" fill="#110f8d" d="M 292.5,282.5 C 301.207,282.037 304.707,286.037 303,294.5C 300.045,298.277 296.212,299.443 291.5,298C 285.974,292.357 286.308,287.19 292.5,282.5 Z"/></g>
<g><path style="opacity:1" fill="#110f8d" d="M 349.5,282.5 C 357.658,281.823 361.158,285.49 360,293.5C 357.565,298.224 353.731,299.724 348.5,298C 343.034,292.434 343.368,287.267 349.5,282.5 Z"/></g>
<g><path style="opacity:1" fill="#110f8d" d="M 406.5,282.5 C 414.511,281.852 418.011,285.519 417,293.5C 414.459,298.069 410.625,299.569 405.5,298C 401.723,295.089 400.556,291.256 402,286.5C 403.397,284.93 404.897,283.596 406.5,282.5 Z"/></g>
<g><path style="opacity:1" fill="#110f8d" d="M 462.5,282.5 C 473.3,282.766 476.3,287.6 471.5,297C 462.707,300.534 458.207,297.701 458,288.5C 459.332,286.34 460.832,284.34 462.5,282.5 Z"/></g>
<g><path style="opacity:1" fill="#110f8d" d="M 519.5,282.5 C 528.207,282.037 531.707,286.037 530,294.5C 527.398,298.212 523.898,299.378 519.5,298C 515.139,295.774 513.639,292.274 515,287.5C 516.025,285.313 517.525,283.646 519.5,282.5 Z"/></g>
<g><path style="opacity:1" fill="#110f8d" d="M 576.5,282.5 C 585.207,282.037 588.707,286.037 587,294.5C 582,299.833 577,299.833 572,294.5C 570.474,289.239 571.974,285.239 576.5,282.5 Z"/></g>
<g><path style="opacity:1" fill="#110f8d" d="M 633.5,282.5 C 641.658,281.823 645.158,285.49 644,293.5C 641.565,298.224 637.731,299.724 632.5,298C 626.939,292.353 627.272,287.186 633.5,282.5 Z"/></g>
<g><path style="opacity:1" fill="#110f8d" d="M 690.5,282.5 C 698.511,281.852 702.011,285.519 701,293.5C 698.459,298.069 694.625,299.569 689.5,298C 685.723,295.089 684.556,291.256 686,286.5C 687.397,284.93 688.897,283.596 690.5,282.5 Z"/></g>
<g><path style="opacity:1" fill="#110f8d" d="M 746.5,282.5 C 757.3,282.766 760.3,287.6 755.5,297C 746.707,300.534 742.207,297.701 742,288.5C 743.332,286.34 744.832,284.34 746.5,282.5 Z"/></g>
<g><path style="opacity:1" fill="#110f8d" d="M 803.5,282.5 C 812.207,282.037 815.707,286.037 814,294.5C 811.398,298.212 807.898,299.378 803.5,298C 799.139,295.774 797.639,292.274 799,287.5C 800.025,285.313 801.525,283.646 803.5,282.5 Z"/></g>
<g><path style="opacity:1" fill="#110f8d" d="M 860.5,282.5 C 869.153,281.987 872.653,285.987 871,294.5C 866,299.833 861,299.833 856,294.5C 854.474,289.239 855.974,285.239 860.5,282.5 Z"/></g>
<g><path style="opacity:1" fill="#110f8d" d="M 928.5,287.5 C 928.5,289.5 928.5,291.5 928.5,293.5C 923.814,299.728 918.647,300.061 913,294.5C 911.283,285.884 914.783,282.051 923.5,283C 925.687,284.025 927.354,285.525 928.5,287.5 Z"/></g>
<g><path style="opacity:1" fill="#110f8d" d="M -0.5,351.5 C -0.5,348.833 -0.5,346.167 -0.5,343.5C 3.97538,338.601 8.80871,338.268 14,342.5C 17.2002,351.602 14.0335,355.769 4.5,355C 2.67694,354.003 1.01027,352.836 -0.5,351.5 Z"/></g>
<g><path style="opacity:1" fill="#110f8d" d="M 60.5,339.5 C 67.2375,338.195 71.2375,340.862 72.5,347.5C 70.8911,353.957 66.8911,356.457 60.5,355C 53.9327,349.792 53.9327,344.625 60.5,339.5 Z"/></g>
<g><path style="opacity:1" fill="#110f8d" d="M 117.5,339.5 C 126.152,338.986 129.652,342.986 128,351.5C 122.514,357.08 117.514,356.747 113,350.5C 111.776,345.626 113.276,341.959 117.5,339.5 Z"/></g>
<g><path style="opacity:1" fill="#110f8d" d="M 173.5,339.5 C 180.49,337.838 184.49,340.505 185.5,347.5C 185.167,352.5 182.5,355.167 177.5,355.5C 171.041,354.592 168.541,350.926 170,344.5C 170.997,342.677 172.164,341.01 173.5,339.5 Z"/></g>
<g><path style="opacity:1" fill="#110f8d" d="M 230.5,339.5 C 237.304,338.221 241.304,340.888 242.5,347.5C 241.592,353.959 237.926,356.459 231.5,355C 226.776,352.565 225.276,348.731 227,343.5C 228.376,342.295 229.542,340.962 230.5,339.5 Z"/></g>
<g><path style="opacity:1" fill="#110f8d" d="M 292.5,339.5 C 301.152,338.986 304.652,342.986 303,351.5C 297.514,357.08 292.514,356.747 288,350.5C 286.776,345.626 288.276,341.959 292.5,339.5 Z"/></g>
<g><path style="opacity:1" fill="#110f8d" d="M 348.5,339.5 C 355.49,337.838 359.49,340.505 360.5,347.5C 360.167,352.5 357.5,355.167 352.5,355.5C 345.727,354.303 343.227,350.303 345,343.5C 346.376,342.295 347.542,340.962 348.5,339.5 Z"/></g>
<g><path style="opacity:1" fill="#110f8d" d="M 405.5,339.5 C 416.832,339.344 419.832,344.177 414.5,354C 404.846,357.012 400.68,353.512 402,343.5C 403.376,342.295 404.542,340.962 405.5,339.5 Z"/></g>
<g><path style="opacity:1" fill="#110f8d" d="M 462.5,339.5 C 469.237,338.195 473.237,340.862 474.5,347.5C 472.891,353.957 468.891,356.457 462.5,355C 455.933,349.792 455.933,344.625 462.5,339.5 Z"/></g>
<g><path style="opacity:1" fill="#110f8d" d="M 519.5,339.5 C 528.152,338.986 531.652,342.986 530,351.5C 524.514,357.08 519.514,356.747 515,350.5C 513.776,345.626 515.276,341.959 519.5,339.5 Z"/></g>
<g><path style="opacity:1" fill="#110f8d" d="M 575.5,339.5 C 584.657,338.489 588.49,342.489 587,351.5C 582.62,356.343 577.954,356.677 573,352.5C 570.606,347.527 571.44,343.194 575.5,339.5 Z"/></g>
<g><path style="opacity:1" fill="#110f8d" d="M 632.5,339.5 C 639.49,337.838 643.49,340.505 644.5,347.5C 643.592,353.959 639.926,356.459 633.5,355C 628.776,352.565 627.276,348.731 629,343.5C 630.376,342.295 631.542,340.962 632.5,339.5 Z"/></g>
<g><path style="opacity:1" fill="#110f8d" d="M 689.5,339.5 C 700.832,339.344 703.832,344.177 698.5,354C 688.846,357.012 684.68,353.512 686,343.5C 687.376,342.295 688.542,340.962 689.5,339.5 Z"/></g>
<g><path style="opacity:1" fill="#110f8d" d="M 746.5,339.5 C 753.237,338.195 757.237,340.862 758.5,347.5C 756.891,353.957 752.891,356.457 746.5,355C 739.933,349.792 739.933,344.625 746.5,339.5 Z"/></g>
<g><path style="opacity:1" fill="#110f8d" d="M 803.5,339.5 C 812.152,338.986 815.652,342.986 814,351.5C 808.514,357.08 803.514,356.747 799,350.5C 797.776,345.626 799.276,341.959 803.5,339.5 Z"/></g>
<g><path style="opacity:1" fill="#110f8d" d="M 859.5,339.5 C 866.49,337.838 870.49,340.505 871.5,347.5C 871.167,352.5 868.5,355.167 863.5,355.5C 857.041,354.592 854.541,350.926 856,344.5C 856.997,342.677 858.164,341.01 859.5,339.5 Z"/></g>
<g><path style="opacity:1" fill="#110f8d" d="M 928.5,344.5 C 928.5,346.5 928.5,348.5 928.5,350.5C 923.81,356.692 918.643,357.026 913,351.5C 911.336,342.834 914.836,339 923.5,340C 925.687,341.025 927.354,342.525 928.5,344.5 Z"/></g>
<g><path style="opacity:1" fill="#110f8d" d="M -0.5,408.5 C -0.5,405.5 -0.5,402.5 -0.5,399.5C 7.01157,393.211 12.3449,394.711 15.5,404C 12.3171,413.269 6.98377,414.769 -0.5,408.5 Z"/></g>
<g><path style="opacity:1" fill="#110f8d" d="M 61.5,395.5 C 70.3366,395.824 73.5032,400.157 71,408.5C 65.1857,414.205 60.1857,413.538 56,406.5C 55.2711,401.505 57.1044,397.838 61.5,395.5 Z"/></g>
<g><path style="opacity:1" fill="#110f8d" d="M 118.5,395.5 C 126.992,395.79 130.158,400.124 128,408.5C 122.138,414.194 117.138,413.527 113,406.5C 112.176,401.482 114.009,397.815 118.5,395.5 Z"/></g>
<g><path style="opacity:1" fill="#110f8d" d="M 175.5,395.5 C 184.702,396.232 187.535,400.899 184,409.5C 179.667,413.5 175.333,413.5 171,409.5C 167.998,403.2 169.498,398.533 175.5,395.5 Z"/></g>
<g><path style="opacity:1" fill="#110f8d" d="M 232.5,395.5 C 241.409,396.655 244.076,401.322 240.5,409.5C 235.672,413.702 231.172,413.368 227,408.5C 225.099,402.343 226.932,398.01 232.5,395.5 Z"/></g>
<g><path style="opacity:1" fill="#110f8d" d="M 293.5,395.5 C 301.662,395.498 304.828,399.498 303,407.5C 298.133,414.075 293.133,414.075 288,407.5C 286.486,401.877 288.319,397.877 293.5,395.5 Z"/></g>
<g><path style="opacity:1" fill="#110f8d" d="M 350.5,395.5 C 359.702,396.232 362.535,400.899 359,409.5C 354.627,413.483 350.294,413.483 346,409.5C 342.999,403.157 344.499,398.49 350.5,395.5 Z"/></g>
<g><path style="opacity:1" fill="#110f8d" d="M 407.5,395.5 C 415.849,396.334 418.683,400.668 416,408.5C 411.333,413.833 406.667,413.833 402,408.5C 399.955,402.236 401.789,397.903 407.5,395.5 Z"/></g>
<g><path style="opacity:1" fill="#110f8d" d="M 463.5,395.5 C 472.337,395.824 475.503,400.157 473,408.5C 467.186,414.205 462.186,413.538 458,406.5C 457.271,401.505 459.104,397.838 463.5,395.5 Z"/></g>
<g><path style="opacity:1" fill="#110f8d" d="M 520.5,395.5 C 528.992,395.79 532.158,400.124 530,408.5C 524.138,414.194 519.138,413.527 515,406.5C 514.176,401.482 516.009,397.815 520.5,395.5 Z"/></g>
<g><path style="opacity:1" fill="#110f8d" d="M 577.5,395.5 C 585.662,395.498 588.828,399.498 587,407.5C 584.017,412.568 579.851,413.735 574.5,411C 571.735,408.005 570.902,404.505 572,400.5C 573.352,398.251 575.185,396.584 577.5,395.5 Z"/></g>
<g><path style="opacity:1" fill="#110f8d" d="M 634.5,395.5 C 643.702,396.232 646.535,400.899 643,409.5C 635.587,414.601 630.754,412.934 628.5,404.5C 628.298,399.873 630.298,396.873 634.5,395.5 Z"/></g>
<g><path style="opacity:1" fill="#110f8d" d="M 691.5,395.5 C 699.849,396.334 702.683,400.668 700,408.5C 695.333,413.833 690.667,413.833 686,408.5C 683.955,402.236 685.789,397.903 691.5,395.5 Z"/></g>
<g><path style="opacity:1" fill="#110f8d" d="M 747.5,395.5 C 756.337,395.824 759.503,400.157 757,408.5C 751.186,414.205 746.186,413.538 742,406.5C 741.271,401.505 743.104,397.838 747.5,395.5 Z"/></g>
<g><path style="opacity:1" fill="#110f8d" d="M 804.5,395.5 C 812.992,395.79 816.158,400.124 814,408.5C 808.138,414.194 803.138,413.527 799,406.5C 798.176,401.482 800.009,397.815 804.5,395.5 Z"/></g>
<g><path style="opacity:1" fill="#110f8d" d="M 861.5,395.5 C 870.702,396.232 873.535,400.899 870,409.5C 865.667,413.5 861.333,413.5 857,409.5C 853.998,403.2 855.498,398.533 861.5,395.5 Z"/></g>
<g><path style="opacity:1" fill="#110f8d" d="M 928.5,401.5 C 928.5,403.167 928.5,404.833 928.5,406.5C 924.179,413.463 919.012,414.13 913,408.5C 911.04,398.458 914.873,394.625 924.5,397C 926.07,398.397 927.404,399.897 928.5,401.5 Z"/></g>
<g><path style="opacity:1" fill="#110f8d" d="M -0.5,464.5 C -0.5,461.833 -0.5,459.167 -0.5,456.5C 3.47098,452.199 7.97098,451.532 13,454.5C 17.3587,461.781 15.5253,466.781 7.5,469.5C 3.81906,469.273 1.1524,467.607 -0.5,464.5 Z"/></g>
<g><path style="opacity:1" fill="#110f8d" d="M 60.5,452.5 C 67.148,451.654 71.148,454.487 72.5,461C 71.6667,465.833 68.8333,468.667 64,469.5C 57.8211,468.328 55.1544,464.662 56,458.5C 57.332,456.34 58.832,454.34 60.5,452.5 Z"/></g>
<g><path style="opacity:1" fill="#110f8d" d="M 117.5,452.5 C 127.619,452.452 130.785,457.118 127,466.5C 117.458,471.307 112.792,468.307 113,457.5C 114.025,455.313 115.525,453.646 117.5,452.5 Z"/></g>
<g><path style="opacity:1" fill="#110f8d" d="M 174.5,452.5 C 184.36,452.543 187.527,457.21 184,466.5C 178.58,470.809 173.914,470.142 170,464.5C 168.474,459.239 169.974,455.239 174.5,452.5 Z"/></g>
<g><path style="opacity:1" fill="#110f8d" d="M 231.5,452.5 C 241.033,452.241 244.199,456.574 241,465.5C 235.99,470.675 231.324,470.341 227,464.5C 225.309,459.131 226.809,455.131 231.5,452.5 Z"/></g>
<g><path style="opacity:1" fill="#110f8d" d="M 292.5,452.5 C 302.619,452.452 305.785,457.118 302,466.5C 292.458,471.307 287.792,468.307 288,457.5C 289.025,455.313 290.525,453.646 292.5,452.5 Z"/></g>
<g><path style="opacity:1" fill="#110f8d" d="M 349.5,452.5 C 358.153,451.987 361.653,455.987 360,464.5C 354.911,471.098 349.911,471.098 345,464.5C 343.474,459.239 344.974,455.239 349.5,452.5 Z"/></g>
<g><path style="opacity:1" fill="#110f8d" d="M 406.5,452.5 C 415.516,452.527 418.683,456.861 416,465.5C 410.939,470.635 406.272,470.302 402,464.5C 400.309,459.131 401.809,455.131 406.5,452.5 Z"/></g>
<g><path style="opacity:1" fill="#110f8d" d="M 462.5,452.5 C 469.148,451.654 473.148,454.487 474.5,461C 473.667,465.833 470.833,468.667 466,469.5C 459.821,468.328 457.154,464.662 458,458.5C 459.332,456.34 460.832,454.34 462.5,452.5 Z"/></g>
<g><path style="opacity:1" fill="#110f8d" d="M 519.5,452.5 C 529.619,452.452 532.785,457.118 529,466.5C 519.458,471.307 514.792,468.307 515,457.5C 516.025,455.313 517.525,453.646 519.5,452.5 Z"/></g>
<g><path style="opacity:1" fill="#110f8d" d="M 576.5,452.5 C 586.619,452.452 589.785,457.118 586,466.5C 580.58,470.809 575.914,470.142 572,464.5C 570.474,459.239 571.974,455.239 576.5,452.5 Z"/></g>
<g><path style="opacity:1" fill="#110f8d" d="M 633.5,452.5 C 642.153,451.987 645.653,455.987 644,464.5C 638.911,471.098 633.911,471.098 629,464.5C 627.309,459.131 628.809,455.131 633.5,452.5 Z"/></g>
<g><path style="opacity:1" fill="#110f8d" d="M 690.5,452.5 C 699.516,452.527 702.683,456.861 700,465.5C 694.939,470.635 690.272,470.302 686,464.5C 684.309,459.131 685.809,455.131 690.5,452.5 Z"/></g>
<g><path style="opacity:1" fill="#110f8d" d="M 746.5,452.5 C 753.148,451.654 757.148,454.487 758.5,461C 757.667,465.833 754.833,468.667 750,469.5C 743.821,468.328 741.154,464.662 742,458.5C 743.332,456.34 744.832,454.34 746.5,452.5 Z"/></g>
<g><path style="opacity:1" fill="#110f8d" d="M 803.5,452.5 C 813.619,452.452 816.785,457.118 813,466.5C 803.458,471.307 798.792,468.307 799,457.5C 800.025,455.313 801.525,453.646 803.5,452.5 Z"/></g>
<g><path style="opacity:1" fill="#110f8d" d="M 860.5,452.5 C 870.36,452.543 873.527,457.21 870,466.5C 864.58,470.809 859.914,470.142 856,464.5C 854.474,459.239 855.974,455.239 860.5,452.5 Z"/></g>
<g><path style="opacity:1" fill="#110f8d" d="M 928.5,457.5 C 928.5,459.5 928.5,461.5 928.5,463.5C 924.703,469.601 919.869,470.601 914,466.5C 910.206,456.972 913.373,452.472 923.5,453C 925.687,454.025 927.354,455.525 928.5,457.5 Z"/></g>
<g><path style="opacity:1" fill="#110f8d" d="M -0.5,521.5 C -0.5,518.833 -0.5,516.167 -0.5,513.5C 3.97538,508.601 8.80871,508.268 14,512.5C 17.2002,521.602 14.0335,525.769 4.5,525C 2.67694,524.003 1.01027,522.836 -0.5,521.5 Z"/></g>
<g><path style="opacity:1" fill="#110f8d" d="M 60.5,509.5 C 67.2375,508.195 71.2375,510.862 72.5,517.5C 70.8911,523.957 66.8911,526.457 60.5,525C 53.9327,519.792 53.9327,514.625 60.5,509.5 Z"/></g>
<g><path style="opacity:1" fill="#110f8d" d="M 117.5,509.5 C 126.152,508.986 129.652,512.986 128,521.5C 122.514,527.08 117.514,526.747 113,520.5C 111.776,515.626 113.276,511.959 117.5,509.5 Z"/></g>
<g><path style="opacity:1" fill="#110f8d" d="M 173.5,509.5 C 180.49,507.838 184.49,510.505 185.5,517.5C 185.167,522.5 182.5,525.167 177.5,525.5C 171.041,524.592 168.541,520.926 170,514.5C 170.997,512.677 172.164,511.01 173.5,509.5 Z"/></g>
<g><path style="opacity:1" fill="#110f8d" d="M 230.5,509.5 C 237.304,508.221 241.304,510.888 242.5,517.5C 241.592,523.959 237.926,526.459 231.5,525C 226.776,522.565 225.276,518.731 227,513.5C 228.376,512.295 229.542,510.962 230.5,509.5 Z"/></g>
<g><path style="opacity:1" fill="#110f8d" d="M 292.5,509.5 C 301.152,508.986 304.652,512.986 303,521.5C 297.514,527.08 292.514,526.747 288,520.5C 286.776,515.626 288.276,511.959 292.5,509.5 Z"/></g>
<g><path style="opacity:1" fill="#110f8d" d="M 348.5,509.5 C 355.49,507.838 359.49,510.505 360.5,517.5C 360.167,522.5 357.5,525.167 352.5,525.5C 345.727,524.303 343.227,520.303 345,513.5C 346.376,512.295 347.542,510.962 348.5,509.5 Z"/></g>
<g><path style="opacity:1" fill="#110f8d" d="M 405.5,509.5 C 416.832,509.344 419.832,514.177 414.5,524C 404.846,527.012 400.68,523.512 402,513.5C 403.376,512.295 404.542,510.962 405.5,509.5 Z"/></g>
<g><path style="opacity:1" fill="#110f8d" d="M 462.5,509.5 C 469.237,508.195 473.237,510.862 474.5,517.5C 472.891,523.957 468.891,526.457 462.5,525C 455.933,519.792 455.933,514.625 462.5,509.5 Z"/></g>
<g><path style="opacity:1" fill="#110f8d" d="M 519.5,509.5 C 528.152,508.986 531.652,512.986 530,521.5C 524.514,527.08 519.514,526.747 515,520.5C 513.776,515.626 515.276,511.959 519.5,509.5 Z"/></g>
<g><path style="opacity:1" fill="#110f8d" d="M 575.5,509.5 C 584.657,508.489 588.49,512.489 587,521.5C 582.62,526.343 577.954,526.677 573,522.5C 570.606,517.527 571.44,513.194 575.5,509.5 Z"/></g>
<g><path style="opacity:1" fill="#110f8d" d="M 632.5,509.5 C 639.49,507.838 643.49,510.505 644.5,517.5C 643.592,523.959 639.926,526.459 633.5,525C 628.776,522.565 627.276,518.731 629,513.5C 630.376,512.295 631.542,510.962 632.5,509.5 Z"/></g>
<g><path style="opacity:1" fill="#110f8d" d="M 689.5,509.5 C 700.832,509.344 703.832,514.177 698.5,524C 688.846,527.012 684.68,523.512 686,513.5C 687.376,512.295 688.542,510.962 689.5,509.5 Z"/></g>
<g><path style="opacity:1" fill="#110f8d" d="M 746.5,509.5 C 753.237,508.195 757.237,510.862 758.5,517.5C 756.891,523.957 752.891,526.457 746.5,525C 739.933,519.792 739.933,514.625 746.5,509.5 Z"/></g>
<g><path style="opacity:1" fill="#110f8d" d="M 803.5,509.5 C 812.152,508.986 815.652,512.986 814,521.5C 808.514,527.08 803.514,526.747 799,520.5C 797.776,515.626 799.276,511.959 803.5,509.5 Z"/></g>
<g><path style="opacity:1" fill="#110f8d" d="M 859.5,509.5 C 866.49,507.838 870.49,510.505 871.5,517.5C 871.167,522.5 868.5,525.167 863.5,525.5C 857.041,524.592 854.541,520.926 856,514.5C 856.997,512.677 858.164,511.01 859.5,509.5 Z"/></g>
<g><path style="opacity:0.944" fill="#110f8d" d="M 916.5,509.5 C 918.857,509.337 921.19,509.503 923.5,510C 924.428,510.388 925.095,511.055 925.5,512C 924.179,516.441 923.179,520.941 922.5,525.5C 914.304,525.471 911.137,521.471 913,513.5C 914.376,512.295 915.542,510.962 916.5,509.5 Z"/></g>
<g><path style="opacity:1" fill="#110f8d" d="M -0.5,578.5 C -0.5,575.833 -0.5,573.167 -0.5,570.5C 2.55598,566.759 6.55598,565.593 11.5,567C 17.2051,572.814 16.5384,577.814 9.5,582C 5.46947,582.818 2.13614,581.651 -0.5,578.5 Z"/></g>
<g><path style="opacity:1" fill="#110f8d" d="M 59.5,566.5 C 66.5808,564.559 70.9141,567.059 72.5,574C 69.4754,583.201 64.3087,584.701 57,578.5C 55.0152,573.945 55.8486,569.945 59.5,566.5 Z"/></g>
<g><path style="opacity:1" fill="#110f8d" d="M 116.5,566.5 C 126.33,564.829 130.163,568.829 128,578.5C 123.828,583.368 119.328,583.702 114.5,579.5C 111.547,574.6 112.214,570.267 116.5,566.5 Z"/></g>
<g><path style="opacity:1" fill="#110f8d" d="M 173.5,566.5 C 182.158,565.327 185.992,568.994 185,577.5C 181.086,583.142 176.42,583.809 171,579.5C 168.458,574.438 169.292,570.105 173.5,566.5 Z"/></g>
<g><path style="opacity:1" fill="#110f8d" d="M 230.5,566.5 C 241.63,566.106 244.63,570.773 239.5,580.5C 229.888,584.058 225.721,580.724 227,570.5C 227.69,568.65 228.856,567.316 230.5,566.5 Z"/></g>
<g><path style="opacity:1" fill="#110f8d" d="M 291.5,566.5 C 295.257,566.071 298.757,566.737 302,568.5C 304.303,573.038 303.803,577.205 300.5,581C 291.758,583.721 287.592,580.554 288,571.5C 288.997,569.677 290.164,568.01 291.5,566.5 Z"/></g>
<g><path style="opacity:1" fill="#110f8d" d="M 348.5,566.5 C 359.055,565.871 362.388,570.371 358.5,580C 348.544,584.571 344.044,581.405 345,570.5C 346.376,569.295 347.542,567.962 348.5,566.5 Z"/></g>
<g><path style="opacity:1" fill="#110f8d" d="M 405.5,566.5 C 415.002,565.493 418.502,569.493 416,578.5C 411.333,583.833 406.667,583.833 402,578.5C 400.593,573.556 401.759,569.556 405.5,566.5 Z"/></g>
<g><path style="opacity:1" fill="#110f8d" d="M 461.5,566.5 C 468.581,564.559 472.914,567.059 474.5,574C 471.475,583.201 466.309,584.701 459,578.5C 457.015,573.945 457.849,569.945 461.5,566.5 Z"/></g>
<g><path style="opacity:1" fill="#110f8d" d="M 518.5,566.5 C 528.33,564.829 532.163,568.829 530,578.5C 525.828,583.368 521.328,583.702 516.5,579.5C 513.547,574.6 514.214,570.267 518.5,566.5 Z"/></g>
<g><path style="opacity:1" fill="#110f8d" d="M 575.5,566.5 C 579.257,566.071 582.757,566.737 586,568.5C 589.385,575.641 587.385,580.308 580,582.5C 572.865,581.579 570.199,577.579 572,570.5C 573.376,569.295 574.542,567.962 575.5,566.5 Z"/></g>
<g><path style="opacity:1" fill="#110f8d" d="M 632.5,566.5 C 643.055,565.871 646.388,570.371 642.5,580C 632.478,584.576 627.978,581.41 629,570.5C 629.69,568.65 630.856,567.316 632.5,566.5 Z"/></g>
<g><path style="opacity:1" fill="#110f8d" d="M 689.5,566.5 C 699.002,565.493 702.502,569.493 700,578.5C 695.333,583.833 690.667,583.833 686,578.5C 684.593,573.556 685.759,569.556 689.5,566.5 Z"/></g>
<g><path style="opacity:1" fill="#110f8d" d="M 745.5,566.5 C 752.581,564.559 756.914,567.059 758.5,574C 755.475,583.201 750.309,584.701 743,578.5C 741.015,573.945 741.849,569.945 745.5,566.5 Z"/></g>
<g><path style="opacity:1" fill="#110f8d" d="M 802.5,566.5 C 812.33,564.829 816.163,568.829 814,578.5C 809.828,583.368 805.328,583.702 800.5,579.5C 797.547,574.6 798.214,570.267 802.5,566.5 Z"/></g>
<g><path style="opacity:1" fill="#110f8d" d="M 859.5,566.5 C 868.158,565.327 871.992,568.994 871,577.5C 867.086,583.142 862.42,583.809 857,579.5C 854.458,574.438 855.292,570.105 859.5,566.5 Z"/></g>
<g><path style="opacity:1" fill="#110f8d" d="M 61.5,622.5 C 70.3573,622.841 73.524,627.174 71,635.5C 67.7635,639.249 63.9302,640.082 59.5,638C 54.0794,632.083 54.7461,626.916 61.5,622.5 Z"/></g>
<g><path style="opacity:1" fill="#110f8d" d="M 118.5,622.5 C 127.683,623.19 130.517,627.856 127,636.5C 119.821,640.995 114.987,639.161 112.5,631C 113.174,627.17 115.174,624.336 118.5,622.5 Z"/></g>
<g><path style="opacity:1" fill="#110f8d" d="M 175.5,622.5 C 184.683,623.19 187.517,627.856 184,636.5C 179.667,640.5 175.333,640.5 171,636.5C 167.999,630.157 169.499,625.49 175.5,622.5 Z"/></g>
<g><path style="opacity:1" fill="#110f8d" d="M 232.5,622.5 C 240.849,623.334 243.683,627.668 241,635.5C 237.017,640.324 232.683,640.657 228,636.5C 224.999,630.157 226.499,625.49 232.5,622.5 Z"/></g>
<g><path style="opacity:1" fill="#110f8d" d="M 293.5,622.5 C 302.683,623.19 305.517,627.856 302,636.5C 292.458,641.307 287.792,638.307 288,627.5C 289.73,625.598 291.563,623.931 293.5,622.5 Z"/></g>
<g><path style="opacity:1" fill="#110f8d" d="M 350.5,622.5 C 358.217,622.944 361.384,626.944 360,634.5C 355.92,639.894 351.254,640.56 346,636.5C 342.999,630.157 344.499,625.49 350.5,622.5 Z"/></g>
<g><path style="opacity:1" fill="#110f8d" d="M 407.5,622.5 C 415.849,623.334 418.683,627.668 416,635.5C 411.968,640.363 407.634,640.696 403,636.5C 399.854,630.055 401.354,625.388 407.5,622.5 Z"/></g>
<g><path style="opacity:1" fill="#110f8d" d="M 463.5,622.5 C 472.357,622.841 475.524,627.174 473,635.5C 469.763,639.249 465.93,640.082 461.5,638C 456.079,632.083 456.746,626.916 463.5,622.5 Z"/></g>
<g><path style="opacity:1" fill="#110f8d" d="M 520.5,622.5 C 529.683,623.19 532.517,627.856 529,636.5C 521.821,640.995 516.987,639.161 514.5,631C 515.174,627.17 517.174,624.336 520.5,622.5 Z"/></g>
<g><path style="opacity:1" fill="#110f8d" d="M 577.5,622.5 C 586.683,623.19 589.517,627.856 586,636.5C 581.667,640.5 577.333,640.5 573,636.5C 569.999,630.157 571.499,625.49 577.5,622.5 Z"/></g>
<g><path style="opacity:1" fill="#110f8d" d="M 634.5,622.5 C 642.217,622.944 645.384,626.944 644,634.5C 639.92,639.894 635.254,640.56 630,636.5C 626.999,630.157 628.499,625.49 634.5,622.5 Z"/></g>
<g><path style="opacity:1" fill="#110f8d" d="M 691.5,622.5 C 699.849,623.334 702.683,627.668 700,635.5C 695.968,640.363 691.634,640.696 687,636.5C 683.854,630.055 685.354,625.388 691.5,622.5 Z"/></g>
<g><path style="opacity:1" fill="#110f8d" d="M 747.5,622.5 C 756.357,622.841 759.524,627.174 757,635.5C 753.763,639.249 749.93,640.082 745.5,638C 740.079,632.083 740.746,626.916 747.5,622.5 Z"/></g>
<g><path style="opacity:1" fill="#110f8d" d="M 804.5,622.5 C 813.683,623.19 816.517,627.856 813,636.5C 805.821,640.995 800.987,639.161 798.5,631C 799.174,627.17 801.174,624.336 804.5,622.5 Z"/></g>
<g><path style="opacity:1" fill="#110f8d" d="M 861.5,622.5 C 870.683,623.19 873.517,627.856 870,636.5C 865.667,640.5 861.333,640.5 857,636.5C 853.999,630.157 855.499,625.49 861.5,622.5 Z"/></g>
<g><path style="opacity:0.055" fill="#110f8d" d="M 13.5,626.5 C 12.8333,625.167 12.8333,625.167 13.5,626.5 Z"/></g>
<g><path style="opacity:0.224" fill="#110f8d" d="M 13.5,626.5 C 14.3382,626.842 14.6716,627.508 14.5,628.5C 13.6618,628.158 13.3284,627.492 13.5,626.5 Z"/></g>
<g><path style="opacity:0.167" fill="#110f8d" d="M 14.5,628.5 C 15.525,628.897 15.6917,629.563 15,630.5C 14.5357,629.906 14.369,629.239 14.5,628.5 Z"/></g>
<g><path style="opacity:0.995" fill="#110f8d" d="M 61.5,678.5 C 67.6358,678.136 71.3025,680.969 72.5,687C 70.9044,694.101 66.5711,696.435 59.5,694C 54.0794,688.083 54.7461,682.916 61.5,678.5 Z"/></g>
<g><path style="opacity:1" fill="#110f8d" d="M 118.5,678.5 C 127.683,679.19 130.517,683.856 127,692.5C 123.656,695.196 120.156,695.696 116.5,694C 110.859,688.036 111.526,682.869 118.5,678.5 Z"/></g>
<g><path style="opacity:1" fill="#110f8d" d="M 175.5,678.5 C 183.684,678.537 186.851,682.537 185,690.5C 180,695.833 175,695.833 170,690.5C 168.375,684.757 170.208,680.757 175.5,678.5 Z"/></g>
<g><path style="opacity:1" fill="#110f8d" d="M 232.5,678.5 C 240.849,679.334 243.683,683.668 241,691.5C 236.845,695.804 232.512,696.138 228,692.5C 224.999,686.157 226.499,681.49 232.5,678.5 Z"/></g>
<g><path style="opacity:1" fill="#110f8d" d="M 293.5,678.5 C 301.662,678.498 304.828,682.498 303,690.5C 302.5,692.333 301.333,693.5 299.5,694C 290.884,695.717 287.051,692.217 288,683.5C 289.406,681.256 291.239,679.59 293.5,678.5 Z"/></g>
<g><path style="opacity:1" fill="#110f8d" d="M 350.5,678.5 C 358.684,678.537 361.851,682.537 360,690.5C 354.954,695.824 349.954,695.824 345,690.5C 343.393,684.721 345.227,680.721 350.5,678.5 Z"/></g>
<g><path style="opacity:1" fill="#110f8d" d="M 407.5,678.5 C 414.465,678.961 417.632,682.628 417,689.5C 414.565,694.224 410.731,695.724 405.5,694C 403.667,693.5 402.5,692.333 402,690.5C 400.036,684.532 401.869,680.532 407.5,678.5 Z"/></g>
<g><path style="opacity:1" fill="#110f8d" d="M 463.5,678.5 C 469.636,678.136 473.302,680.969 474.5,687C 472.904,694.101 468.571,696.435 461.5,694C 456.079,688.083 456.746,682.916 463.5,678.5 Z"/></g>
<g><path style="opacity:1" fill="#110f8d" d="M 520.5,678.5 C 529.683,679.19 532.517,683.856 529,692.5C 525.656,695.196 522.156,695.696 518.5,694C 512.859,688.036 513.526,682.869 520.5,678.5 Z"/></g>
<g><path style="opacity:1" fill="#110f8d" d="M 577.5,678.5 C 585.662,678.498 588.828,682.498 587,690.5C 586.5,692.333 585.333,693.5 583.5,694C 574.834,695.664 571,692.164 572,683.5C 573.352,681.251 575.185,679.584 577.5,678.5 Z"/></g>
<g><path style="opacity:1" fill="#110f8d" d="M 634.5,678.5 C 642.684,678.537 645.851,682.537 644,690.5C 639.789,695.566 635.122,696.233 630,692.5C 626.999,686.157 628.499,681.49 634.5,678.5 Z"/></g>
<g><path style="opacity:1" fill="#110f8d" d="M 691.5,678.5 C 698.465,678.961 701.632,682.628 701,689.5C 698.565,694.224 694.731,695.724 689.5,694C 687.667,693.5 686.5,692.333 686,690.5C 684.036,684.532 685.869,680.532 691.5,678.5 Z"/></g>
<g><path style="opacity:1" fill="#110f8d" d="M 747.5,678.5 C 753.636,678.136 757.302,680.969 758.5,687C 756.904,694.101 752.571,696.435 745.5,694C 740.079,688.083 740.746,682.916 747.5,678.5 Z"/></g>
<g><path style="opacity:1" fill="#110f8d" d="M 804.5,678.5 C 813.683,679.19 816.517,683.856 813,692.5C 809.656,695.196 806.156,695.696 802.5,694C 796.859,688.036 797.526,682.869 804.5,678.5 Z"/></g>
<g><path style="opacity:0.863" fill="#110f8d" d="M 861.5,678.5 C 862.873,678.343 864.207,678.51 865.5,679C 863,683.5 860.5,688 858,692.5C 855.585,689.968 854.919,686.968 856,683.5C 857.352,681.251 859.185,679.584 861.5,678.5 Z"/></g>
<g><path style="opacity:1" fill="#110f8d" d="M 117.5,735.5 C 126.207,735.037 129.707,739.037 128,747.5C 125.398,751.212 121.898,752.378 117.5,751C 113.139,748.774 111.639,745.274 113,740.5C 114.025,738.313 115.525,736.646 117.5,735.5 Z"/></g>
<g><path style="opacity:1" fill="#110f8d" d="M 174.5,735.5 C 183.153,734.987 186.653,738.987 185,747.5C 180,752.833 175,752.833 170,747.5C 168.474,742.239 169.974,738.239 174.5,735.5 Z"/></g>
<g><path style="opacity:1" fill="#110f8d" d="M 231.5,735.5 C 239.658,734.823 243.158,738.49 242,746.5C 239.565,751.224 235.731,752.724 230.5,751C 224.939,745.353 225.272,740.186 231.5,735.5 Z"/></g>
<g><path style="opacity:1" fill="#110f8d" d="M 292.5,735.5 C 301.207,735.037 304.707,739.037 303,747.5C 300.045,751.277 296.212,752.443 291.5,751C 285.974,745.357 286.308,740.19 292.5,735.5 Z"/></g>
<g><path style="opacity:1" fill="#110f8d" d="M 349.5,735.5 C 357.658,734.823 361.158,738.49 360,746.5C 357.565,751.224 353.731,752.724 348.5,751C 343.034,745.434 343.368,740.267 349.5,735.5 Z"/></g>
<g><path style="opacity:1" fill="#110f8d" d="M 406.5,735.5 C 414.511,734.852 418.011,738.519 417,746.5C 414.459,751.069 410.625,752.569 405.5,751C 401.723,748.089 400.556,744.256 402,739.5C 403.397,737.93 404.897,736.596 406.5,735.5 Z"/></g>
<g><path style="opacity:1" fill="#110f8d" d="M 462.5,735.5 C 473.3,735.766 476.3,740.6 471.5,750C 462.707,753.534 458.207,750.701 458,741.5C 459.332,739.34 460.832,737.34 462.5,735.5 Z"/></g>
<g><path style="opacity:1" fill="#110f8d" d="M 519.5,735.5 C 528.207,735.037 531.707,739.037 530,747.5C 527.398,751.212 523.898,752.378 519.5,751C 515.139,748.774 513.639,745.274 515,740.5C 516.025,738.313 517.525,736.646 519.5,735.5 Z"/></g>
<g><path style="opacity:1" fill="#110f8d" d="M 576.5,735.5 C 585.207,735.037 588.707,739.037 587,747.5C 582,752.833 577,752.833 572,747.5C 570.474,742.239 571.974,738.239 576.5,735.5 Z"/></g>
<g><path style="opacity:1" fill="#110f8d" d="M 633.5,735.5 C 641.658,734.823 645.158,738.49 644,746.5C 641.565,751.224 637.731,752.724 632.5,751C 626.939,745.353 627.272,740.186 633.5,735.5 Z"/></g>
<g><path style="opacity:1" fill="#110f8d" d="M 690.5,735.5 C 698.511,734.852 702.011,738.519 701,746.5C 698.459,751.069 694.625,752.569 689.5,751C 685.723,748.089 684.556,744.256 686,739.5C 687.397,737.93 688.897,736.596 690.5,735.5 Z"/></g>
<g><path style="opacity:1" fill="#110f8d" d="M 746.5,735.5 C 757.3,735.766 760.3,740.6 755.5,750C 746.707,753.534 742.207,750.701 742,741.5C 743.332,739.34 744.832,737.34 746.5,735.5 Z"/></g>
<g><path style="opacity:1" fill="#110f8d" d="M 803.5,735.5 C 812.207,735.037 815.707,739.037 814,747.5C 811.398,751.212 807.898,752.378 803.5,751C 799.139,748.774 797.639,745.274 799,740.5C 800.025,738.313 801.525,736.646 803.5,735.5 Z"/></g>
<g><path style="opacity:0.752" fill="#110f8d" d="M 173.5,793.5 C 179.116,791.051 183.116,792.718 185.5,798.5C 185.167,798.833 184.833,799.167 184.5,799.5C 180.939,797.221 177.273,795.221 173.5,793.5 Z"/></g>
<g><path style="opacity:1" fill="#110f8d" d="M 230.5,792.5 C 237.304,791.221 241.304,793.888 242.5,800.5C 241.592,806.959 237.926,809.459 231.5,808C 226.776,805.565 225.276,801.731 227,796.5C 228.376,795.295 229.542,793.962 230.5,792.5 Z"/></g>
<g><path style="opacity:1" fill="#110f8d" d="M 292.5,792.5 C 301.152,791.986 304.652,795.986 303,804.5C 297.514,810.08 292.514,809.747 288,803.5C 286.776,798.626 288.276,794.959 292.5,792.5 Z"/></g>
<g><path style="opacity:1" fill="#110f8d" d="M 348.5,792.5 C 355.49,790.838 359.49,793.505 360.5,800.5C 360.167,805.5 357.5,808.167 352.5,808.5C 345.727,807.303 343.227,803.303 345,796.5C 346.376,795.295 347.542,793.962 348.5,792.5 Z"/></g>
<g><path style="opacity:1" fill="#110f8d" d="M 405.5,792.5 C 416.832,792.344 419.832,797.177 414.5,807C 404.846,810.012 400.68,806.512 402,796.5C 403.376,795.295 404.542,793.962 405.5,792.5 Z"/></g>
<g><path style="opacity:1" fill="#110f8d" d="M 462.5,792.5 C 469.237,791.195 473.237,793.862 474.5,800.5C 472.891,806.957 468.891,809.457 462.5,808C 455.933,802.792 455.933,797.625 462.5,792.5 Z"/></g>
<g><path style="opacity:1" fill="#110f8d" d="M 519.5,792.5 C 528.152,791.986 531.652,795.986 530,804.5C 524.514,810.08 519.514,809.747 515,803.5C 513.776,798.626 515.276,794.959 519.5,792.5 Z"/></g>
<g><path style="opacity:1" fill="#110f8d" d="M 575.5,792.5 C 584.657,791.489 588.49,795.489 587,804.5C 582.62,809.343 577.954,809.677 573,805.5C 570.606,800.527 571.44,796.194 575.5,792.5 Z"/></g>
<g><path style="opacity:1" fill="#110f8d" d="M 632.5,792.5 C 639.49,790.838 643.49,793.505 644.5,800.5C 643.592,806.959 639.926,809.459 633.5,808C 628.776,805.565 627.276,801.731 629,796.5C 630.376,795.295 631.542,793.962 632.5,792.5 Z"/></g>
<g><path style="opacity:1" fill="#110f8d" d="M 689.5,792.5 C 700.832,792.344 703.832,797.177 698.5,807C 688.846,810.012 684.68,806.512 686,796.5C 687.376,795.295 688.542,793.962 689.5,792.5 Z"/></g>
<g><path style="opacity:0.949" fill="#110f8d" d="M 746.5,792.5 C 752.975,791.23 756.975,793.73 758.5,800C 754.948,803.219 751.115,806.052 747,808.5C 739.85,803.282 739.683,797.949 746.5,792.5 Z"/></g>
<g><path style="opacity:0.931" fill="#110f8d" d="M 348.5,849.5 C 357.341,848.339 361.008,852.006 359.5,860.5C 354.526,859.372 349.526,858.372 344.5,857.5C 344.343,856.127 344.51,854.793 345,853.5C 346.376,852.295 347.542,850.962 348.5,849.5 Z"/></g>
<g><path style="opacity:1" fill="#110f8d" d="M 411.5,865.5 C 409.833,865.5 408.167,865.5 406.5,865.5C 401.084,861.753 400.084,856.919 403.5,851C 410.755,847.458 415.421,849.458 417.5,857C 416.826,860.83 414.826,863.664 411.5,865.5 Z"/></g>
<g><path style="opacity:1" fill="#110f8d" d="M 468.5,865.5 C 466.833,865.5 465.167,865.5 463.5,865.5C 456.459,861.165 455.792,855.999 461.5,850C 471.474,847.973 475.307,851.807 473,861.5C 471.603,863.07 470.103,864.404 468.5,865.5 Z"/></g>
<g><path style="opacity:1" fill="#110f8d" d="M 525.5,865.5 C 523.833,865.5 522.167,865.5 520.5,865.5C 513.537,861.179 512.87,856.012 518.5,850C 528.333,847.833 532.167,851.667 530,861.5C 528.603,863.07 527.103,864.404 525.5,865.5 Z"/></g>
<g><path style="opacity:0.995" fill="#110f8d" d="M 582.5,865.5 C 580.833,865.5 579.167,865.5 577.5,865.5C 572.227,863.279 570.393,859.279 572,853.5C 575.771,849.212 580.271,848.379 585.5,851C 588.791,856.831 587.791,861.664 582.5,865.5 Z"/></g>
<g><path style="opacity:0.89" fill="#110f8d" d="M 632.5,849.5 C 637.538,848.448 641.538,849.948 644.5,854C 639.223,855.486 633.889,856.653 628.5,857.5C 628.278,853.944 629.611,851.277 632.5,849.5 Z"/></g>
</svg>
