<?xml version="1.0" encoding="UTF-8"?>
<!DOCTYPE svg PUBLIC "-//W3C//DTD SVG 1.1//EN" "http://www.w3.org/Graphics/SVG/1.1/DTD/svg11.dtd">
<svg xmlns="http://www.w3.org/2000/svg" version="1.1" width="113px" height="114px" style="shape-rendering:geometricPrecision; text-rendering:geometricPrecision; image-rendering:optimizeQuality; fill-rule:evenodd; clip-rule:evenodd" xmlns:xlink="http://www.w3.org/1999/xlink">
<g><path style="opacity:0.841" fill="#110f8d" d="M 78.5,-0.5 C 78.8333,-0.5 79.1667,-0.5 79.5,-0.5C 80.1667,0.833333 80.8333,0.833333 81.5,-0.5C 81.8333,-0.5 82.1667,-0.5 82.5,-0.5C 86.5,0.833333 90.5,0.833333 94.5,-0.5C 94.8333,-0.5 95.1667,-0.5 95.5,-0.5C 96.1667,0.833333 96.8333,0.833333 97.5,-0.5C 97.8333,-0.5 98.1667,-0.5 98.5,-0.5C 99.1667,0.833333 99.8333,0.833333 100.5,-0.5C 100.833,-0.5 101.167,-0.5 101.5,-0.5C 106.373,-0.625865 110.04,1.37413 112.5,5.5C 112.5,6.16667 112.5,6.83333 112.5,7.5C 111.167,8.16667 111.167,8.83333 112.5,9.5C 112.5,9.83333 112.5,10.1667 112.5,10.5C 111.167,11.1667 111.167,11.8333 112.5,12.5C 112.5,13.1667 112.5,13.8333 112.5,14.5C 111.167,14.8333 111.167,15.1667 112.5,15.5C 112.5,16.1667 112.5,16.8333 112.5,17.5C 111.167,17.8333 111.167,18.1667 112.5,18.5C 112.5,19.1667 112.5,19.8333 112.5,20.5C 111.167,20.8333 111.167,21.1667 112.5,21.5C 112.5,22.1667 112.5,22.8333 112.5,23.5C 111.167,23.8333 111.167,24.1667 112.5,24.5C 112.5,25.1667 112.5,25.8333 112.5,26.5C 111.167,26.8333 111.167,27.1667 112.5,27.5C 112.5,28.1667 112.5,28.8333 112.5,29.5C 111.167,30.1667 111.167,30.8333 112.5,31.5C 112.5,32.1667 112.5,32.8333 112.5,33.5C 111.167,33.8333 111.167,34.1667 112.5,34.5C 112.5,35.1667 112.5,35.8333 112.5,36.5C 111.167,36.8333 111.167,37.1667 112.5,37.5C 112.5,38.1667 112.5,38.8333 112.5,39.5C 111.167,39.8333 111.167,40.1667 112.5,40.5C 112.5,41.1667 112.5,41.8333 112.5,42.5C 111.167,42.8333 111.167,43.1667 112.5,43.5C 112.5,45.5 112.5,47.5 112.5,49.5C 111.167,49.8333 111.167,50.1667 112.5,50.5C 112.5,51.1667 112.5,51.8333 112.5,52.5C 111.167,52.8333 111.167,53.1667 112.5,53.5C 112.5,58.5 112.5,63.5 112.5,68.5C 111.167,68.8333 111.167,69.1667 112.5,69.5C 112.5,82.5 112.5,95.5 112.5,108.5C 110.727,110.433 108.561,111.766 106,112.5C 86.3025,112.136 66.6358,111.803 47,111.5C 36.4018,112.156 25.9018,112.823 15.5,113.5C 15.1667,113.5 14.8333,113.5 14.5,113.5C 11.3586,112.679 8.02523,112.179 4.5,112C 2.4164,110.499 1.08307,108.499 0.5,106C 0.298365,99.081 0.631699,92.081 1.5,85C 0.838596,63.7356 0.171929,42.5689 -0.5,21.5C -0.5,21.1667 -0.5,20.8333 -0.5,20.5C 0.833333,19.8333 0.833333,19.1667 -0.5,18.5C -0.5,18.1667 -0.5,17.8333 -0.5,17.5C 0.833333,16.8333 0.833333,16.1667 -0.5,15.5C -0.5,15.1667 -0.5,14.8333 -0.5,14.5C 0.833333,13.8333 0.833333,13.1667 -0.5,12.5C -0.5,11.8333 -0.5,11.1667 -0.5,10.5C 0.833333,10.1667 0.833333,9.83333 -0.5,9.5C -0.5,8.83333 -0.5,8.16667 -0.5,7.5C 0.700001,3.94944 3.2,1.6161 7,0.5C 20.2405,0.404413 33.5738,0.737747 47,1.5C 57.5982,0.843953 68.0982,0.177286 78.5,-0.5 Z M 14.5,12.5 C 42.4526,12.5474 70.7859,12.5474 99.5,12.5C 99.5861,43.1637 99.9194,71.8304 100.5,98.5C 95.2824,99.189 90.1157,99.8557 85,100.5C 61.2922,99.7922 37.4589,99.7922 13.5,100.5C 13.603,76.7199 13.2696,52.3866 12.5,27.5C 12.5551,22.2525 13.2218,17.2525 14.5,12.5 Z"/></g>
</svg>
