<?xml version="1.0" encoding="UTF-8"?>
<!DOCTYPE svg PUBLIC "-//W3C//DTD SVG 1.1//EN" "http://www.w3.org/Graphics/SVG/1.1/DTD/svg11.dtd">
<svg xmlns="http://www.w3.org/2000/svg" version="1.1" width="134px" height="119px" style="shape-rendering:geometricPrecision; text-rendering:geometricPrecision; image-rendering:optimizeQuality; fill-rule:evenodd; clip-rule:evenodd" xmlns:xlink="http://www.w3.org/1999/xlink">
<g><path style="opacity:0.849" fill="#110f8d" d="M 65.5,-0.5 C 66.1667,-0.5 66.8333,-0.5 67.5,-0.5C 70.8205,1.6675 73.3205,4.6675 75,8.5C 94.2604,42.6936 113.76,76.6936 133.5,110.5C 133.5,111.5 133.5,112.5 133.5,113.5C 132.596,114.209 132.263,115.209 132.5,116.5C 129.627,116.802 126.961,117.469 124.5,118.5C 124.167,118.5 123.833,118.5 123.5,118.5C 122.833,117.167 122.167,117.167 121.5,118.5C 121.167,118.5 120.833,118.5 120.5,118.5C 119.833,117.167 119.167,117.167 118.5,118.5C 118.167,118.5 117.833,118.5 117.5,118.5C 116.833,117.167 116.167,117.167 115.5,118.5C 115.167,118.5 114.833,118.5 114.5,118.5C 113.833,117.167 113.167,117.167 112.5,118.5C 112.167,118.5 111.833,118.5 111.5,118.5C 110.833,117.167 110.167,117.167 109.5,118.5C 109.167,118.5 108.833,118.5 108.5,118.5C 107.833,117.167 107.167,117.167 106.5,118.5C 106.167,118.5 105.833,118.5 105.5,118.5C 104.833,117.167 104.167,117.167 103.5,118.5C 103.167,118.5 102.833,118.5 102.5,118.5C 101.833,117.167 101.167,117.167 100.5,118.5C 100.167,118.5 99.8333,118.5 99.5,118.5C 85.5,117.167 71.5,117.167 57.5,118.5C 57.1667,118.5 56.8333,118.5 56.5,118.5C 55.8333,117.167 55.1667,117.167 54.5,118.5C 54.1667,118.5 53.8333,118.5 53.5,118.5C 51.8333,117.167 50.1667,117.167 48.5,118.5C 48.1667,118.5 47.8333,118.5 47.5,118.5C 32.6723,117.669 17.6723,117.169 2.5,117C 1.75618,115.961 0.75618,115.461 -0.5,115.5C -0.5,113.167 -0.5,110.833 -0.5,108.5C 19.9128,74.8009 39.7462,40.8009 59,6.5C 60.6941,3.64238 62.8607,1.30904 65.5,-0.5 Z M 15.5,105.5 C 32.5021,76.1507 49.5021,46.8174 66.5,17.5C 83.9729,46.9501 101.306,76.4501 118.5,106C 83.6658,106.67 49.3325,106.504 15.5,105.5 Z"/></g>
</svg>
