<?xml version="1.0" encoding="UTF-8"?>
<!DOCTYPE svg PUBLIC "-//W3C//DTD SVG 1.1//EN" "http://www.w3.org/Graphics/SVG/1.1/DTD/svg11.dtd">
<svg xmlns="http://www.w3.org/2000/svg" version="1.1" width="182px" height="49px" style="shape-rendering:geometricPrecision; text-rendering:geometricPrecision; image-rendering:optimizeQuality; fill-rule:evenodd; clip-rule:evenodd" xmlns:xlink="http://www.w3.org/1999/xlink">
<g><path style="opacity:0.842" fill="#110f8d" d="M 6.5,-0.5 C 6.83333,-0.5 7.16667,-0.5 7.5,-0.5C 19.0109,2.16178 27.5109,8.82845 33,19.5C 34.6667,22.8333 36.3333,26.1667 38,29.5C 42.7394,36.5111 48.2394,37.8444 54.5,33.5C 58.7702,26.0549 63.2702,18.7216 68,11.5C 73.5378,4.99119 80.3712,0.991187 88.5,-0.5C 89.1667,-0.5 89.8333,-0.5 90.5,-0.5C 90.8333,0.833333 91.1667,0.833333 91.5,-0.5C 91.8333,-0.5 92.1667,-0.5 92.5,-0.5C 92.8333,0.833333 93.1667,0.833333 93.5,-0.5C 93.8333,-0.5 94.1667,-0.5 94.5,-0.5C 108.419,3.92084 117.586,13.2542 122,27.5C 122.333,27.1667 122.667,26.8333 123,26.5C 128.064,38.5853 134.731,39.5853 143,29.5C 147.233,18.2844 154.066,9.11776 163.5,2C 164.766,1.69055 165.933,1.19055 167,0.5C 168.313,1.28711 169.48,0.953781 170.5,-0.5C 171.167,-0.5 171.833,-0.5 172.5,-0.5C 172.833,0.833333 173.167,0.833333 173.5,-0.5C 174.167,-0.5 174.833,-0.5 175.5,-0.5C 175.833,0.833333 176.167,0.833333 176.5,-0.5C 176.833,-0.5 177.167,-0.5 177.5,-0.5C 178.795,0.488369 180.128,1.48837 181.5,2.5C 181.5,4.16667 181.5,5.83333 181.5,7.5C 179.421,10.0184 176.921,11.0184 174,10.5C 170.788,11.8554 167.622,13.3554 164.5,15C 159.304,22.5495 154.47,30.3828 150,38.5C 138.348,49.9027 127.015,49.9027 116,38.5C 112.032,31.3694 107.866,24.3694 103.5,17.5C 91.9109,8.36435 82.0776,10.031 74,22.5C 70.5407,30.5829 65.7073,37.7495 59.5,44C 55.4973,45.8494 51.4973,47.3494 47.5,48.5C 47.1667,48.5 46.8333,48.5 46.5,48.5C 40.7913,46.807 35.7913,43.807 31.5,39.5C 26.6217,31.0227 21.2884,22.856 15.5,15C 10.1748,12.3629 4.84143,10.5295 -0.5,9.5C -0.5,7.5 -0.5,5.5 -0.5,3.5C 1.48821,1.50855 3.82154,0.175216 6.5,-0.5 Z"/></g>
</svg>
