<?xml version="1.0" encoding="UTF-8"?>
<!DOCTYPE svg PUBLIC "-//W3C//DTD SVG 1.1//EN" "http://www.w3.org/Graphics/SVG/1.1/DTD/svg11.dtd">
<svg xmlns="http://www.w3.org/2000/svg" version="1.1" width="511px" height="430px" style="shape-rendering:geometricPrecision; text-rendering:geometricPrecision; image-rendering:optimizeQuality; fill-rule:evenodd; clip-rule:evenodd" xmlns:xlink="http://www.w3.org/1999/xlink">
<g><path style="opacity:0.995" fill="#110f8d" d="M 118.5,-0.5 C 127.5,-0.5 136.5,-0.5 145.5,-0.5C 157.097,1.73922 168.43,5.23922 179.5,10C 197.5,19.3333 215.5,28.6667 233.5,38C 250.497,45.3328 268.163,50.3328 286.5,53C 327.312,56.3539 367.645,62.6873 407.5,72C 450.469,84.2973 481.969,110.464 502,150.5C 505.786,159.67 508.62,169.003 510.5,178.5C 510.5,188.167 510.5,197.833 510.5,207.5C 502.789,248.256 484.955,283.923 457,314.5C 429.33,343.415 397.497,366.582 361.5,384C 314.867,408.381 265.533,423.548 213.5,429.5C 198.5,429.5 183.5,429.5 168.5,429.5C 120.379,424.855 79.212,405.521 45,371.5C 26.0019,346.885 13.3353,319.219 7,288.5C 3.66896,272.483 1.16896,256.483 -0.5,240.5C -0.5,221.833 -0.5,203.167 -0.5,184.5C 1.87854,152.972 8.71188,122.306 20,92.5C 32.8458,64.3226 51.0124,40.1559 74.5,20C 87.5763,9.62691 102.243,2.79358 118.5,-0.5 Z"/></g>
</svg>
