<?xml version="1.0" encoding="UTF-8"?>
<!DOCTYPE svg PUBLIC "-//W3C//DTD SVG 1.1//EN" "http://www.w3.org/Graphics/SVG/1.1/DTD/svg11.dtd">
<svg xmlns="http://www.w3.org/2000/svg" version="1.1" width="51px" height="50px" style="shape-rendering:geometricPrecision; text-rendering:geometricPrecision; image-rendering:optimizeQuality; fill-rule:evenodd; clip-rule:evenodd" xmlns:xlink="http://www.w3.org/1999/xlink">
<g><path style="opacity:1" fill="#110f8d" d="M 3.5,-0.5 C 4.16667,-0.5 4.83333,-0.5 5.5,-0.5C 11.5081,6.34143 18.0081,12.6748 25,18.5C 31.9919,12.6748 38.4919,6.34143 44.5,-0.5C 45.1667,-0.5 45.8333,-0.5 46.5,-0.5C 47.5,1.16667 48.8333,2.5 50.5,3.5C 50.5,3.83333 50.5,4.16667 50.5,4.5C 43.521,10.8123 36.8543,17.479 30.5,24.5C 36.4852,30.9855 42.6519,37.3189 49,43.5C 49.6667,44.1667 49.6667,44.8333 49,45.5C 47.6244,46.7051 46.4577,48.0384 45.5,49.5C 45.1667,49.5 44.8333,49.5 44.5,49.5C 38.2027,42.7018 31.7027,36.0352 25,29.5C 18.2973,36.0352 11.7973,42.7018 5.5,49.5C 4.83333,49.5 4.16667,49.5 3.5,49.5C 2.5,47.8333 1.16667,46.5 -0.5,45.5C -0.5,45.1667 -0.5,44.8333 -0.5,44.5C 6.47899,38.1877 13.1457,31.521 19.5,24.5C 13.1457,17.479 6.47899,10.8123 -0.5,4.5C -0.5,4.16667 -0.5,3.83333 -0.5,3.5C 1.16667,2.5 2.5,1.16667 3.5,-0.5 Z"/></g>
</svg>
