<?xml version="1.0" encoding="UTF-8"?>
<!DOCTYPE svg PUBLIC "-//W3C//DTD SVG 1.1//EN" "http://www.w3.org/Graphics/SVG/1.1/DTD/svg11.dtd">
<svg xmlns="http://www.w3.org/2000/svg" version="1.1" width="512px" height="512px" style="shape-rendering:geometricPrecision; text-rendering:geometricPrecision; image-rendering:optimizeQuality; fill-rule:evenodd; clip-rule:evenodd" xmlns:xlink="http://www.w3.org/1999/xlink">
<g><path style="opacity:0.952" fill="#110f8d" d="M 31.5,-0.5 C 109.167,-0.5 186.833,-0.5 264.5,-0.5C 282.419,4.92657 293.252,16.9266 297,35.5C 297.5,51.1631 297.667,66.8298 297.5,82.5C 291.5,82.5 285.5,82.5 279.5,82.5C 279.5,77.1667 279.5,71.8333 279.5,66.5C 191.833,66.5 104.167,66.5 16.5,66.5C 16.5,181.833 16.5,297.167 16.5,412.5C 10.8333,412.5 5.16667,412.5 -0.5,412.5C -0.5,285.5 -0.5,158.5 -0.5,31.5C 4.5,15.1667 15.1667,4.5 31.5,-0.5 Z M 36.5,16.5 C 111.167,16.3333 185.834,16.5 260.5,17C 275.28,22.3021 281.613,32.8021 279.5,48.5C 191.833,48.5 104.167,48.5 16.5,48.5C 14.7514,32.3032 21.4181,21.6365 36.5,16.5 Z"/></g>
<g><path style="opacity:0.944" fill="#110f8d" d="M 362.5,65.5 C 368.167,65.5 373.833,65.5 379.5,65.5C 379.5,71.1667 379.5,76.8333 379.5,82.5C 373.833,82.5 368.167,82.5 362.5,82.5C 362.5,76.8333 362.5,71.1667 362.5,65.5 Z"/></g>
<g><path style="opacity:0.929" fill="#110f8d" d="M 116.5,81.5 C 132.181,81.1673 147.848,81.5006 163.5,82.5C 165.602,92.1753 167.769,101.842 170,111.5C 171.085,112.293 172.252,112.96 173.5,113.5C 181.167,108.333 188.833,103.167 196.5,98C 197.759,97.0181 199.092,96.6848 200.5,97C 209.333,105.833 218.167,114.667 227,123.5C 227.667,124.5 227.667,125.5 227,126.5C 223.318,130.349 219.485,134.016 215.5,137.5C 209.167,131.5 202.833,125.5 196.5,119.5C 189.458,124.379 182.291,129.045 175,133.5C 168.621,130.54 162.121,127.874 155.5,125.5C 152.619,117.104 150.619,108.437 149.5,99.5C 143.167,99.5 136.833,99.5 130.5,99.5C 129.133,108.339 127.133,117.006 124.5,125.5C 117.718,127.483 111.218,130.149 105,133.5C 97.4325,128.965 89.9325,124.298 82.5,119.5C 78.0149,123.485 73.6816,127.651 69.5,132C 74.376,139.586 79.376,147.086 84.5,154.5C 80.8042,161.055 77.8042,167.889 75.5,175C 66.9078,176.585 58.4078,178.418 50,180.5C 49.3333,186.5 49.3333,192.5 50,198.5C 58.4616,200.326 66.9616,202.16 75.5,204C 77.1334,208.563 78.9667,213.063 81,217.5C 81.7805,218.944 81.6139,220.277 80.5,221.5C 75.9215,223.706 71.4215,226.039 67,228.5C 65.0404,225.415 63.2071,222.248 61.5,219C 51.8574,216.971 42.1907,215.138 32.5,213.5C 32.5,197.5 32.5,181.5 32.5,165.5C 42.7437,163.92 52.7437,161.587 62.5,158.5C 63.7615,156.425 63.5948,154.425 62,152.5C 56.7865,145.238 51.9532,137.738 47.5,130C 57.7908,118.708 68.4575,107.708 79.5,97C 88.5796,101.361 97.2462,106.695 105.5,113C 106.908,113.315 108.241,112.982 109.5,112C 112.025,101.873 114.359,91.7062 116.5,81.5 Z"/></g>
<g><path style="opacity:0.944" fill="#110f8d" d="M 362.5,98.5 C 368.167,98.5 373.833,98.5 379.5,98.5C 379.5,104.167 379.5,109.833 379.5,115.5C 373.833,115.5 368.167,115.5 362.5,115.5C 362.5,109.833 362.5,104.167 362.5,98.5 Z"/></g>
<g><path style="opacity:0.944" fill="#110f8d" d="M 362.5,131.5 C 368.167,131.5 373.833,131.5 379.5,131.5C 379.5,137.167 379.5,142.833 379.5,148.5C 373.833,148.5 368.167,148.5 362.5,148.5C 362.5,142.833 362.5,137.167 362.5,131.5 Z"/></g>
<g><path style="opacity:0.933" fill="#110f8d" d="M 134.5,147.5 C 162.572,147.411 178.239,161.244 181.5,189C 179.493,214.674 165.66,228.84 140,231.5C 110.058,227.56 96.3917,210.56 99,180.5C 104.312,162.35 116.146,151.35 134.5,147.5 Z M 133.5,165.5 C 151.447,163.789 161.78,171.789 164.5,189.5C 161.807,206.678 151.807,214.511 134.5,213C 116.399,205.632 111.566,193.132 120,175.5C 123.802,171.037 128.302,167.703 133.5,165.5 Z"/></g>
<g><path style="opacity:0.929" fill="#110f8d" d="M 211.5,150.5 C 212.496,150.414 213.329,150.748 214,151.5C 215.275,153.717 216.275,156.051 217,158.5C 226.964,161.527 237.131,163.861 247.5,165.5C 247.5,181.5 247.5,197.5 247.5,213.5C 237.024,214.893 226.857,217.226 217,220.5C 216.626,221.416 216.126,222.25 215.5,223C 221.575,231.407 227.242,240.074 232.5,249C 222.209,260.292 211.542,271.292 200.5,282C 191.42,277.639 182.754,272.305 174.5,266C 172.893,266.019 171.226,266.185 169.5,266.5C 167.885,276.576 165.885,286.576 163.5,296.5C 147.844,297.666 132.177,297.833 116.5,297C 114.294,286.971 111.961,276.971 109.5,267C 107.5,265 105.5,265 103.5,267C 95.8333,272.167 88.1667,277.333 80.5,282.5C 70.6808,273.181 61.0141,263.681 51.5,254C 55.6667,249.833 59.8333,245.667 64,241.5C 70.0145,247.682 76.1812,253.682 82.5,259.5C 89.9325,254.702 97.4325,250.035 105,245.5C 111.379,248.46 117.879,251.126 124.5,253.5C 127.133,261.994 129.133,270.661 130.5,279.5C 136.833,279.5 143.167,279.5 149.5,279.5C 150.619,270.563 152.619,261.896 155.5,253.5C 161.954,251.106 168.287,248.44 174.5,245.5C 182.214,249.776 189.714,254.443 197,259.5C 201,255.5 205,251.5 209,247.5C 209.667,246.5 209.667,245.5 209,244.5C 204.304,237.97 199.804,231.303 195.5,224.5C 199.36,217.915 202.027,210.915 203.5,203.5C 212.264,202.347 220.931,200.68 229.5,198.5C 230.664,192.528 230.83,186.528 230,180.5C 221.592,178.418 213.092,176.585 204.5,175C 202.442,169.55 200.108,164.216 197.5,159C 202.397,156.392 207.063,153.559 211.5,150.5 Z"/></g>
<g><path style="opacity:0.938" fill="#110f8d" d="M 338.5,164.5 C 360.167,164.5 381.833,164.5 403.5,164.5C 405.782,177.91 408.449,191.243 411.5,204.5C 413.187,205.568 414.854,205.401 416.5,204C 426.741,196.758 437.241,189.924 448,183.5C 461.973,196.306 475.473,209.639 488.5,223.5C 484.833,227.833 480.833,231.833 476.5,235.5C 466.181,225.681 456.014,215.681 446,205.5C 436.167,212 426.333,218.5 416.5,225C 415.167,225.667 413.833,225.667 412.5,225C 407.071,222.136 401.405,219.969 395.5,218.5C 393.68,206.402 391.347,194.402 388.5,182.5C 376.852,181.501 365.186,181.168 353.5,181.5C 351.4,192.499 349.234,203.499 347,214.5C 346.801,216.402 345.967,217.902 344.5,219C 339.387,220.723 334.387,222.723 329.5,225C 328.167,225.667 326.833,225.667 325.5,225C 315.752,218.376 305.919,211.876 296,205.5C 287.833,213.667 279.667,221.833 271.5,230C 278,239.833 284.5,249.667 291,259.5C 291.667,260.833 291.667,262.167 291,263.5C 288.557,268.72 286.39,274.053 284.5,279.5C 272.286,282.676 259.953,285.343 247.5,287.5C 247.168,299.186 247.501,310.852 248.5,322.5C 260.529,325.039 272.529,327.706 284.5,330.5C 286.068,335.039 287.735,339.539 289.5,344C 284.853,347.327 279.853,350.16 274.5,352.5C 273.443,349.542 271.777,347.042 269.5,345C 256.567,342.067 243.567,339.567 230.5,337.5C 230.5,315.833 230.5,294.167 230.5,272.5C 243.88,270.324 257.213,267.824 270.5,265C 271.672,263.132 271.505,261.298 270,259.5C 263.667,250.167 257.333,240.833 251,231.5C 249.813,229.956 249.48,228.289 250,226.5C 264.167,212.333 278.333,198.167 292.5,184C 293.833,183.333 295.167,183.333 296.5,184C 306.833,191 317.167,198 327.5,205C 328.5,205.667 329.5,205.667 330.5,205C 333.739,191.638 336.406,178.138 338.5,164.5 Z"/></g>
<g><path style="opacity:0.937" fill="#110f8d" d="M 360.5,255.5 C 391.122,252.376 410.955,265.376 420,294.5C 423.889,320.223 414.389,339.056 391.5,351C 367.804,359.534 347.637,354.368 331,335.5C 319.128,316.594 318.462,297.261 329,277.5C 336.942,266.374 347.442,259.041 360.5,255.5 Z M 365.5,272.5 C 384.645,271.651 397.145,280.318 403,298.5C 405.193,318.952 396.36,331.785 376.5,337C 356.201,338.436 343.701,329.27 339,309.5C 338.038,290.074 346.871,277.741 365.5,272.5 Z"/></g>
<g><path style="opacity:0.94" fill="#110f8d" d="M 511.5,272.5 C 511.5,294.167 511.5,315.833 511.5,337.5C 498.09,339.782 484.757,342.449 471.5,345.5C 470.417,346.365 470.251,347.365 471,348.5C 478.624,359.58 486.124,370.747 493.5,382C 478.333,397.167 463.167,412.333 448,427.5C 436.659,419.33 424.992,411.663 413,404.5C 412.5,404.833 412,405.167 411.5,405.5C 408.449,418.757 405.782,432.09 403.5,445.5C 381.833,445.5 360.167,445.5 338.5,445.5C 336.406,431.862 333.739,418.362 330.5,405C 329.5,404.333 328.5,404.333 327.5,405C 316.42,412.624 305.253,420.124 294,427.5C 280.5,414 267,400.5 253.5,387C 257.667,382.833 261.833,378.667 266,374.5C 276.014,384.681 286.181,394.681 296.5,404.5C 306.167,398 315.833,391.5 325.5,385C 326.833,384.333 328.167,384.333 329.5,385C 334.929,387.864 340.595,390.031 346.5,391.5C 348.705,403.858 351.038,416.192 353.5,428.5C 365.186,428.832 376.852,428.499 388.5,427.5C 391.347,415.598 393.68,403.598 395.5,391.5C 401.405,390.031 407.071,387.864 412.5,385C 413.833,384.333 415.167,384.333 416.5,385C 426.333,391.5 436.167,398 446,404.5C 454.348,396.319 462.514,387.986 470.5,379.5C 464,369.833 457.5,360.167 451,350.5C 450.333,349.167 450.333,347.833 451,346.5C 453.864,341.071 456.031,335.405 457.5,329.5C 469.598,327.68 481.598,325.347 493.5,322.5C 494.499,310.852 494.832,299.186 494.5,287.5C 482.241,284.781 469.907,282.448 457.5,280.5C 456.273,275.539 454.606,270.706 452.5,266C 457.147,262.673 462.147,259.84 467.5,257.5C 468.926,259.937 470.259,262.437 471.5,265C 484.787,267.824 498.12,270.324 511.5,272.5 Z"/></g>
<g><path style="opacity:0.892" fill="#110f8d" d="M 131.5,312.5 C 137.167,312.5 142.833,312.5 148.5,312.5C 148.5,318.5 148.5,324.5 148.5,330.5C 142.833,330.5 137.167,330.5 131.5,330.5C 131.5,324.5 131.5,318.5 131.5,312.5 Z"/></g>
<g><path style="opacity:0.892" fill="#110f8d" d="M 131.5,345.5 C 137.167,345.5 142.833,345.5 148.5,345.5C 148.5,351.5 148.5,357.5 148.5,363.5C 142.833,363.5 137.167,363.5 131.5,363.5C 131.5,357.5 131.5,351.5 131.5,345.5 Z"/></g>
<g><path style="opacity:0.892" fill="#110f8d" d="M 131.5,378.5 C 137.167,378.5 142.833,378.5 148.5,378.5C 148.5,384.5 148.5,390.5 148.5,396.5C 142.833,396.5 137.167,396.5 131.5,396.5C 131.5,390.5 131.5,384.5 131.5,378.5 Z"/></g>
<g><path style="opacity:0.964" fill="#110f8d" d="M -0.5,428.5 C 98.8333,428.5 198.167,428.5 297.5,428.5C 297.667,444.17 297.5,459.837 297,475.5C 293.283,494.045 282.449,506.045 264.5,511.5C 186.833,511.5 109.167,511.5 31.5,511.5C 15.1667,506.5 4.5,495.833 -0.5,479.5C -0.5,462.5 -0.5,445.5 -0.5,428.5 Z M 16.5,445.5 C 104.167,445.5 191.833,445.5 279.5,445.5C 279.666,455.506 279.5,465.506 279,475.5C 276.687,483.816 271.52,489.649 263.5,493C 225.225,494.158 186.892,494.658 148.5,494.5C 109.788,494.655 71.1214,494.155 32.5,493C 25.6667,490.167 20.8333,485.333 18,478.5C 16.5939,467.564 16.0939,456.564 16.5,445.5 Z"/></g>
<g><path style="opacity:0.967" fill="#110f8d" d="M 106.5,461.5 C 134.167,461.5 161.833,461.5 189.5,461.5C 189.5,467.167 189.5,472.833 189.5,478.5C 161.833,478.5 134.167,478.5 106.5,478.5C 106.5,472.833 106.5,467.167 106.5,461.5 Z"/></g>
</svg>
