<?xml version="1.0" encoding="UTF-8"?>
<!DOCTYPE svg PUBLIC "-//W3C//DTD SVG 1.1//EN" "http://www.w3.org/Graphics/SVG/1.1/DTD/svg11.dtd">
<svg xmlns="http://www.w3.org/2000/svg" version="1.1" width="512px" height="512px" style="shape-rendering:geometricPrecision; text-rendering:geometricPrecision; image-rendering:optimizeQuality; fill-rule:evenodd; clip-rule:evenodd" xmlns:xlink="http://www.w3.org/1999/xlink">
<g><path style="opacity:0.954" fill="#110f8d" d="M 511.5,25.5 C 511.5,150.833 511.5,276.167 511.5,401.5C 508.302,415.699 499.635,424.699 485.5,428.5C 486.897,437.217 483.563,443.05 475.5,446C 427.834,446.5 380.168,446.667 332.5,446.5C 332.5,449.5 332.5,452.5 332.5,455.5C 371.142,449.027 387.642,465.027 382,503.5C 380.695,506.961 378.529,509.628 375.5,511.5C 295.167,511.5 214.833,511.5 134.5,511.5C 132.193,510.023 130.36,508.023 129,505.5C 121.861,466.471 138.027,449.804 177.5,455.5C 177.5,446.833 177.5,438.167 177.5,429.5C 152.831,429.667 128.164,429.5 103.5,429C 98.7762,426.565 97.2762,422.731 99,417.5C 100.214,415.951 101.714,414.785 103.5,414C 157.832,413.5 212.166,413.333 266.5,413.5C 266.334,405.826 266.5,398.159 267,390.5C 270.721,381.969 277.221,378.636 286.5,380.5C 286.5,376.5 286.5,372.5 286.5,368.5C 195.833,368.5 105.167,368.5 14.5,368.5C 14.3335,377.839 14.5002,387.173 15,396.5C 16.0807,404.843 20.5807,410.343 28.5,413C 40.1667,413.333 51.8333,413.667 63.5,414C 68.0685,416.541 69.5685,420.375 68,425.5C 66.786,427.049 65.286,428.215 63.5,429C 49.7774,429.926 36.1107,429.593 22.5,428C 10.6704,424.124 3.00372,416.291 -0.5,404.5C -0.5,278.167 -0.5,151.833 -0.5,25.5C 3.31807,12.8496 11.6514,4.68291 24.5,1C 178.5,0.333333 332.5,0.333333 486.5,1C 499.349,4.68291 507.682,12.8496 511.5,25.5 Z M 32.5,15.5 C 181.167,15.3333 329.834,15.5 478.5,16C 486.7,17.1998 492.2,21.6998 495,29.5C 495.5,48.4971 495.667,67.4971 495.5,86.5C 335.5,86.5 175.5,86.5 15.5,86.5C 15.3334,67.4971 15.5001,48.4971 16,29.5C 18.9676,21.6884 24.4676,17.0218 32.5,15.5 Z M 53.5,44.5 C 61.9319,46.514 63.2652,50.6807 57.5,57C 50.6667,58.1667 47.8333,55.3333 49,48.5C 50.3968,46.9297 51.8968,45.5964 53.5,44.5 Z M 109.5,44.5 C 117.932,46.514 119.265,50.6807 113.5,57C 106.667,58.1667 103.833,55.3333 105,48.5C 106.397,46.9297 107.897,45.5964 109.5,44.5 Z M 165.5,44.5 C 173.932,46.514 175.265,50.6807 169.5,57C 162.667,58.1667 159.833,55.3333 161,48.5C 162.397,46.9297 163.897,45.5964 165.5,44.5 Z M 14.5,102.5 C 174.833,102.5 335.167,102.5 495.5,102.5C 495.5,185.833 495.5,269.167 495.5,352.5C 492.167,352.5 488.833,352.5 485.5,352.5C 485.667,337.83 485.5,323.163 485,308.5C 481.087,300.293 474.587,296.959 465.5,298.5C 465.5,293.5 465.5,288.5 465.5,283.5C 474.59,284.984 481.09,281.65 485,273.5C 485.667,257.833 485.667,242.167 485,226.5C 482.96,221.124 479.127,217.957 473.5,217C 457.833,216.333 442.167,216.333 426.5,217C 421.094,218.98 419.261,222.814 421,228.5C 422.167,229.667 423.333,230.833 424.5,232C 439.496,232.5 454.496,232.667 469.5,232.5C 469.5,244.167 469.5,255.833 469.5,267.5C 407.167,267.5 344.833,267.5 282.5,267.5C 282.5,255.833 282.5,244.167 282.5,232.5C 316.835,232.667 351.168,232.5 385.5,232C 389.753,228.58 390.587,224.413 388,219.5C 387.097,218.299 385.931,217.465 384.5,217C 349.167,216.333 313.833,216.333 278.5,217C 272.412,218.09 268.579,221.59 267,227.5C 266.333,242.5 266.333,257.5 267,272.5C 270.36,281.436 276.86,285.103 286.5,283.5C 286.5,288.5 286.5,293.5 286.5,298.5C 277.41,297.016 270.91,300.35 267,308.5C 266.5,323.163 266.333,337.83 266.5,352.5C 182.5,352.5 98.5,352.5 14.5,352.5C 14.5,269.167 14.5,185.833 14.5,102.5 Z M 302.5,283.5 C 351.5,283.5 400.5,283.5 449.5,283.5C 449.5,288.5 449.5,293.5 449.5,298.5C 400.5,298.5 351.5,298.5 302.5,298.5C 302.5,293.5 302.5,288.5 302.5,283.5 Z M 282.5,314.5 C 344.833,314.5 407.167,314.5 469.5,314.5C 469.5,326.167 469.5,337.833 469.5,349.5C 407.167,349.5 344.833,349.5 282.5,349.5C 282.5,337.833 282.5,326.167 282.5,314.5 Z M 302.5,365.5 C 351.5,365.5 400.5,365.5 449.5,365.5C 449.5,370.5 449.5,375.5 449.5,380.5C 400.5,380.5 351.5,380.5 302.5,380.5C 302.5,375.5 302.5,370.5 302.5,365.5 Z M 465.5,368.5 C 475.5,368.5 485.5,368.5 495.5,368.5C 495.666,378.839 495.5,389.172 495,399.5C 493.889,404.941 490.889,408.941 486,411.5C 485.937,403.397 485.27,395.397 484,387.5C 479.538,381.077 473.371,378.744 465.5,380.5C 465.5,376.5 465.5,372.5 465.5,368.5 Z M 282.5,395.5 C 344.833,395.5 407.167,395.5 469.5,395.5C 469.5,407.167 469.5,418.833 469.5,430.5C 407.167,430.5 344.833,430.5 282.5,430.5C 282.5,418.833 282.5,407.167 282.5,395.5 Z M 193.5,429.5 C 217.833,429.5 242.167,429.5 266.5,429.5C 265.971,435.944 268.305,441.111 273.5,445C 287.761,446.449 302.094,446.949 316.5,446.5C 316.5,449.5 316.5,452.5 316.5,455.5C 275.5,455.5 234.5,455.5 193.5,455.5C 193.5,446.833 193.5,438.167 193.5,429.5 Z M 152.5,471.5 C 221.167,471.333 289.834,471.5 358.5,472C 362,473.5 364.5,476 366,479.5C 366.499,485.157 366.666,490.824 366.5,496.5C 292.167,496.5 217.833,496.5 143.5,496.5C 143.139,490.407 143.639,484.407 145,478.5C 146.742,475.254 149.242,472.921 152.5,471.5 Z"/></g>
<g><path style="opacity:0.925" fill="#110f8d" d="M 51.5,28.5 C 68.6434,28.8091 77.1434,37.4758 77,54.5C 73.2541,69.3009 63.7541,75.4675 48.5,73C 32.6782,65.8762 28.5115,54.3762 36,38.5C 39.9002,32.98 45.0669,29.6466 51.5,28.5 Z M 53.5,44.5 C 51.8968,45.5964 50.3968,46.9297 49,48.5C 47.8333,55.3333 50.6667,58.1667 57.5,57C 63.2652,50.6807 61.9319,46.514 53.5,44.5 Z"/></g>
<g><path style="opacity:0.926" fill="#110f8d" d="M 107.5,28.5 C 124.643,28.8091 133.143,37.4758 133,54.5C 127.651,71.5909 116.484,77.0909 99.5,71C 87.8674,62.3991 85.3674,51.5658 92,38.5C 95.9002,32.98 101.067,29.6466 107.5,28.5 Z M 109.5,44.5 C 107.897,45.5964 106.397,46.9297 105,48.5C 103.833,55.3333 106.667,58.1667 113.5,57C 119.265,50.6807 117.932,46.514 109.5,44.5 Z"/></g>
<g><path style="opacity:0.925" fill="#110f8d" d="M 163.5,28.5 C 180.643,28.8091 189.143,37.4758 189,54.5C 183.651,71.5909 172.484,77.0909 155.5,71C 143.867,62.3991 141.367,51.5658 148,38.5C 151.863,32.9945 157.029,29.6611 163.5,28.5 Z M 165.5,44.5 C 163.897,45.5964 162.397,46.9297 161,48.5C 159.833,55.3333 162.667,58.1667 169.5,57C 175.265,50.6807 173.932,46.514 165.5,44.5 Z"/></g>
<g><path style="opacity:0.9" fill="#110f8d" d="M 61.5,126.5 C 69.6616,126.498 72.8283,130.498 71,138.5C 65.0172,145.317 58.8505,151.984 52.5,158.5C 58.8505,165.016 65.0172,171.683 71,178.5C 71.7611,188.068 67.5944,191.235 58.5,188C 50.3333,179.833 42.1667,171.667 34,163.5C 31.7979,159.258 32.1312,155.258 35,151.5C 43.427,142.568 52.2603,134.235 61.5,126.5 Z"/></g>
<g><path style="opacity:0.912" fill="#110f8d" d="M 99.5,126.5 C 107.717,126.547 110.883,130.547 109,138.5C 102.863,154.579 96.5292,170.579 90,186.5C 85.0419,190.715 80.3752,190.381 76,185.5C 75.3333,183.167 75.3333,180.833 76,178.5C 82,163.167 88,147.833 94,132.5C 95.3597,129.977 97.193,127.977 99.5,126.5 Z"/></g>
<g><path style="opacity:0.911" fill="#110f8d" d="M 117.5,126.5 C 119.989,126.298 122.323,126.798 124.5,128C 133,136.5 141.5,145 150,153.5C 151.879,156.8 151.879,160.134 150,163.5C 141.833,171.667 133.667,179.833 125.5,188C 115.093,191.571 110.927,188.071 113,177.5C 119.348,171.319 125.515,164.986 131.5,158.5C 125.149,151.984 118.983,145.317 113,138.5C 111.029,133.249 112.529,129.249 117.5,126.5 Z"/></g>
<g><path style="opacity:0.905" fill="#110f8d" d="M 170.5,148.5 C 180.506,148.334 190.506,148.5 200.5,149C 205.102,151.038 206.936,154.538 206,159.5C 205.167,161.667 203.667,163.167 201.5,164C 190.5,164.667 179.5,164.667 168.5,164C 164.247,160.58 163.413,156.413 166,151.5C 167.409,150.219 168.909,149.219 170.5,148.5 Z"/></g>
<g><path style="opacity:0.928" fill="#110f8d" d="M 225.5,148.5 C 279.501,148.333 333.501,148.5 387.5,149C 395.027,153.661 395.361,158.661 388.5,164C 333.5,164.667 278.5,164.667 223.5,164C 219.247,160.58 218.413,156.413 221,151.5C 222.409,150.219 223.909,149.219 225.5,148.5 Z"/></g>
<g><path style="opacity:0.92" fill="#110f8d" d="M 170.5,181.5 C 189.836,181.333 209.17,181.5 228.5,182C 236.067,186.58 236.401,191.58 229.5,197C 209.167,197.667 188.833,197.667 168.5,197C 164.247,193.58 163.413,189.413 166,184.5C 167.409,183.219 168.909,182.219 170.5,181.5 Z"/></g>
<g><path style="opacity:0.91" fill="#110f8d" d="M 249.5,181.5 C 258.173,181.334 266.84,181.5 275.5,182C 283.084,186.63 283.418,191.63 276.5,197C 266.833,197.667 257.167,197.667 247.5,197C 243.247,193.58 242.413,189.413 245,184.5C 246.409,183.219 247.909,182.219 249.5,181.5 Z"/></g>
<g><path style="opacity:0.923" fill="#110f8d" d="M 294.5,181.5 C 317.502,181.333 340.502,181.5 363.5,182C 370.864,186.692 371.197,191.692 364.5,197C 340.833,197.667 317.167,197.667 293.5,197C 289.723,194.089 288.556,190.256 290,185.5C 291.397,183.93 292.897,182.596 294.5,181.5 Z"/></g>
<g><path style="opacity:0.921" fill="#110f8d" d="M 42.5,217.5 C 60.8364,217.333 79.1697,217.5 97.5,218C 102.224,220.435 103.724,224.269 102,229.5C 101.5,231.333 100.333,232.5 98.5,233C 79.1667,233.667 59.8333,233.667 40.5,233C 34.7312,226.8 35.3979,221.633 42.5,217.5 Z"/></g>
<g><path style="opacity:0.926" fill="#110f8d" d="M 120.5,217.5 C 151.502,217.333 182.502,217.5 213.5,218C 221.067,222.58 221.401,227.58 214.5,233C 182.5,233.667 150.5,233.667 118.5,233C 112.731,226.8 113.398,221.633 120.5,217.5 Z"/></g>
<g><path style="opacity:0.913" fill="#110f8d" d="M 297.5,242.5 C 312.17,242.333 326.837,242.5 341.5,243C 347.194,248.862 346.527,253.862 339.5,258C 326.167,258.667 312.833,258.667 299.5,258C 294.094,256.02 292.261,252.186 294,246.5C 295.376,245.295 296.542,243.962 297.5,242.5 Z"/></g>
<g><path style="opacity:0.894" fill="#110f8d" d="M 359.5,242.5 C 365.842,242.334 372.175,242.5 378.5,243C 384.33,249.006 383.663,254.006 376.5,258C 370.415,258.861 364.415,258.527 358.5,257C 353.109,251.704 353.442,246.87 359.5,242.5 Z"/></g>
<g><path style="opacity:0.921" fill="#110f8d" d="M 396.5,242.5 C 415.836,242.333 435.17,242.5 454.5,243C 458.212,245.513 459.378,249.013 458,253.5C 457.065,256.102 455.232,257.602 452.5,258C 434.5,258.667 416.5,258.667 398.5,258C 394.384,256.884 392.051,254.218 391.5,250C 392.324,246.827 393.991,244.327 396.5,242.5 Z"/></g>
<g><path style="opacity:0.908" fill="#110f8d" d="M 41.5,249.5 C 50.8393,249.334 60.1726,249.5 69.5,250C 71.3333,250.5 72.5,251.667 73,253.5C 74.7238,258.731 73.2238,262.565 68.5,265C 58.7583,265.92 49.0916,265.587 39.5,264C 35.1275,258.408 35.7942,253.575 41.5,249.5 Z"/></g>
<g><path style="opacity:0.923" fill="#110f8d" d="M 88.5,249.5 C 112.502,249.333 136.502,249.5 160.5,250C 164.753,253.42 165.587,257.587 163,262.5C 161.829,263.893 160.329,264.727 158.5,265C 135.5,265.667 112.5,265.667 89.5,265C 84.9315,262.459 83.4315,258.625 85,253.5C 86.3756,252.295 87.5423,250.962 88.5,249.5 Z"/></g>
<g><path style="opacity:0.896" fill="#110f8d" d="M 180.5,249.5 C 187.947,249.071 195.281,249.571 202.5,251C 204.429,254.256 204.929,257.756 204,261.5C 202.786,263.049 201.286,264.215 199.5,265C 192.724,265.92 186.057,265.586 179.5,264C 174.195,258.737 174.528,253.904 180.5,249.5 Z"/></g>
<g><path style="opacity:0.907" fill="#110f8d" d="M 217.5,249.5 C 227.839,249.334 238.172,249.5 248.5,250C 255.401,255.42 255.067,260.42 247.5,265C 237.833,265.667 228.167,265.667 218.5,265C 210.97,260.215 210.637,255.048 217.5,249.5 Z"/></g>
<g><path style="opacity:0.916" fill="#110f8d" d="M 42.5,280.5 C 56.8372,280.333 71.1705,280.5 85.5,281C 93.0673,285.58 93.4006,290.58 86.5,296C 71.5,296.667 56.5,296.667 41.5,296C 36.4648,292.987 35.2981,288.82 38,283.5C 39.4087,282.219 40.9087,281.219 42.5,280.5 Z"/></g>
<g><path style="opacity:0.921" fill="#110f8d" d="M 103.5,280.5 C 122.17,280.333 140.836,280.5 159.5,281C 164.069,283.541 165.569,287.375 164,292.5C 162.833,293.667 161.667,294.833 160.5,296C 141.167,296.667 121.833,296.667 102.5,296C 97.0344,290.434 97.3678,285.267 103.5,280.5 Z"/></g>
<g><path style="opacity:0.923" fill="#110f8d" d="M 179.5,280.5 C 203.169,280.333 226.836,280.5 250.5,281C 258.067,285.58 258.401,290.58 251.5,296C 227.167,296.667 202.833,296.667 178.5,296C 173.034,290.434 173.368,285.267 179.5,280.5 Z"/></g>
<g><path style="opacity:0.916" fill="#110f8d" d="M 299.5,323.5 C 312.837,323.333 326.171,323.5 339.5,324C 346.527,328.138 347.194,333.138 341.5,339C 326.833,339.667 312.167,339.667 297.5,339C 293.247,335.58 292.413,331.413 295,326.5C 296.409,325.219 297.909,324.219 299.5,323.5 Z"/></g>
<g><path style="opacity:0.894" fill="#110f8d" d="M 360.5,323.5 C 365.844,323.334 371.177,323.501 376.5,324C 383.663,327.994 384.33,332.994 378.5,339C 371.392,339.924 364.392,339.591 357.5,338C 353.383,332.17 354.383,327.337 360.5,323.5 Z"/></g>
<g><path style="opacity:0.923" fill="#110f8d" d="M 398.5,323.5 C 416.503,323.333 434.503,323.5 452.5,324C 458.158,325.829 459.992,329.663 458,335.5C 457.5,337.333 456.333,338.5 454.5,339C 435.167,339.667 415.833,339.667 396.5,339C 392.277,336.005 391.111,332.171 393,327.5C 394.5,325.531 396.333,324.198 398.5,323.5 Z"/></g>
<g><path style="opacity:0.913" fill="#110f8d" d="M 298.5,405.5 C 312.504,405.333 326.504,405.5 340.5,406C 344.861,408.226 346.361,411.726 345,416.5C 344.167,418.667 342.667,420.167 340.5,421C 326.5,421.667 312.5,421.667 298.5,421C 293.465,417.987 292.298,413.82 295,408.5C 296.145,407.364 297.312,406.364 298.5,405.5 Z"/></g>
<g><path style="opacity:0.884" fill="#110f8d" d="M 359.5,405.5 C 366.284,405.08 372.95,405.58 379.5,407C 383.926,412.441 383.259,417.108 377.5,421C 370.724,421.92 364.057,421.586 357.5,420C 353.271,414.434 353.937,409.601 359.5,405.5 Z"/></g>
<g><path style="opacity:0.924" fill="#110f8d" d="M 396.5,405.5 C 415.503,405.333 434.503,405.5 453.5,406C 458.224,408.435 459.724,412.269 458,417.5C 456.786,419.049 455.286,420.215 453.5,421C 434.833,421.667 416.167,421.667 397.5,421C 390.441,416.162 390.108,410.995 396.5,405.5 Z"/></g>
</svg>
