<?xml version="1.0" encoding="UTF-8"?>
<!DOCTYPE svg PUBLIC "-//W3C//DTD SVG 1.1//EN" "http://www.w3.org/Graphics/SVG/1.1/DTD/svg11.dtd">
<svg xmlns="http://www.w3.org/2000/svg" version="1.1" width="512px" height="512px" style="shape-rendering:geometricPrecision; text-rendering:geometricPrecision; image-rendering:optimizeQuality; fill-rule:evenodd; clip-rule:evenodd" xmlns:xlink="http://www.w3.org/1999/xlink">
<g><path style="opacity:0.992" fill="#110f8d" d="M -0.5,-0.5 C 170.167,-0.5 340.833,-0.5 511.5,-0.5C 511.5,138.167 511.5,276.833 511.5,415.5C 476.833,415.5 442.167,415.5 407.5,415.5C 407.5,447.5 407.5,479.5 407.5,511.5C 402.167,511.5 396.833,511.5 391.5,511.5C 391.5,418.167 391.5,324.833 391.5,231.5C 375.5,231.5 359.5,231.5 343.5,231.5C 343.5,324.833 343.5,418.167 343.5,511.5C 338.167,511.5 332.833,511.5 327.5,511.5C 327.5,479.5 327.5,447.5 327.5,415.5C 314.167,415.5 300.833,415.5 287.5,415.5C 287.5,447.5 287.5,479.5 287.5,511.5C 282.167,511.5 276.833,511.5 271.5,511.5C 271.5,452.833 271.5,394.167 271.5,335.5C 260.833,335.5 250.167,335.5 239.5,335.5C 239.5,394.167 239.5,452.833 239.5,511.5C 234.167,511.5 228.833,511.5 223.5,511.5C 223.5,479.5 223.5,447.5 223.5,415.5C 210.167,415.5 196.833,415.5 183.5,415.5C 183.5,447.5 183.5,479.5 183.5,511.5C 178.167,511.5 172.833,511.5 167.5,511.5C 167.5,388.833 167.5,266.167 167.5,143.5C 146.167,143.5 124.833,143.5 103.5,143.5C 103.5,148.833 103.5,154.167 103.5,159.5C 114.167,159.5 124.833,159.5 135.5,159.5C 135.5,164.833 135.5,170.167 135.5,175.5C 124.833,175.5 114.167,175.5 103.5,175.5C 103.5,180.833 103.5,186.167 103.5,191.5C 119.5,191.5 135.5,191.5 151.5,191.5C 151.5,196.833 151.5,202.167 151.5,207.5C 135.5,207.5 119.5,207.5 103.5,207.5C 103.5,212.833 103.5,218.167 103.5,223.5C 114.167,223.5 124.833,223.5 135.5,223.5C 135.5,228.833 135.5,234.167 135.5,239.5C 124.833,239.5 114.167,239.5 103.5,239.5C 103.5,244.833 103.5,250.167 103.5,255.5C 119.5,255.5 135.5,255.5 151.5,255.5C 151.5,260.833 151.5,266.167 151.5,271.5C 135.5,271.5 119.5,271.5 103.5,271.5C 103.5,276.833 103.5,282.167 103.5,287.5C 114.167,287.5 124.833,287.5 135.5,287.5C 135.5,292.833 135.5,298.167 135.5,303.5C 124.833,303.5 114.167,303.5 103.5,303.5C 103.5,308.833 103.5,314.167 103.5,319.5C 119.5,319.5 135.5,319.5 151.5,319.5C 151.5,324.833 151.5,330.167 151.5,335.5C 135.5,335.5 119.5,335.5 103.5,335.5C 103.5,340.833 103.5,346.167 103.5,351.5C 114.167,351.5 124.833,351.5 135.5,351.5C 135.5,356.833 135.5,362.167 135.5,367.5C 124.833,367.5 114.167,367.5 103.5,367.5C 103.5,372.833 103.5,378.167 103.5,383.5C 119.5,383.5 135.5,383.5 151.5,383.5C 151.5,388.833 151.5,394.167 151.5,399.5C 135.5,399.5 119.5,399.5 103.5,399.5C 103.5,404.833 103.5,410.167 103.5,415.5C 114.167,415.5 124.833,415.5 135.5,415.5C 135.5,420.833 135.5,426.167 135.5,431.5C 124.833,431.5 114.167,431.5 103.5,431.5C 103.5,436.833 103.5,442.167 103.5,447.5C 119.5,447.5 135.5,447.5 151.5,447.5C 151.5,452.833 151.5,458.167 151.5,463.5C 135.5,463.5 119.5,463.5 103.5,463.5C 103.5,468.833 103.5,474.167 103.5,479.5C 114.167,479.5 124.833,479.5 135.5,479.5C 135.5,484.833 135.5,490.167 135.5,495.5C 124.833,495.5 114.167,495.5 103.5,495.5C 103.5,500.833 103.5,506.167 103.5,511.5C 98.1667,511.5 92.8333,511.5 87.5,511.5C 87.5,479.5 87.5,447.5 87.5,415.5C 58.1667,415.5 28.8333,415.5 -0.5,415.5C -0.5,276.833 -0.5,138.167 -0.5,-0.5 Z M 15.5,15.5 C 175.5,15.5 335.5,15.5 495.5,15.5C 495.5,31.5 495.5,47.5 495.5,63.5C 335.5,63.5 175.5,63.5 15.5,63.5C 15.5,47.5 15.5,31.5 15.5,15.5 Z M 15.5,79.5 C 175.5,79.5 335.5,79.5 495.5,79.5C 495.5,186.167 495.5,292.833 495.5,399.5C 466.167,399.5 436.833,399.5 407.5,399.5C 407.667,339.166 407.5,278.832 407,218.5C 396.525,188.243 386.359,157.909 376.5,127.5C 370.5,127.5 364.5,127.5 358.5,127.5C 348.641,157.909 338.475,188.243 328,218.5C 327.5,278.832 327.333,339.166 327.5,399.5C 314.167,399.5 300.833,399.5 287.5,399.5C 287.667,371.831 287.5,344.165 287,316.5C 284.833,294.833 282.667,273.167 280.5,251.5C 282.199,246.594 285.032,242.261 289,238.5C 295.11,228.684 297.11,218.017 295,206.5C 286.312,178.123 273.145,152.123 255.5,128.5C 237.855,152.123 224.688,178.123 216,206.5C 212.876,222.549 217.376,235.882 229.5,246.5C 229.833,248.167 230.167,249.833 230.5,251.5C 228.399,273.506 226.233,295.506 224,317.5C 223.5,344.831 223.333,372.165 223.5,399.5C 210.167,399.5 196.833,399.5 183.5,399.5C 183.5,308.833 183.5,218.167 183.5,127.5C 151.5,127.5 119.5,127.5 87.5,127.5C 87.5,218.167 87.5,308.833 87.5,399.5C 63.5,399.5 39.5,399.5 15.5,399.5C 15.5,292.833 15.5,186.167 15.5,79.5 Z M 366.5,157.5 C 367.497,157.47 368.164,157.97 368.5,159C 371.068,166.871 373.735,174.704 376.5,182.5C 370.5,183.833 364.5,183.833 358.5,182.5C 361.575,174.277 364.241,165.944 366.5,157.5 Z M 254.5,160.5 C 264.3,173.762 271.8,188.429 277,204.5C 282.155,223.888 274.989,235.221 255.5,238.5C 240.93,237.43 233.263,229.596 232.5,215C 232.897,207.475 234.73,200.308 238,193.5C 242.999,182.168 248.499,171.168 254.5,160.5 Z M 352.5,199.5 C 362.522,199.168 372.522,199.501 382.5,200.5C 384.167,205.167 385.833,209.833 387.5,214.5C 374.167,215.833 360.833,215.833 347.5,214.5C 349.372,209.55 351.039,204.55 352.5,199.5 Z M 247.5,255.5 C 252.833,255.5 258.167,255.5 263.5,255.5C 265.761,276.517 268.094,297.517 270.5,318.5C 260.517,319.666 250.517,319.832 240.5,319C 242.995,297.888 245.328,276.722 247.5,255.5 Z"/></g>
<g><path style="opacity:1" fill="#110f8d" d="M 31.5,31.5 C 36.8333,31.5 42.1667,31.5 47.5,31.5C 47.5,36.8333 47.5,42.1667 47.5,47.5C 42.1667,47.5 36.8333,47.5 31.5,47.5C 31.5,42.1667 31.5,36.8333 31.5,31.5 Z"/></g>
<g><path style="opacity:1" fill="#110f8d" d="M 63.5,31.5 C 68.8333,31.5 74.1667,31.5 79.5,31.5C 79.5,36.8333 79.5,42.1667 79.5,47.5C 74.1667,47.5 68.8333,47.5 63.5,47.5C 63.5,42.1667 63.5,36.8333 63.5,31.5 Z"/></g>
<g><path style="opacity:1" fill="#110f8d" d="M 95.5,31.5 C 100.833,31.5 106.167,31.5 111.5,31.5C 111.5,36.8333 111.5,42.1667 111.5,47.5C 106.167,47.5 100.833,47.5 95.5,47.5C 95.5,42.1667 95.5,36.8333 95.5,31.5 Z"/></g>
<g><path style="opacity:1" fill="#110f8d" d="M 159.5,31.5 C 266.167,31.5 372.833,31.5 479.5,31.5C 479.5,36.8333 479.5,42.1667 479.5,47.5C 372.833,47.5 266.167,47.5 159.5,47.5C 159.5,42.1667 159.5,36.8333 159.5,31.5 Z"/></g>
<g><path style="opacity:1" fill="#110f8d" d="M 383.5,95.5 C 415.5,95.5 447.5,95.5 479.5,95.5C 479.5,100.833 479.5,106.167 479.5,111.5C 447.5,111.5 415.5,111.5 383.5,111.5C 383.5,106.167 383.5,100.833 383.5,95.5 Z"/></g>
<g><path style="opacity:1" fill="#110f8d" d="M 415.5,127.5 C 436.833,127.5 458.167,127.5 479.5,127.5C 479.5,132.833 479.5,138.167 479.5,143.5C 458.167,143.5 436.833,143.5 415.5,143.5C 415.5,138.167 415.5,132.833 415.5,127.5 Z"/></g>
<g><path style="opacity:1" fill="#110f8d" d="M 447.5,159.5 C 458.167,159.5 468.833,159.5 479.5,159.5C 479.5,164.833 479.5,170.167 479.5,175.5C 468.833,175.5 458.167,175.5 447.5,175.5C 447.5,170.167 447.5,164.833 447.5,159.5 Z"/></g>
</svg>
